<svg width="1446" height="248" viewBox="0 0 1446 248" fill="none" xmlns="http://www.w3.org/2000/svg">
<path d="M1430.44 73.0097C1430.44 67.5168 1426.55 63.8548 1420.14 63.8548L1407.55 64.0837L1407.78 92.0059H1414.65V82.3934H1418.77L1424.72 92.0059H1432.73L1425.63 81.249C1427.1 80.4344 1428.32 79.2393 1429.17 77.7893C1430.01 76.3394 1430.45 74.6882 1430.44 73.0097ZM1418.77 76.6716H1414.42V69.5766H1419.45C1420.36 69.4773 1421.27 69.731 1422 70.285C1422.72 70.8391 1423.2 71.6509 1423.35 72.552V72.7808C1423.33 73.3466 1423.19 73.9024 1422.95 74.4124C1422.7 74.9224 1422.35 75.3752 1421.92 75.7418C1421.49 76.1084 1420.99 76.3806 1420.44 76.5407C1419.9 76.7009 1419.33 76.7454 1418.77 76.6716V76.6716ZM403.499 202.093C391.826 202.093 383.816 192.938 383.816 179.434V117.868H431.879V74.3829H383.93L383.472 24.4892H330.374L330.832 190.649C330.832 224.293 353.262 247.18 386.219 247.18C403.613 247.18 420.092 244.663 433.137 238.712V196.371C423.873 200.67 413.697 202.635 403.499 202.093V202.093ZM530.293 71.6365C480.857 71.6365 442.864 110.087 442.864 161.125C442.864 211.705 480.857 246.951 533.268 246.951C562.792 246.951 590.486 236.423 607.422 214.681L566.683 196.142C558.444 203.695 545.856 206.67 534.641 206.67C516.332 206.67 498.022 197.286 495.505 178.061H617.035C618.861 171.192 619.784 164.113 619.781 157.005C619.781 104.594 581.56 71.6365 530.407 71.6365H530.293ZM495.505 144.417C497.107 121.53 513.585 111.002 531.666 111.002C552.035 111.002 567.37 122.446 567.37 142.129V144.417H495.505ZM279.909 202.093C268.236 202.093 260.226 192.938 260.226 179.434V117.868H308.288V74.3829H260.34L259.882 24.4892H206.784L207.242 190.649C207.242 224.293 229.671 247.18 262.629 247.18C280.023 247.18 296.502 244.663 309.547 238.712V196.371C300.29 200.691 290.109 202.656 279.909 202.093V202.093ZM93.3791 71.6365C47.8339 71.6365 0 101.619 0 162.04C0 212.392 33.8728 247.638 76.6716 247.638C101.161 247.638 119.699 237.796 131.829 220.402L133.431 244.662H184.813V164.1C184.813 102.763 139.611 71.6365 93.3791 71.6365V71.6365ZM93.3791 201.177C70.2632 201.177 53.5557 184.012 53.5557 159.752C53.5557 135.491 70.0344 118.326 93.3791 118.326C114.893 118.326 132.745 137.093 132.745 159.752C132.745 182.41 114.893 201.177 93.3791 201.177V201.177ZM1417.62 51.267C1400.92 51.4958 1390.16 62.2528 1390.39 78.2737C1390.62 94.2946 1401.6 104.823 1418.31 104.594C1434.56 104.365 1445.55 93.6081 1445.32 77.3583C1445.09 61.1084 1434.1 51.0381 1417.62 51.267V51.267ZM1418.31 100.016C1405.26 100.245 1396.34 91.5482 1396.34 78.2737C1396.34 64.9992 1404.81 56.0732 1417.85 55.8444C1430.9 55.6155 1439.6 64.3126 1439.82 77.8159C1439.82 90.8616 1431.13 99.7875 1418.42 100.016H1418.31ZM1158.08 74.6118L1121.01 182.181L1083.47 74.6118H1025.8L1094.92 244.434H1146.64L1215.76 74.6118H1158.08ZM1295.64 71.6365C1246.2 71.6365 1208.21 110.087 1208.21 161.125C1208.21 211.705 1246.2 246.951 1298.61 246.951C1328.14 246.951 1355.83 236.423 1372.76 214.681L1332.03 196.142C1323.79 203.695 1311.2 206.67 1299.98 206.67C1281.67 206.67 1263.36 197.286 1260.85 178.061H1382.38C1384.2 171.192 1385.13 164.113 1385.12 157.005C1385.12 104.594 1346.9 71.6365 1295.64 71.6365ZM1332.71 144.417H1260.85C1262.45 121.53 1278.93 111.002 1297.01 111.002C1317.38 111.002 1332.71 122.446 1332.71 142.129V144.417ZM984.829 0C966.062 0 951.872 12.5879 951.872 30.2109C951.872 47.8339 966.062 60.8796 984.829 60.8796C1003.6 60.8796 1017.79 48.0628 1017.79 30.2109C1017.79 12.359 1003.83 0 984.829 0V0ZM743.829 71.4076C733.098 71.2342 722.505 73.8411 713.08 78.9747C703.655 84.1083 695.719 91.5937 690.044 100.703L688.213 74.6118H636.946V244.434H690.044V155.403C691.189 134.118 708.354 117.868 727.121 117.868C748.177 117.868 757.79 133.66 757.79 153.572V244.205H810.659V145.333C810.659 102.305 784.453 71.4076 743.829 71.4076V71.4076ZM905.869 202.093C894.197 202.093 886.186 192.938 886.186 179.434V117.868H934.249V74.3829H886.186L885.729 24.4892H832.631L833.088 190.649C833.088 224.293 855.518 247.18 888.475 247.18C905.869 247.18 922.348 244.663 935.394 238.712V196.371C926.171 200.672 916.031 202.637 905.869 202.093V202.093ZM958.052 74.6118V244.434H1011.61V74.6118C1003.67 79.8733 994.354 82.6792 984.829 82.6792C975.305 82.6792 965.991 79.8733 958.052 74.6118V74.6118Z" fill="white"/>
</svg>
