<svg width="1686" height="230" viewBox="0 0 1686 230" fill="none" xmlns="http://www.w3.org/2000/svg">
<path d="M1645.05 10.351H1685.79V224.74H1645.05V10.351ZM1552.32 94.9264C1528.44 94.9264 1517.76 114.595 1517.76 127.801H1586.04C1586.32 107.852 1571.71 94.9264 1552.32 94.9264ZM1517.48 157.023V159.552C1517.48 179.221 1535.18 195.237 1555.13 195.237C1570.59 195.237 1581.54 187.088 1586.6 175.849H1628.75C1628.75 182.874 1611.61 229.517 1556.26 229.517C1503.15 229.517 1474.49 187.088 1474.49 144.379C1474.49 103.918 1503.43 62.6136 1552.32 62.6136C1601.49 62.6136 1630.72 103.637 1630.72 157.023H1517.48ZM1466.34 99.1412C1444.71 99.1412 1426.72 115.157 1426.72 138.479V224.74H1385.98V67.6712H1424.47L1425.88 83.9682H1426.44C1438.52 69.6381 1451.45 64.0185 1464.09 64.0185C1468.87 64.0185 1472.52 64.5804 1474.21 65.4234V99.4222C1471.68 99.4222 1470.27 99.1412 1466.34 99.1412ZM1362.1 99.1412C1340.46 99.1412 1322.48 115.157 1322.48 138.479V224.74H1281.74V67.6712H1320.23L1321.64 83.9682H1322.2C1334.28 69.6381 1347.2 64.0185 1359.85 64.0185C1364.63 64.0185 1368.28 64.5804 1369.96 65.4234V99.4222C1367.44 99.4222 1366.03 99.1412 1362.1 99.1412ZM1223.57 143.817C1219.64 146.065 1212.61 148.032 1200.25 150.842C1185.36 154.214 1175.24 157.023 1167.94 161.8C1161.19 166.296 1159.23 174.444 1159.23 178.097C1159.23 181.75 1161.76 197.485 1185.92 197.485C1199.69 197.485 1208.68 193.27 1215.99 186.807C1223.01 180.626 1223.57 168.825 1223.57 157.866V143.817ZM1227.23 224.74C1226.38 219.963 1225.82 216.31 1224.98 210.972C1208.68 224.74 1194.91 229.236 1176.37 229.236C1147.71 229.236 1118.49 210.129 1118.49 180.345C1118.49 148.594 1147.43 134.545 1174.68 128.925C1199.97 124.149 1222.17 128.363 1222.17 110.661C1222.17 98.2982 1208.4 90.9927 1193.79 90.9927C1185.36 90.9927 1177.21 93.8025 1171.87 98.0173C1167.1 101.951 1164.85 108.133 1164 113.752H1128.32C1129.72 95.4884 1136.47 81.4393 1149.39 73.5718C1160.63 66.5473 1174.68 62.3326 1193.51 62.3326C1236.5 62.3326 1261.79 79.7535 1261.79 117.686V184.56V193.27C1261.79 204.509 1262.35 215.187 1267.97 224.459H1227.23V224.74ZM1024.64 128.644H976.59V191.022H1023.79C1045.43 191.022 1062.57 181.75 1062.57 159.833C1062.57 148.313 1058.36 128.644 1024.64 128.644ZM1023.51 43.5068H1007.5H976.59V96.3313H1023.79C1038.41 96.3313 1057.79 89.8688 1057.79 69.3571C1057.79 55.87 1047.96 43.5068 1023.51 43.5068ZM1049.65 224.74H935.286V10.351H1024.64C1088.14 10.351 1099.1 41.821 1099.1 64.5805C1099.1 99.4222 1068.19 108.695 1065.66 110.099C1068.19 111.223 1106.97 121.62 1106.97 167.42C1106.97 203.385 1074.37 224.74 1049.65 224.74ZM819.24 37.8872C808.844 37.8872 800.415 46.3166 800.415 54.4651C800.415 64.8614 809.125 74.1338 817.835 85.3731C828.232 77.5056 839.19 67.3902 839.19 56.4319C839.19 44.9117 828.513 37.8872 819.24 37.8872ZM807.439 131.454C801.258 135.388 795.919 139.041 788.613 145.222C779.622 152.809 775.688 161.519 775.688 169.668C775.688 183.436 786.927 194.956 800.415 194.956C820.083 194.956 833.289 183.436 842 177.254C827.67 158.147 813.34 139.041 807.439 131.454ZM911.121 224.74H878.527C872.346 216.592 863.635 205.352 863.635 205.352C849.586 217.715 827.108 229.236 800.415 229.236C757.143 229.236 735.508 196.642 735.508 170.51C735.508 132.859 766.135 112.066 787.208 102.794C784.68 99.1411 764.168 79.1915 764.168 53.9031C764.168 31.9865 784.118 5.29333 817.835 5.29333C847.9 5.29333 874.032 26.086 874.032 57.2749C874.032 87.059 851.553 102.513 838.347 110.942C848.181 123.587 857.173 135.669 865.883 147.189C865.883 147.189 877.404 115.719 877.404 113.471H912.245C910.559 131.454 903.535 157.866 888.362 176.973C899.32 191.303 910.84 206.476 924.608 224.74H911.121ZM645.032 94.9264C621.148 94.9264 610.471 114.595 610.471 127.801H678.749C678.749 107.852 664.138 94.9264 645.032 94.9264ZM609.909 157.023V159.552C609.909 179.221 627.611 195.237 647.561 195.237C663.015 195.237 673.973 187.088 679.03 175.849H721.178C721.178 182.874 704.038 229.517 648.404 229.517C595.298 229.517 566.638 187.088 566.638 144.379C566.638 103.918 595.579 62.6136 644.47 62.6136C693.642 62.6136 722.864 103.637 722.864 157.023H609.909ZM538.821 225.021H537.697C505.384 225.021 498.359 205.352 498.359 186.807V94.9264H477.005V67.6712H498.359V14.8467H538.821V67.3903H567.762V94.6454H538.821V173.601C538.821 188.212 542.754 193.551 556.804 193.551H569.167V224.178C546.688 225.021 538.821 225.021 538.821 225.021ZM430.362 143.817C426.428 146.065 419.404 148.032 407.04 150.842C392.148 154.214 382.033 157.023 374.727 161.8C367.984 166.296 366.017 174.444 366.017 178.097C366.017 181.75 368.546 197.485 392.71 197.485C406.478 197.485 415.47 193.27 422.775 186.807C429.8 180.626 430.362 168.825 430.362 157.866V143.817ZM434.015 224.74C433.172 219.963 432.61 216.31 431.767 210.972C415.47 224.74 401.702 229.236 383.157 229.236C354.497 229.236 325.275 210.129 325.275 180.345C325.275 148.594 354.216 134.545 381.471 128.925C406.759 124.149 428.957 128.363 428.957 110.661C428.957 98.2982 415.189 90.9927 400.578 90.9927C392.148 90.9927 384 93.8025 378.661 98.0173C373.885 101.951 371.637 108.133 370.794 113.752H335.109C336.514 95.4884 343.258 81.4393 356.183 73.5718C367.422 66.5473 381.471 62.3326 400.297 62.3326C443.287 62.3326 468.575 79.7535 468.575 117.686V184.56V193.27C468.575 204.509 469.137 215.187 474.757 224.459H434.015V224.74ZM318.531 99.1412C296.896 99.1412 278.913 115.157 278.913 138.479V224.74H238.17V67.6712H276.665L278.07 83.9682H278.632C290.714 69.6381 303.639 64.0185 316.283 64.0185C321.06 64.0185 324.713 64.5804 326.399 65.4234V99.4222C323.589 99.4222 322.465 99.1412 318.531 99.1412ZM183.66 99.7032C180.288 78.3486 156.967 42.3828 112.572 42.3828C72.6722 42.3828 41.2023 73.8528 41.2023 116.281C41.2023 154.776 74.0771 188.212 112.853 188.212C156.405 188.212 178.321 151.685 181.974 139.883H222.997C216.254 176.692 178.04 229.236 113.696 229.236C50.1937 229.236 0.459961 177.254 0.459961 114.876C0.459961 53.0602 49.9127 0.797607 112.572 0.797607C174.107 0.797607 219.345 48.5645 224.964 99.7032H183.66Z" fill="#1A1E22"/>
</svg>
