<svg width="1007" height="189" viewBox="0 0 1007 189" fill="none" xmlns="http://www.w3.org/2000/svg">
<path d="M98.67 50.05C112.255 50.05 125.125 57.2 132.275 67.21C132.633 67.5675 132.632 67.5675 132.99 67.925C133.347 68.2825 133.705 68.64 133.705 68.9975C138.353 75.075 145.86 78.65 154.082 78.65C168.382 78.65 180.18 66.8525 180.18 52.5525C180.18 45.76 177.678 39.6825 173.388 35.035C155.513 12.87 134.062 0 98.3125 0C42.185 0 0 38.9675 0 93.665C0 149.078 42.185 188.045 98.67 188.045C134.778 188.045 155.87 175.533 173.745 155.513C177.677 150.865 180.18 145.145 180.18 138.71C180.18 124.41 168.74 112.97 154.44 112.97C146.575 112.97 139.783 116.545 135.135 121.907C126.555 130.487 116.902 138.71 99.0275 138.71C73.2875 138.71 58.63 120.12 58.63 93.665C58.2725 68.2825 72.5725 50.05 98.67 50.05Z" fill="#1A1E22"/>
<path d="M342.127 11.7978C333.19 7.15032 327.112 6.0778 313.885 7.1503C290.29 9.2953 272.057 25.7403 268.84 29.6728V30.7453C268.84 30.3878 268.84 30.0303 268.84 29.6728C267.767 14.6578 255.255 2.50281 239.882 2.50281C223.795 2.50281 210.925 15.3728 210.567 31.1028V158.73C210.925 174.46 223.795 186.973 239.882 186.973C255.97 186.973 268.84 174.103 269.197 158.373V123.695C269.197 76.5053 296.725 64.3503 312.097 63.9928C316.03 63.9928 326.397 67.9253 334.62 66.4953C350.707 63.6353 361.075 48.2628 358.215 32.5328C356.07 23.2378 349.992 15.7303 342.127 11.7978Z" fill="#1A1E22"/>
<path d="M470.113 140.14C495.495 140.14 510.51 121.55 510.868 94.7375C510.868 67.5675 495.495 49.335 470.113 49.335C444.73 49.335 429 67.5675 429 94.7375C429 121.193 444.73 140.14 470.113 140.14ZM470.113 0C525.883 0 569.14 39.325 569.14 94.38C569.14 149.078 525.883 188.045 470.113 188.045C414.343 188.045 370.728 149.078 370.728 94.38C370.728 39.325 414.343 0 470.113 0Z" fill="#1A1E22"/>
<path d="M697.839 50.05C711.424 50.05 724.294 57.2 731.444 67.21C731.802 67.5675 731.802 67.5675 732.159 67.925C732.517 68.2825 732.874 68.64 732.874 68.9975C737.522 75.075 745.029 78.65 753.252 78.65C767.552 78.65 779.349 66.8525 779.349 52.5525C779.349 45.76 776.847 39.6825 772.557 35.035C754.682 12.87 733.232 0 697.839 0C641.712 0 599.169 38.9675 599.169 93.665C599.169 149.078 641.354 188.045 697.839 188.045C733.947 188.045 755.039 175.533 772.914 155.513C776.847 150.865 779.349 145.145 779.349 138.71C779.349 124.41 767.909 112.97 753.609 112.97C745.744 112.97 738.952 116.545 734.304 121.907C725.724 130.487 716.072 138.71 697.839 138.71C672.099 138.71 657.442 120.12 657.442 93.665C657.799 68.2825 672.099 50.05 697.839 50.05Z" fill="#1A1E22"/>
<path d="M898.397 71.5C924.495 77.5775 957.385 89.7325 957.385 128.342C957.385 161.232 940.225 188.403 883.382 188.403C848.705 188.403 826.182 177.678 810.452 163.735C810.095 163.378 809.737 163.02 809.38 162.662C808.665 162.305 808.307 161.59 807.95 161.232C807.592 160.875 807.235 160.16 806.877 159.803C806.162 159.088 805.805 158.372 805.447 157.657C805.447 157.657 805.09 157.3 805.09 156.942C800.442 148.362 801.515 137.637 808.665 130.487C817.245 121.55 831.545 121.193 840.482 129.415L840.125 129.057C851.565 137.995 865.15 143.357 879.807 143.357C898.397 143.357 904.475 139.782 904.475 132.275C904.475 122.265 893.035 122.265 863.72 114.757C839.052 108.322 811.525 94.7375 811.525 57.2C811.525 16.445 842.627 0 881.237 0C910.91 0 932.002 9.65251 946.66 24.6675C951.307 28.6 954.167 34.6775 954.167 41.1125C954.167 53.625 944.157 63.635 931.645 63.635C925.567 63.635 920.205 61.49 916.272 57.5575C907.692 50.4075 895.18 43.9725 881.595 43.9725C868.725 43.9725 862.29 47.5475 862.29 54.6975C862.29 64.7075 873.73 66.1375 898.397 71.5Z" fill="#1A1E22"/>
<path d="M976.69 8.93778V4.29028H957.742V8.93778H964.535V27.5278H970.255V8.93778H976.69Z" fill="#1A1E22"/>
<path d="M1001.36 27.5278V11.0828L995.28 27.5278H991.347L985.27 11.0828V27.5278H979.907V4.29028H987.772L993.492 19.6628L999.212 4.29028H1006.72V27.5278H1001.36Z" fill="#1A1E22"/>
</svg>
