<svg width="1404" height="553" viewBox="0 0 1404 553" fill="none" xmlns="http://www.w3.org/2000/svg">
<g clip-path="url(#clip0_1719_23)">
<path d="M321.57 386.027L266.7 440.467H116.293V65.2012H263.258L321.355 119.64V386.027H321.57ZM192.465 373.762H228.614V139.867H192.465V373.762Z" fill="#1A1E22"/>
<path d="M434.106 65.2012H349.327V440.467H434.106V65.2012Z" fill="#1A1E22"/>
<path d="M666.28 209.153H583.653V135.994H547.073V369.889H583.653V280.376H666.28V386.027L610.334 440.467H522.758L462.294 386.027V119.64L517.809 65.2012H610.334L666.28 119.64V209.153Z" fill="#1A1E22"/>
<path d="M777.956 225.507H778.817L834.332 65.2012H921.263L847.673 240.569L932.452 440.467H840.572L778.817 280.376H777.956V440.467H692.962V65.2012H777.956V225.507Z" fill="#1A1E22"/>
<path d="M1208.95 65.2012L1268.77 119.64V186.13H1183.99V135.994H1148.92V212.381L1210.67 217.545L1268.77 271.984V386.027L1213.26 440.467H1119.01L1064.14 386.027V320.184H1148.92V369.889H1183.99V291.35L1123.31 286.616L1064.14 232.177V119.64L1119.65 65.2012H1208.95Z" fill="#1A1E22"/>
<path d="M184.287 477.047L206.02 487.806V501.146H175.25V491.033H162.555V506.311L184.933 507.387L206.02 518.145V540.954L186.009 551.928H151.581L131.569 540.954V527.828H162.555V537.726H175.25V522.018L153.087 521.158L131.569 510.184V487.806L151.796 477.047H184.287Z" fill="#1A1E22"/>
<path d="M263.258 512.336H251.854V491.034H263.258V512.336ZM292.737 487.806L271.865 476.832H220.653V551.713H251.423V526.322H271.65L292.522 515.779V487.806H292.737Z" fill="#1A1E22"/>
<path d="M345.884 537.727H332.973V491.034H345.884V537.727ZM376.654 487.806L355.567 476.832H322.43L301.988 487.806V540.954L322.43 551.928H356.858L376.654 540.954V487.806Z" fill="#1A1E22"/>
<path d="M436.474 507.602H423.563V491.034H436.474V507.602ZM466.383 487.806L445.726 476.832H392.793V551.713H423.563V521.373H436.474V551.713H466.383V521.373L450.89 514.057L466.383 506.741V487.806Z" fill="#1A1E22"/>
<path d="M540.617 491.248H523.188V551.928H492.418V491.248H474.773V477.047H540.617V491.248Z" fill="#1A1E22"/>
<path d="M581.072 477.047H550.302V551.928H581.072V477.047Z" fill="#1A1E22"/>
<path d="M672.951 551.928H647.345L627.333 515.563H626.903V551.928H597.854V477.047H623.676L643.472 513.196H643.902V477.047H672.951V551.928Z" fill="#1A1E22"/>
<path d="M761.389 505.02H730.619V491.248H716.202V537.726H730.619V526.967H722.872V512.766H761.389V540.954L741.162 551.928H706.734L685.217 540.954V487.806L705.874 477.047H740.517L761.389 487.806V505.02Z" fill="#1A1E22"/>
<path d="M900.177 505.02H869.192V491.248H854.775V537.726H869.192V526.967H861.445V512.766H900.177V540.954L879.735 551.928H845.307L824.005 540.954V487.806L844.447 477.047H879.09L900.177 487.806V505.02Z" fill="#1A1E22"/>
<path d="M956.766 537.727H943.856V491.034H956.766V537.727ZM987.536 487.806L966.234 476.832H933.097L912.655 487.806V540.954L933.097 551.928H967.525L987.321 540.954V487.806H987.536Z" fill="#1A1E22"/>
<path d="M1046.71 537.727H1033.8V491.034H1046.71V537.727ZM1077.48 487.806L1056.39 476.832H1023.26L1002.81 487.806V540.954L1023.26 551.928H1057.68L1077.48 540.954V487.806Z" fill="#1A1E22"/>
<path d="M1137.08 537.727H1124.17V491.034H1137.08V537.727ZM1167.85 487.806L1146.77 476.832H1093.19V551.713H1147.84L1167.85 540.739V487.806Z" fill="#1A1E22"/>
<path d="M1233.7 477.047L1255.43 487.806V501.146H1224.44V491.033H1211.75V506.311L1234.34 507.387L1255.43 518.145V540.954L1235.2 551.928H1200.99L1180.98 540.954V527.828H1211.75V537.726H1224.44V522.018L1202.5 521.158L1180.98 510.184V487.806L1201.21 477.047H1233.7Z" fill="#1A1E22"/>
<path d="M1265.11 541.816C1265.11 537.082 1268.77 533.209 1273.51 533.209C1278.24 533.209 1281.68 536.867 1281.68 541.816C1281.68 546.765 1278.02 550.423 1273.51 550.423C1268.77 550.423 1265.11 546.765 1265.11 541.816ZM1273.29 552.145C1278.88 552.145 1283.62 547.841 1283.62 541.816C1283.62 536.007 1278.88 531.703 1273.29 531.703C1267.7 531.703 1262.96 536.007 1262.96 541.816C1262.96 547.841 1267.7 552.145 1273.29 552.145ZM1271.14 542.677H1273.08L1276.3 547.841H1278.24L1274.8 542.677L1277.81 539.449L1273.72 536.007H1269.42V547.841H1271.14V542.677ZM1271.14 541.171V537.513H1273.72L1276.3 539.234L1273.51 541.171H1271.14Z" fill="#1A1E22"/>
<path d="M971.183 226.582C984.954 215.177 990.333 204.849 990.333 195.381C990.333 191.078 989.257 187.205 987.751 183.762L979.575 187.205L981.296 195.381C981.296 201.406 978.284 209.152 965.373 219.911L971.183 226.582Z" fill="#1A1E22"/>
<path d="M969.462 224.863C983.448 213.459 988.613 203.13 988.613 193.662C988.613 189.359 987.537 185.486 986.031 182.043L977.854 185.486L979.575 193.662C979.575 199.687 976.563 207.434 963.652 218.192L969.462 224.863Z" fill="#1A1E22"/>
<path d="M966.02 237.771C989.904 222.063 995.714 208.292 995.714 196.027L995.499 192.369L986.677 193.015L986.892 196.027C986.677 205.495 984.095 214.963 961.286 230.455L966.02 237.771Z" fill="#1A1E22"/>
<path d="M959.566 251.975C972.261 247.026 982.804 238.849 990.336 230.027C997.867 221.205 1002.6 212.167 1002.82 203.991V202.484L993.994 203.13V203.775C994.209 208.079 990.551 216.256 983.665 224.002C976.995 231.748 967.312 239.279 956.338 243.583L959.566 251.975Z" fill="#1A1E22"/>
<mask id="mask0_1719_23" style="mask-type:luminance" maskUnits="userSpaceOnUse" x="965" y="160" width="63" height="64">
<path d="M993.561 160.951L992.916 161.166H992.27L991.625 161.382L989.473 161.812L983.233 163.964C971.398 169.558 964.082 182.254 965.804 196.24C967.74 211.948 982.372 224.643 999.156 222.922C1006.04 222.276 1011.42 219.694 1016.59 215.606C1021.1 211.948 1024.12 206.999 1025.84 201.834C1031.22 185.696 1022.39 169.343 1007.98 163.318C1003.89 161.597 999.586 161.166 994.852 161.166L993.561 160.951Z" fill="white"/>
</mask>
<g mask="url(#mask0_1719_23)">
<mask id="mask1_1719_23" style="mask-type:luminance" maskUnits="userSpaceOnUse" x="955" y="149" width="85" height="90">
<path d="M1039.61 149.332H955.477V238.415H1039.61V149.332Z" fill="white"/>
</mask>
<g mask="url(#mask1_1719_23)">
<rect x="955.499" y="149.299" width="84.0952" height="88.9835" fill="#1A1E22"/>
</g>
</g>
<path d="M1047.14 151.053C1046.06 127.384 1026.05 109.094 1002.38 110.17C978.715 111.246 960.425 131.257 961.286 154.927C962.362 178.596 982.373 196.886 1006.04 195.81C1029.71 194.734 1048.22 174.723 1047.14 151.053Z" fill="#1A1E22"/>
<path d="M1047.14 151.054H1048.86C1047.79 126.955 1027.99 108.234 1004.11 108.234H1002.17C978.069 109.31 959.349 129.106 959.349 152.991V154.927C960.425 178.812 980.221 197.532 1003.89 197.532H1005.83C1029.93 196.456 1048.65 176.66 1048.65 152.991V151.054H1047.14H1045.42V152.991C1045.42 174.939 1028.2 193.013 1006.04 194.089H1004.11C982.157 194.089 964.082 176.875 963.007 154.712V152.991C963.007 131.043 980.221 112.753 1002.38 111.892H1004.11C1026.05 111.892 1044.13 129.106 1045.2 151.269L1047.14 151.054Z" fill="#1A1E22"/>
<mask id="mask2_1719_23" style="mask-type:luminance" maskUnits="userSpaceOnUse" x="961" y="109" width="87" height="87">
<path d="M1002.38 109.952C978.714 111.027 960.424 131.039 961.285 154.708C962.361 178.377 982.372 196.667 1006.04 195.591C1029.71 194.515 1048 174.504 1047.14 150.835C1046.06 127.811 1027.13 109.736 1004.1 109.736C1003.46 109.952 1003.03 109.952 1002.38 109.952Z" fill="white"/>
</mask>
<g mask="url(#mask2_1719_23)">
<path d="M1049.72 149.116C1048.65 124.586 1027.99 105.65 1003.46 106.941C978.931 108.017 959.995 128.459 961.071 152.989C962.147 177.519 982.804 196.454 1007.12 195.378C1031.86 194.302 1050.8 173.645 1049.72 149.116Z" fill="#1A1E22"/>
</g>
<mask id="mask3_1719_23" style="mask-type:luminance" maskUnits="userSpaceOnUse" x="961" y="109" width="87" height="87">
<path d="M1002.38 109.952C978.714 111.027 960.424 131.039 961.285 154.708C962.361 178.377 982.372 196.667 1006.04 195.591C1029.71 194.515 1048 174.504 1047.14 150.835C1046.06 127.811 1027.13 109.736 1004.1 109.736C1003.46 109.952 1003.03 109.952 1002.38 109.952Z" fill="white"/>
</mask>
<g mask="url(#mask3_1719_23)">
<path d="M961.716 152.985C962.792 177.085 983.233 196.02 1007.33 194.944C1031.65 193.868 1050.37 173.427 1049.29 149.327C1048.22 125.227 1027.77 106.292 1003.46 107.368C979.36 108.229 960.64 128.885 961.716 152.985Z" fill="#1A1E22"/>
</g>
<mask id="mask4_1719_23" style="mask-type:luminance" maskUnits="userSpaceOnUse" x="961" y="109" width="87" height="87">
<path d="M1002.38 109.952C978.714 111.027 960.424 131.039 961.285 154.708C962.361 178.377 982.372 196.667 1006.04 195.591C1029.71 194.515 1048 174.504 1047.14 150.835C1046.06 127.811 1027.13 109.736 1004.1 109.736C1003.46 109.952 1003.03 109.952 1002.38 109.952Z" fill="white"/>
</mask>
<g mask="url(#mask4_1719_23)">
<path d="M962.145 152.989C963.221 176.873 983.448 195.593 1007.33 194.518C1031.43 193.442 1049.94 173.215 1048.86 149.331C1047.78 125.446 1027.56 106.726 1003.46 107.802C979.574 108.663 961.069 128.889 962.145 152.989Z" fill="#1A1E22"/>
</g>
<mask id="mask5_1719_23" style="mask-type:luminance" maskUnits="userSpaceOnUse" x="961" y="109" width="87" height="87">
<path d="M1002.38 109.952C978.714 111.027 960.424 131.039 961.285 154.708C962.361 178.377 982.372 196.667 1006.04 195.591C1029.71 194.515 1048 174.504 1047.14 150.835C1046.06 127.811 1027.13 109.736 1004.1 109.736C1003.46 109.952 1003.03 109.952 1002.38 109.952Z" fill="white"/>
</mask>
<g mask="url(#mask5_1719_23)">
<path d="M962.361 152.989C963.437 176.658 983.448 195.163 1007.12 194.087C1031 193.226 1049.29 173 1048.43 149.331C1047.36 125.661 1027.34 107.156 1003.46 108.017C980.005 109.093 961.5 129.104 962.361 152.989Z" fill="#1A1E22"/>
</g>
<mask id="mask6_1719_23" style="mask-type:luminance" maskUnits="userSpaceOnUse" x="961" y="109" width="87" height="87">
<path d="M1002.38 109.952C978.714 111.027 960.424 131.039 961.285 154.708C962.361 178.377 982.372 196.667 1006.04 195.591C1029.71 194.515 1048 174.504 1047.14 150.835C1046.06 127.811 1027.13 109.736 1004.1 109.736C1003.46 109.952 1003.03 109.952 1002.38 109.952Z" fill="white"/>
</mask>
<g mask="url(#mask6_1719_23)">
<path d="M962.792 152.988C963.868 176.442 983.664 194.732 1007.33 193.872C1030.79 192.796 1049.08 173 1048.22 149.33C1047.14 125.876 1027.34 107.586 1003.68 108.447C980.221 109.523 961.931 129.534 962.792 152.988Z" fill="#1A1E22"/>
</g>
<mask id="mask7_1719_23" style="mask-type:luminance" maskUnits="userSpaceOnUse" x="961" y="109" width="87" height="87">
<path d="M1002.38 109.952C978.714 111.027 960.424 131.039 961.285 154.708C962.361 178.377 982.372 196.667 1006.04 195.591C1029.71 194.515 1048 174.504 1047.14 150.835C1046.06 127.811 1027.13 109.736 1004.1 109.736C1003.46 109.952 1003.03 109.952 1002.38 109.952Z" fill="white"/>
</mask>
<g mask="url(#mask7_1719_23)">
<path d="M963.221 152.986C964.082 176.44 983.878 194.515 1007.33 193.439C1030.57 192.363 1048.86 172.782 1047.78 149.543C1046.71 126.304 1027.13 108.229 1003.67 109.09C980.435 109.951 962.36 129.532 963.221 152.986Z" fill="#1A1E22"/>
</g>
<mask id="mask8_1719_23" style="mask-type:luminance" maskUnits="userSpaceOnUse" x="961" y="109" width="87" height="87">
<path d="M1002.38 109.952C978.714 111.027 960.424 131.039 961.285 154.708C962.361 178.377 982.372 196.667 1006.04 195.591C1029.71 194.515 1048 174.504 1047.14 150.835C1046.06 127.811 1027.13 109.736 1004.1 109.736C1003.46 109.952 1003.03 109.952 1002.38 109.952Z" fill="white"/>
</mask>
<g mask="url(#mask8_1719_23)">
<path d="M963.653 152.988C964.729 176.012 984.31 194.087 1007.33 193.011C1030.36 191.935 1048.22 172.569 1047.36 149.33C1046.28 126.092 1026.91 108.232 1003.68 109.308C980.652 110.169 962.577 129.75 963.653 152.988Z" fill="#1A1E22"/>
</g>
<mask id="mask9_1719_23" style="mask-type:luminance" maskUnits="userSpaceOnUse" x="961" y="109" width="87" height="87">
<path d="M1002.38 109.952C978.714 111.027 960.424 131.039 961.285 154.708C962.361 178.377 982.372 196.667 1006.04 195.591C1029.71 194.515 1048 174.504 1047.14 150.835C1046.06 127.811 1027.13 109.736 1004.1 109.736C1003.46 109.952 1003.03 109.952 1002.38 109.952Z" fill="white"/>
</mask>
<g mask="url(#mask9_1719_23)">
<path d="M964.083 152.988C965.159 175.796 984.525 193.656 1007.33 192.58C1030.14 191.504 1048 172.354 1046.93 149.33C1045.85 126.521 1026.48 108.662 1003.68 109.738C980.867 110.598 963.222 129.964 964.083 152.988Z" fill="#1A1E22"/>
</g>
<mask id="mask10_1719_23" style="mask-type:luminance" maskUnits="userSpaceOnUse" x="961" y="109" width="87" height="87">
<path d="M1002.38 109.952C978.714 111.027 960.424 131.039 961.285 154.708C962.361 178.377 982.372 196.667 1006.04 195.591C1029.71 194.515 1048 174.504 1047.14 150.835C1046.06 127.811 1027.13 109.736 1004.1 109.736C1003.46 109.952 1003.03 109.952 1002.38 109.952Z" fill="white"/>
</mask>
<g mask="url(#mask10_1719_23)">
<path d="M964.514 152.986C965.589 175.579 984.525 193.223 1007.33 192.148C1029.93 191.072 1047.57 171.921 1046.5 149.328C1045.63 126.734 1026.48 109.09 1003.68 110.166C981.082 111.027 963.438 130.177 964.514 152.986Z" fill="#1A1E22"/>
</g>
<mask id="mask11_1719_23" style="mask-type:luminance" maskUnits="userSpaceOnUse" x="961" y="109" width="87" height="87">
<path d="M1002.38 109.952C978.714 111.027 960.424 131.039 961.285 154.708C962.361 178.377 982.372 196.667 1006.04 195.591C1029.71 194.515 1048 174.504 1047.14 150.835C1046.06 127.811 1027.13 109.736 1004.1 109.736C1003.46 109.952 1003.03 109.952 1002.38 109.952Z" fill="white"/>
</mask>
<g mask="url(#mask11_1719_23)">
<path d="M964.943 152.99C966.019 175.369 984.739 192.798 1007.33 191.937C1029.71 190.861 1047.14 171.926 1046.28 149.548C1045.2 127.169 1026.27 109.74 1003.89 110.601C981.296 111.462 963.867 130.397 964.943 152.99Z" fill="#1A1E22"/>
</g>
<mask id="mask12_1719_23" style="mask-type:luminance" maskUnits="userSpaceOnUse" x="961" y="109" width="87" height="87">
<path d="M1002.38 109.952C978.714 111.027 960.424 131.039 961.285 154.708C962.361 178.377 982.372 196.667 1006.04 195.591C1029.71 194.515 1048 174.504 1047.14 150.835C1046.06 127.811 1027.13 109.736 1004.1 109.736C1003.46 109.952 1003.03 109.952 1002.38 109.952Z" fill="white"/>
</mask>
<g mask="url(#mask12_1719_23)">
<path d="M965.373 152.774C966.234 174.937 984.954 192.151 1007.33 191.29C1029.5 190.429 1046.71 171.494 1045.85 149.331C1044.99 126.953 1026.05 109.954 1003.89 110.814C981.727 111.89 964.298 130.611 965.373 152.774Z" fill="#1A1E22"/>
</g>
<mask id="mask13_1719_23" style="mask-type:luminance" maskUnits="userSpaceOnUse" x="961" y="109" width="87" height="87">
<path d="M1002.38 109.952C978.714 111.027 960.424 131.039 961.285 154.708C962.361 178.377 982.372 196.667 1006.04 195.591C1029.71 194.515 1048 174.504 1047.14 150.835C1046.06 127.811 1027.13 109.736 1004.1 109.736C1003.46 109.952 1003.03 109.952 1002.38 109.952Z" fill="white"/>
</mask>
<g mask="url(#mask13_1719_23)">
<path d="M965.589 152.772C966.45 174.72 985.17 191.934 1007.12 190.858C1029.07 189.997 1046.28 171.277 1045.2 149.329C1044.34 127.381 1025.62 110.167 1003.67 111.243C981.727 112.104 964.728 130.824 965.589 152.772Z" fill="#1A1E22"/>
</g>
<mask id="mask14_1719_23" style="mask-type:luminance" maskUnits="userSpaceOnUse" x="961" y="109" width="87" height="87">
<path d="M1002.38 109.952C978.714 111.027 960.424 131.039 961.285 154.708C962.361 178.377 982.372 196.667 1006.04 195.591C1029.71 194.515 1048 174.504 1047.14 150.835C1046.06 127.811 1027.13 109.736 1004.1 109.736C1003.46 109.952 1003.03 109.952 1002.38 109.952Z" fill="white"/>
</mask>
<g mask="url(#mask14_1719_23)">
<path d="M966.02 152.77C966.88 174.502 985.385 191.501 1007.12 190.64C1028.85 189.565 1045.85 171.275 1044.77 149.542C1043.91 127.809 1025.41 110.81 1003.68 111.886C982.158 112.532 965.159 131.037 966.02 152.77Z" fill="#1A1E22"/>
</g>
<mask id="mask15_1719_23" style="mask-type:luminance" maskUnits="userSpaceOnUse" x="961" y="109" width="87" height="87">
<path d="M1002.38 109.952C978.714 111.027 960.424 131.039 961.285 154.708C962.361 178.377 982.372 196.667 1006.04 195.591C1029.71 194.515 1048 174.504 1047.14 150.835C1046.06 127.811 1027.13 109.736 1004.1 109.736C1003.46 109.952 1003.03 109.952 1002.38 109.952Z" fill="white"/>
</mask>
<g mask="url(#mask15_1719_23)">
<path d="M966.449 152.774C967.309 174.291 985.599 191.075 1007.12 189.999C1028.63 189.138 1045.42 170.848 1044.34 149.331C1043.48 127.813 1025.19 111.03 1003.67 112.106C982.372 112.966 965.588 131.256 966.449 152.774Z" fill="#1A1E22"/>
</g>
<mask id="mask16_1719_23" style="mask-type:luminance" maskUnits="userSpaceOnUse" x="961" y="109" width="87" height="87">
<path d="M1002.38 109.952C978.714 111.027 960.424 131.039 961.285 154.708C962.361 178.377 982.372 196.667 1006.04 195.591C1029.71 194.515 1048 174.504 1047.14 150.835C1046.06 127.811 1027.13 109.736 1004.1 109.736C1003.46 109.952 1003.03 109.952 1002.38 109.952Z" fill="white"/>
</mask>
<g mask="url(#mask16_1719_23)">
<path d="M966.88 152.772C967.74 174.074 985.815 190.643 1007.12 189.782C1028.63 188.921 1044.99 170.846 1044.13 149.544C1043.05 128.242 1025.19 111.673 1003.89 112.534C982.587 113.395 966.019 131.469 966.88 152.772Z" fill="#1A1E22"/>
</g>
<mask id="mask17_1719_23" style="mask-type:luminance" maskUnits="userSpaceOnUse" x="961" y="109" width="87" height="87">
<path d="M1002.38 109.952C978.714 111.027 960.424 131.039 961.285 154.708C962.361 178.377 982.372 196.667 1006.04 195.591C1029.71 194.515 1048 174.504 1047.14 150.835C1046.06 127.811 1027.13 109.736 1004.1 109.736C1003.46 109.952 1003.03 109.952 1002.38 109.952Z" fill="white"/>
</mask>
<g mask="url(#mask17_1719_23)">
<path d="M967.309 152.771C968.17 173.858 986.03 190.212 1007.12 189.351C1028.42 188.49 1044.56 170.631 1043.7 149.543C1042.84 128.456 1024.98 111.888 1003.89 112.964C982.802 113.824 966.233 131.469 967.309 152.771Z" fill="#1A1E22"/>
</g>
<mask id="mask18_1719_23" style="mask-type:luminance" maskUnits="userSpaceOnUse" x="961" y="109" width="87" height="87">
<path d="M1002.38 109.952C978.714 111.027 960.424 131.039 961.285 154.708C962.361 178.377 982.372 196.667 1006.04 195.591C1029.71 194.515 1048 174.504 1047.14 150.835C1046.06 127.811 1027.13 109.736 1004.1 109.736C1003.46 109.952 1003.03 109.952 1002.38 109.952Z" fill="white"/>
</mask>
<g mask="url(#mask18_1719_23)">
<path d="M967.74 152.775C968.601 173.647 986.245 190 1007.12 189.139C1027.99 188.278 1044.34 170.634 1043.48 149.762C1042.62 128.89 1024.98 112.537 1004.1 113.613C983.017 114.258 966.879 131.903 967.74 152.775Z" fill="#1A1E22"/>
</g>
<mask id="mask19_1719_23" style="mask-type:luminance" maskUnits="userSpaceOnUse" x="961" y="109" width="87" height="87">
<path d="M1002.38 109.952C978.714 111.027 960.424 131.039 961.285 154.708C962.361 178.377 982.372 196.667 1006.04 195.591C1029.71 194.515 1048 174.504 1047.14 150.835C1046.06 127.811 1027.13 109.736 1004.1 109.736C1003.46 109.952 1003.03 109.952 1002.38 109.952Z" fill="white"/>
</mask>
<g mask="url(#mask19_1719_23)">
<path d="M968.17 152.773C969.031 173.429 986.46 189.568 1007.12 188.707C1027.77 187.846 1043.91 170.417 1043.05 149.76C1042.19 129.103 1024.55 112.965 1003.89 113.826C983.232 114.471 967.094 132.116 968.17 152.773Z" fill="#1A1E22"/>
</g>
<mask id="mask20_1719_23" style="mask-type:luminance" maskUnits="userSpaceOnUse" x="961" y="109" width="87" height="87">
<path d="M1002.38 109.952C978.714 111.027 960.424 131.039 961.285 154.708C962.361 178.377 982.372 196.667 1006.04 195.591C1029.71 194.515 1048 174.504 1047.14 150.835C1046.06 127.811 1027.13 109.736 1004.1 109.736C1003.46 109.952 1003.03 109.952 1002.38 109.952Z" fill="white"/>
</mask>
<g mask="url(#mask20_1719_23)">
<path d="M968.601 152.77C969.462 173.212 986.676 189.135 1007.12 188.274C1027.56 187.414 1043.48 170.2 1042.62 149.758C1041.76 129.316 1024.33 113.393 1003.89 114.254C983.448 114.9 967.525 132.329 968.601 152.77Z" fill="#1A1E22"/>
</g>
<mask id="mask21_1719_23" style="mask-type:luminance" maskUnits="userSpaceOnUse" x="961" y="109" width="87" height="87">
<path d="M1002.38 109.952C978.714 111.027 960.424 131.039 961.285 154.708C962.361 178.377 982.372 196.667 1006.04 195.591C1029.71 194.515 1048 174.504 1047.14 150.835C1046.06 127.811 1027.13 109.736 1004.1 109.736C1003.46 109.952 1003.03 109.952 1002.38 109.952Z" fill="white"/>
</mask>
<g mask="url(#mask21_1719_23)">
<path d="M968.817 152.555C969.677 172.782 986.676 188.49 1006.9 187.629C1027.13 186.768 1042.84 169.769 1041.98 149.543C1041.12 129.316 1023.9 113.609 1003.67 114.469C983.879 115.33 967.956 132.544 968.817 152.555Z" fill="#1A1E22"/>
</g>
<mask id="mask22_1719_23" style="mask-type:luminance" maskUnits="userSpaceOnUse" x="961" y="109" width="87" height="87">
<path d="M1002.38 109.952C978.714 111.027 960.424 131.039 961.285 154.708C962.361 178.377 982.372 196.667 1006.04 195.591C1029.71 194.515 1048 174.504 1047.14 150.835C1046.06 127.811 1027.13 109.736 1004.1 109.736C1003.46 109.952 1003.03 109.952 1002.38 109.952Z" fill="white"/>
</mask>
<g mask="url(#mask22_1719_23)">
<path d="M969.246 152.559C970.107 172.57 987.106 188.063 1007.12 187.202C1027.13 186.341 1042.62 169.558 1041.76 149.547C1040.9 129.535 1023.9 114.043 1003.89 114.903C983.878 115.764 968.385 132.548 969.246 152.559Z" fill="#1A1E22"/>
</g>
<mask id="mask23_1719_23" style="mask-type:luminance" maskUnits="userSpaceOnUse" x="961" y="109" width="87" height="87">
<path d="M1002.38 109.952C978.714 111.027 960.424 131.039 961.285 154.708C962.361 178.377 982.372 196.667 1006.04 195.591C1029.71 194.515 1048 174.504 1047.14 150.835C1046.06 127.811 1027.13 109.736 1004.1 109.736C1003.46 109.952 1003.03 109.952 1002.38 109.952Z" fill="white"/>
</mask>
<g mask="url(#mask23_1719_23)">
<path d="M969.677 152.557C970.538 172.353 987.322 187.63 1007.12 186.77C1026.91 185.909 1042.19 169.125 1041.33 149.544C1040.47 129.748 1023.69 114.471 1004.11 115.332C984.094 116.192 968.817 132.976 969.677 152.557Z" fill="#1A1E22"/>
</g>
<mask id="mask24_1719_23" style="mask-type:luminance" maskUnits="userSpaceOnUse" x="961" y="109" width="87" height="87">
<path d="M1002.38 109.952C978.714 111.027 960.424 131.039 961.285 154.708C962.361 178.377 982.372 196.667 1006.04 195.591C1029.71 194.515 1048 174.504 1047.14 150.835C1046.06 127.811 1027.13 109.736 1004.1 109.736C1003.46 109.952 1003.03 109.952 1002.38 109.952Z" fill="white"/>
</mask>
<g mask="url(#mask24_1719_23)">
<path d="M970.108 152.557C970.969 172.138 987.537 187.2 1007.12 186.339C1026.7 185.479 1041.98 168.91 1040.9 149.329C1040.04 129.748 1023.69 114.686 1004.11 115.547C984.525 116.408 969.247 132.976 970.108 152.557Z" fill="#1A1E22"/>
</g>
<mask id="mask25_1719_23" style="mask-type:luminance" maskUnits="userSpaceOnUse" x="961" y="109" width="87" height="87">
<path d="M1002.38 109.952C978.714 111.027 960.424 131.039 961.285 154.708C962.361 178.377 982.372 196.667 1006.04 195.591C1029.71 194.515 1048 174.504 1047.14 150.835C1046.06 127.811 1027.13 109.736 1004.1 109.736C1003.46 109.952 1003.03 109.952 1002.38 109.952Z" fill="white"/>
</mask>
<g mask="url(#mask25_1719_23)">
<path d="M970.537 152.554C971.398 171.92 987.751 186.982 1007.12 185.906C1026.48 185.261 1041.33 168.908 1040.68 149.542C1039.82 130.176 1023.47 115.114 1004.1 115.975C984.739 117.05 969.676 133.189 970.537 152.554Z" fill="#1A1E22"/>
</g>
<mask id="mask26_1719_23" style="mask-type:luminance" maskUnits="userSpaceOnUse" x="961" y="109" width="87" height="87">
<path d="M1002.38 109.952C978.714 111.027 960.424 131.039 961.285 154.708C962.361 178.377 982.372 196.667 1006.04 195.591C1029.71 194.515 1048 174.504 1047.14 150.835C1046.06 127.811 1027.13 109.736 1004.1 109.736C1003.46 109.952 1003.03 109.952 1002.38 109.952Z" fill="white"/>
</mask>
<g mask="url(#mask26_1719_23)">
<path d="M970.968 152.558C971.829 171.709 987.967 186.556 1007.12 185.695C1026.27 184.834 1041.12 168.696 1040.25 149.546C1039.61 130.395 1023.26 115.548 1004.32 116.409C984.955 117.269 970.108 133.407 970.968 152.558Z" fill="#1A1E22"/>
</g>
<mask id="mask27_1719_23" style="mask-type:luminance" maskUnits="userSpaceOnUse" x="961" y="109" width="87" height="87">
<path d="M1002.38 109.952C978.714 111.027 960.424 131.039 961.285 154.708C962.361 178.377 982.372 196.667 1006.04 195.591C1029.71 194.515 1048 174.504 1047.14 150.835C1046.06 127.811 1027.13 109.736 1004.1 109.736C1003.46 109.952 1003.03 109.952 1002.38 109.952Z" fill="white"/>
</mask>
<g mask="url(#mask27_1719_23)">
<path d="M971.399 152.558C972.26 171.493 988.183 186.125 1007.12 185.265C1026.05 184.404 1040.69 168.481 1039.83 149.545C1038.96 130.61 1023.04 115.978 1004.11 116.839C985.171 117.7 970.539 133.622 971.399 152.558Z" fill="#1A1E22"/>
</g>
<mask id="mask28_1719_23" style="mask-type:luminance" maskUnits="userSpaceOnUse" x="961" y="109" width="87" height="87">
<path d="M1002.38 109.952C978.714 111.027 960.424 131.039 961.285 154.708C962.361 178.377 982.372 196.667 1006.04 195.591C1029.71 194.515 1048 174.504 1047.14 150.835C1046.06 127.811 1027.13 109.736 1004.1 109.736C1003.46 109.952 1003.03 109.952 1002.38 109.952Z" fill="white"/>
</mask>
<g mask="url(#mask28_1719_23)">
<path d="M971.614 152.556C972.474 171.276 988.182 185.693 1006.9 184.832C1025.62 183.971 1040.04 168.264 1039.39 149.543C1038.53 130.823 1022.83 116.406 1004.11 117.267C985.385 118.128 970.968 133.836 971.614 152.556Z" fill="#1A1E22"/>
</g>
<mask id="mask29_1719_23" style="mask-type:luminance" maskUnits="userSpaceOnUse" x="961" y="109" width="87" height="87">
<path d="M1002.38 109.952C978.714 111.027 960.424 131.039 961.285 154.708C962.361 178.377 982.372 196.667 1006.04 195.591C1029.71 194.515 1048 174.504 1047.14 150.835C1046.06 127.811 1027.13 109.736 1004.1 109.736C1003.46 109.952 1003.03 109.952 1002.38 109.952Z" fill="white"/>
</mask>
<g mask="url(#mask29_1719_23)">
<path d="M972.045 152.557C972.905 171.062 988.398 185.264 1006.9 184.618C1025.41 183.973 1039.82 168.265 1038.96 149.76C1038.1 131.255 1022.61 117.053 1004.11 117.914C985.601 118.56 971.399 134.052 972.045 152.557Z" fill="#1A1E22"/>
</g>
<mask id="mask30_1719_23" style="mask-type:luminance" maskUnits="userSpaceOnUse" x="961" y="109" width="87" height="87">
<path d="M1002.38 109.952C978.714 111.027 960.424 131.039 961.285 154.708C962.361 178.377 982.372 196.667 1006.04 195.591C1029.71 194.515 1048 174.504 1047.14 150.835C1046.06 127.811 1027.13 109.736 1004.1 109.736C1003.46 109.952 1003.03 109.952 1002.38 109.952Z" fill="white"/>
</mask>
<g mask="url(#mask30_1719_23)">
<path d="M972.475 152.559C973.12 170.849 988.613 184.835 1006.9 184.19C1025.19 183.329 1039.39 168.051 1038.53 149.762C1037.67 131.472 1022.4 117.485 1004.11 118.131C985.815 118.992 971.614 134.269 972.475 152.559Z" fill="#1A1E22"/>
</g>
<mask id="mask31_1719_23" style="mask-type:luminance" maskUnits="userSpaceOnUse" x="961" y="109" width="87" height="87">
<path d="M1002.38 109.952C978.714 111.027 960.424 131.039 961.285 154.708C962.361 178.377 982.372 196.667 1006.04 195.591C1029.71 194.515 1048 174.504 1047.14 150.835C1046.06 127.811 1027.13 109.736 1004.1 109.736C1003.46 109.952 1003.03 109.952 1002.38 109.952Z" fill="white"/>
</mask>
<g mask="url(#mask31_1719_23)">
<path d="M972.906 152.557C973.551 170.416 988.829 184.618 1006.9 183.757C1024.98 182.896 1038.75 167.619 1038.1 149.76C1037.24 131.685 1021.97 117.698 1004.11 118.559C986.032 119.205 972.045 134.482 972.906 152.557Z" fill="#1A1E22"/>
</g>
<mask id="mask32_1719_23" style="mask-type:luminance" maskUnits="userSpaceOnUse" x="961" y="109" width="87" height="87">
<path d="M1002.38 109.952C978.714 111.027 960.424 131.039 961.285 154.708C962.361 178.377 982.372 196.667 1006.04 195.591C1029.71 194.515 1048 174.504 1047.14 150.835C1046.06 127.811 1027.13 109.736 1004.1 109.736C1003.46 109.952 1003.03 109.952 1002.38 109.952Z" fill="white"/>
</mask>
<g mask="url(#mask32_1719_23)">
<path d="M973.335 152.555C974.196 170.414 989.043 184.186 1006.9 183.325C1024.76 182.464 1038.53 167.617 1037.67 149.758C1037.03 131.898 1021.75 118.127 1004.11 118.987C986.246 119.633 972.474 134.695 973.335 152.555Z" fill="#1A1E22"/>
</g>
<mask id="mask33_1719_23" style="mask-type:luminance" maskUnits="userSpaceOnUse" x="961" y="109" width="87" height="87">
<path d="M1002.38 109.952C978.714 111.027 960.424 131.039 961.285 154.708C962.361 178.377 982.372 196.667 1006.04 195.591C1029.71 194.515 1048 174.504 1047.14 150.835C1046.06 127.811 1027.13 109.736 1004.1 109.736C1003.46 109.952 1003.03 109.952 1002.38 109.952Z" fill="white"/>
</mask>
<g mask="url(#mask33_1719_23)">
<path d="M973.766 152.559C974.626 170.203 989.474 183.759 1006.9 182.898C1024.55 182.253 1038.1 167.406 1037.24 149.761C1036.6 132.117 1021.75 118.561 1004.11 119.422C986.676 120.067 972.905 134.914 973.766 152.559Z" fill="#1A1E22"/>
</g>
<mask id="mask34_1719_23" style="mask-type:luminance" maskUnits="userSpaceOnUse" x="961" y="109" width="87" height="87">
<path d="M1002.38 109.952C978.714 111.027 960.424 131.039 961.285 154.708C962.361 178.377 982.372 196.667 1006.04 195.591C1029.71 194.515 1048 174.504 1047.14 150.835C1046.06 127.811 1027.13 109.736 1004.1 109.736C1003.46 109.952 1003.03 109.952 1002.38 109.952Z" fill="white"/>
</mask>
<g mask="url(#mask34_1719_23)">
<path d="M974.195 152.557C974.841 169.986 989.688 183.327 1006.9 182.682C1024.33 182.036 1037.67 167.404 1037.03 149.975C1036.17 132.546 1021.53 119.205 1004.32 119.851C986.89 120.496 973.334 135.128 974.195 152.557Z" fill="#1A1E22"/>
</g>
<mask id="mask35_1719_23" style="mask-type:luminance" maskUnits="userSpaceOnUse" x="961" y="109" width="87" height="87">
<path d="M1002.38 109.952C978.714 111.027 960.424 131.039 961.285 154.708C962.361 178.377 982.372 196.667 1006.04 195.591C1029.71 194.515 1048 174.504 1047.14 150.835C1046.06 127.811 1027.13 109.736 1004.1 109.736C1003.46 109.952 1003.03 109.952 1002.38 109.952Z" fill="white"/>
</mask>
<g mask="url(#mask35_1719_23)">
<path d="M974.412 152.555C975.273 169.554 989.69 182.895 1006.69 182.249C1023.69 181.604 1037.03 166.972 1036.38 149.973C1035.74 132.759 1021.11 119.633 1004.11 120.279C987.107 120.924 973.767 135.341 974.412 152.555Z" fill="#1A1E22"/>
</g>
<mask id="mask36_1719_23" style="mask-type:luminance" maskUnits="userSpaceOnUse" x="961" y="109" width="87" height="87">
<path d="M1002.38 109.952C978.714 111.027 960.424 131.039 961.285 154.708C962.361 178.377 982.372 196.667 1006.04 195.591C1029.71 194.515 1048 174.504 1047.14 150.835C1046.06 127.811 1027.13 109.736 1004.1 109.736C1003.46 109.952 1003.03 109.952 1002.38 109.952Z" fill="white"/>
</mask>
<g mask="url(#mask36_1719_23)">
<path d="M974.841 152.34C975.702 169.123 989.903 182.249 1006.9 181.604C1023.69 180.958 1036.81 166.757 1036.17 149.758C1035.52 132.759 1021.1 119.848 1004.32 120.494C987.321 121.139 974.196 135.556 974.841 152.34Z" fill="#1A1E22"/>
</g>
<mask id="mask37_1719_23" style="mask-type:luminance" maskUnits="userSpaceOnUse" x="961" y="109" width="87" height="87">
<path d="M1002.38 109.952C978.714 111.027 960.424 131.039 961.285 154.708C962.361 178.377 982.372 196.667 1006.04 195.591C1029.71 194.515 1048 174.504 1047.14 150.835C1046.06 127.811 1027.13 109.736 1004.1 109.736C1003.46 109.952 1003.03 109.952 1002.38 109.952Z" fill="white"/>
</mask>
<g mask="url(#mask37_1719_23)">
<path d="M975.272 152.342C975.918 168.911 990.119 182.037 1006.69 181.176C1023.47 180.53 1036.38 166.329 1035.74 149.76C1035.09 133.192 1020.89 120.066 1004.32 120.927C987.537 121.572 974.627 135.774 975.272 152.342Z" fill="#1A1E22"/>
</g>
<mask id="mask38_1719_23" style="mask-type:luminance" maskUnits="userSpaceOnUse" x="961" y="109" width="87" height="87">
<path d="M1002.38 109.952C978.714 111.027 960.424 131.039 961.285 154.708C962.361 178.377 982.372 196.667 1006.04 195.591C1029.71 194.515 1048 174.504 1047.14 150.835C1046.06 127.811 1027.13 109.736 1004.1 109.736C1003.46 109.952 1003.03 109.952 1002.38 109.952Z" fill="white"/>
</mask>
<g mask="url(#mask38_1719_23)">
<path d="M975.701 152.342C976.347 168.911 990.333 181.606 1006.69 180.745C1023.25 180.1 1035.95 166.114 1035.3 149.76C1034.66 133.407 1020.67 120.496 1004.32 121.357C987.751 122.003 975.056 135.989 975.701 152.342Z" fill="#1A1E22"/>
</g>
<mask id="mask39_1719_23" style="mask-type:luminance" maskUnits="userSpaceOnUse" x="961" y="109" width="87" height="87">
<path d="M1002.38 109.952C978.714 111.027 960.424 131.039 961.285 154.708C962.361 178.377 982.372 196.667 1006.04 195.591C1029.71 194.515 1048 174.504 1047.14 150.835C1046.06 127.811 1027.13 109.736 1004.1 109.736C1003.46 109.952 1003.03 109.952 1002.38 109.952Z" fill="white"/>
</mask>
<g mask="url(#mask39_1719_23)">
<path d="M976.132 152.34C976.778 168.694 990.549 181.174 1006.69 180.528C1023.04 179.883 1035.52 166.112 1034.88 149.758C1034.23 133.62 1020.46 120.925 1004.11 121.57C987.967 122.431 975.487 136.202 976.132 152.34Z" fill="#1A1E22"/>
</g>
<mask id="mask40_1719_23" style="mask-type:luminance" maskUnits="userSpaceOnUse" x="961" y="109" width="87" height="87">
<path d="M1002.38 109.952C978.714 111.027 960.424 131.039 961.285 154.708C962.361 178.377 982.372 196.667 1006.04 195.591C1029.71 194.515 1048 174.504 1047.14 150.835C1046.06 127.811 1027.13 109.736 1004.1 109.736C1003.46 109.952 1003.03 109.952 1002.38 109.952Z" fill="white"/>
</mask>
<g mask="url(#mask40_1719_23)">
<path d="M976.563 152.345C977.209 168.483 990.765 180.748 1006.69 180.102C1022.83 179.457 1035.09 165.901 1034.45 149.762C1033.8 133.624 1020.24 121.359 1004.11 122.005C988.398 122.866 975.917 136.206 976.563 152.345Z" fill="#1A1E22"/>
</g>
<mask id="mask41_1719_23" style="mask-type:luminance" maskUnits="userSpaceOnUse" x="961" y="109" width="87" height="87">
<path d="M1002.38 109.952C978.714 111.027 960.424 131.039 961.285 154.708C962.361 178.377 982.372 196.667 1006.04 195.591C1029.71 194.515 1048 174.504 1047.14 150.835C1046.06 127.811 1027.13 109.736 1004.1 109.736C1003.46 109.952 1003.03 109.952 1002.38 109.952Z" fill="white"/>
</mask>
<g mask="url(#mask41_1719_23)">
<path d="M976.994 152.342C977.639 168.049 990.98 180.53 1006.9 179.669C1022.61 179.023 1034.88 165.682 1034.23 149.975C1033.58 134.267 1020.24 122.002 1004.32 122.647C988.398 123.293 976.133 136.419 976.994 152.342Z" fill="#1A1E22"/>
</g>
<mask id="mask42_1719_23" style="mask-type:luminance" maskUnits="userSpaceOnUse" x="961" y="109" width="87" height="87">
<path d="M1002.38 109.952C978.714 111.027 960.424 131.039 961.285 154.708C962.361 178.377 982.372 196.667 1006.04 195.591C1029.71 194.515 1048 174.504 1047.14 150.835C1046.06 127.811 1027.13 109.736 1004.1 109.736C1003.46 109.952 1003.03 109.952 1002.38 109.952Z" fill="white"/>
</mask>
<g mask="url(#mask42_1719_23)">
<path d="M977.209 152.34C977.855 167.832 990.981 180.097 1006.69 179.452C1022.18 178.806 1034.23 165.681 1033.59 149.973C1032.94 134.48 1019.81 122.43 1004.11 122.861C988.614 123.506 976.564 136.632 977.209 152.34Z" fill="#1A1E22"/>
</g>
<mask id="mask43_1719_23" style="mask-type:luminance" maskUnits="userSpaceOnUse" x="961" y="109" width="87" height="87">
<path d="M1002.38 109.952C978.714 111.027 960.424 131.039 961.285 154.708C962.361 178.377 982.372 196.667 1006.04 195.591C1029.71 194.515 1048 174.504 1047.14 150.835C1046.06 127.811 1027.13 109.736 1004.1 109.736C1003.46 109.952 1003.03 109.952 1002.38 109.952Z" fill="white"/>
</mask>
<g mask="url(#mask43_1719_23)">
<path d="M977.637 152.343C978.283 167.62 991.193 179.67 1006.47 179.025C1021.75 178.379 1033.8 165.253 1033.15 149.976C1032.51 134.699 1019.6 122.649 1004.1 123.294C989.041 123.94 976.992 136.85 977.637 152.343Z" fill="#1A1E22"/>
</g>
<mask id="mask44_1719_23" style="mask-type:luminance" maskUnits="userSpaceOnUse" x="961" y="109" width="87" height="87">
<path d="M1002.38 109.952C978.714 111.027 960.424 131.039 961.285 154.708C962.361 178.377 982.372 196.667 1006.04 195.591C1029.71 194.515 1048 174.504 1047.14 150.835C1046.06 127.811 1027.13 109.736 1004.1 109.736C1003.46 109.952 1003.03 109.952 1002.38 109.952Z" fill="white"/>
</mask>
<g mask="url(#mask44_1719_23)">
<path d="M978.069 152.343C978.715 167.405 991.41 179.24 1006.69 178.594C1021.75 177.949 1033.58 165.253 1032.94 149.976C1032.29 134.914 1019.6 123.079 1004.32 123.724C989.258 124.37 977.424 137.065 978.069 152.343Z" fill="#1A1E22"/>
</g>
<mask id="mask45_1719_23" style="mask-type:luminance" maskUnits="userSpaceOnUse" x="961" y="109" width="87" height="87">
<path d="M1002.38 109.952C978.714 111.027 960.424 131.039 961.285 154.708C962.361 178.377 982.372 196.667 1006.04 195.591C1029.71 194.515 1048 174.504 1047.14 150.835C1046.06 127.811 1027.13 109.736 1004.1 109.736C1003.46 109.952 1003.03 109.952 1002.38 109.952Z" fill="white"/>
</mask>
<g mask="url(#mask45_1719_23)">
<path d="M978.5 152.341C979.146 167.188 991.626 178.807 1006.69 178.162C1021.54 177.516 1033.15 165.036 1032.51 149.974C1031.86 135.127 1019.38 123.507 1004.32 124.153C989.474 124.798 977.855 137.278 978.5 152.341Z" fill="#1A1E22"/>
</g>
<mask id="mask46_1719_23" style="mask-type:luminance" maskUnits="userSpaceOnUse" x="961" y="109" width="87" height="87">
<path d="M1002.38 109.952C978.714 111.027 960.424 131.039 961.285 154.708C962.361 178.377 982.372 196.667 1006.04 195.591C1029.71 194.515 1048 174.504 1047.14 150.835C1046.06 127.811 1027.13 109.736 1004.1 109.736C1003.46 109.952 1003.03 109.952 1002.38 109.952Z" fill="white"/>
</mask>
<g mask="url(#mask46_1719_23)">
<path d="M978.929 152.344C979.575 166.976 992.055 178.38 1006.69 177.735C1021.32 177.089 1032.72 164.609 1032.08 149.977C1031.43 135.345 1018.95 123.941 1004.32 124.587C989.688 125.232 978.284 137.497 978.929 152.344Z" fill="#1A1E22"/>
</g>
<mask id="mask47_1719_23" style="mask-type:luminance" maskUnits="userSpaceOnUse" x="961" y="109" width="87" height="87">
<path d="M1002.38 109.952C978.714 111.027 960.424 131.039 961.285 154.708C962.361 178.377 982.372 196.667 1006.04 195.591C1029.71 194.515 1048 174.504 1047.14 150.835C1046.06 127.811 1027.13 109.736 1004.1 109.736C1003.46 109.952 1003.03 109.952 1002.38 109.952Z" fill="white"/>
</mask>
<g mask="url(#mask47_1719_23)">
<path d="M979.361 152.342C980.006 166.759 992.271 178.163 1006.69 177.302C1021.1 176.657 1032.29 164.392 1031.86 149.975C1031.22 135.558 1018.95 124.369 1004.54 125.015C989.904 125.445 978.715 137.71 979.361 152.342Z" fill="#1A1E22"/>
</g>
<mask id="mask48_1719_23" style="mask-type:luminance" maskUnits="userSpaceOnUse" x="961" y="109" width="87" height="87">
<path d="M1002.38 109.952C978.714 111.027 960.424 131.039 961.285 154.708C962.361 178.377 982.372 196.667 1006.04 195.591C1029.71 194.515 1048 174.504 1047.14 150.835C1046.06 127.811 1027.13 109.736 1004.1 109.736C1003.46 109.952 1003.03 109.952 1002.38 109.952Z" fill="white"/>
</mask>
<g mask="url(#mask48_1719_23)">
<path d="M979.79 152.341C980.435 166.543 992.485 177.517 1006.69 177.087C1020.89 176.441 1032.08 164.391 1031.43 150.19C1030.79 135.988 1018.95 124.799 1004.53 125.445C990.118 125.875 979.144 137.925 979.79 152.341Z" fill="#1A1E22"/>
</g>
<mask id="mask49_1719_23" style="mask-type:luminance" maskUnits="userSpaceOnUse" x="961" y="109" width="87" height="87">
<path d="M1002.38 109.952C978.714 111.027 960.424 131.039 961.285 154.708C962.361 178.377 982.372 196.667 1006.04 195.591C1029.71 194.515 1048 174.504 1047.14 150.835C1046.06 127.811 1027.13 109.736 1004.1 109.736C1003.46 109.952 1003.03 109.952 1002.38 109.952Z" fill="white"/>
</mask>
<g mask="url(#mask49_1719_23)">
<path d="M980.221 152.125C980.866 166.111 992.701 177.085 1006.69 176.439C1020.67 175.794 1031.65 163.959 1031 149.973C1030.36 135.987 1018.52 125.228 1004.54 125.873C990.334 126.304 979.575 138.138 980.221 152.125Z" fill="#1A1E22"/>
</g>
<mask id="mask50_1719_23" style="mask-type:luminance" maskUnits="userSpaceOnUse" x="961" y="109" width="87" height="87">
<path d="M1002.38 109.952C978.714 111.027 960.424 131.039 961.285 154.708C962.361 178.377 982.372 196.667 1006.04 195.591C1029.71 194.515 1048 174.504 1047.14 150.835C1046.06 127.811 1027.13 109.736 1004.1 109.736C1003.46 109.952 1003.03 109.952 1002.38 109.952Z" fill="white"/>
</mask>
<g mask="url(#mask50_1719_23)">
<path d="M980.435 152.128C981.08 165.899 992.7 176.658 1006.47 176.013C1020.24 175.367 1031 163.748 1030.36 149.976C1029.71 136.205 1018.09 125.447 1004.32 126.092C990.548 126.738 980.004 138.357 980.435 152.128Z" fill="#1A1E22"/>
</g>
<mask id="mask51_1719_23" style="mask-type:luminance" maskUnits="userSpaceOnUse" x="961" y="109" width="87" height="87">
<path d="M1002.38 109.952C978.714 111.027 960.424 131.039 961.285 154.708C962.361 178.377 982.372 196.667 1006.04 195.591C1029.71 194.515 1048 174.504 1047.14 150.835C1046.06 127.811 1027.13 109.736 1004.1 109.736C1003.46 109.952 1003.03 109.952 1002.38 109.952Z" fill="white"/>
</mask>
<g mask="url(#mask51_1719_23)">
<path d="M980.865 152.125C981.511 165.681 992.915 176.224 1006.47 175.579C1020.03 175.148 1030.57 163.529 1029.93 149.973C1029.28 136.417 1017.88 125.873 1004.32 126.304C990.978 127.164 980.435 138.569 980.865 152.125Z" fill="#1A1E22"/>
</g>
<mask id="mask52_1719_23" style="mask-type:luminance" maskUnits="userSpaceOnUse" x="961" y="109" width="87" height="87">
<path d="M1002.38 109.952C978.714 111.027 960.424 131.039 961.285 154.708C962.361 178.377 982.372 196.667 1006.04 195.591C1029.71 194.515 1048 174.504 1047.14 150.835C1046.06 127.811 1027.13 109.736 1004.1 109.736C1003.46 109.952 1003.03 109.952 1002.38 109.952Z" fill="white"/>
</mask>
<g mask="url(#mask52_1719_23)">
<path d="M981.297 152.126C981.943 165.467 993.132 175.795 1006.47 175.365C1019.81 174.719 1030.14 163.53 1029.71 150.189C1029.07 136.848 1017.88 126.52 1004.54 127.165C991.195 127.381 980.867 138.785 981.297 152.126Z" fill="#1A1E22"/>
</g>
<mask id="mask53_1719_23" style="mask-type:luminance" maskUnits="userSpaceOnUse" x="961" y="109" width="87" height="87">
<path d="M1002.38 109.952C978.714 111.027 960.424 131.039 961.285 154.708C962.361 178.377 982.372 196.667 1006.04 195.591C1029.71 194.515 1048 174.504 1047.14 150.835C1046.06 127.811 1027.13 109.736 1004.1 109.736C1003.46 109.952 1003.03 109.952 1002.38 109.952Z" fill="white"/>
</mask>
<g mask="url(#mask53_1719_23)">
<path d="M1029.28 149.974C1028.64 136.848 1017.66 126.735 1004.54 127.166C991.411 127.596 981.298 138.785 981.728 151.911C982.374 165.036 993.348 175.15 1006.47 174.719C1019.6 174.289 1029.93 163.315 1029.28 149.974Z" fill="#1A1E22"/>
</g>
<path d="M1017.45 160.74L1026.27 156.437L1024.76 153.209L1015.72 157.512" fill="#1A1E22"/>
<path d="M983.665 145.031L990.335 152.562L992.918 150.195L986.462 142.664" fill="#1A1E22"/>
<path d="M1042.19 170.851C1035.74 167.623 1030.36 162.459 1026.7 156.004L1022.4 158.586C1026.48 165.902 1032.72 171.927 1040.04 175.585L1042.19 170.851Z" fill="#1A1E22"/>
<path d="M990.55 192.799C993.562 186.558 995.284 179.673 995.284 172.787C995.284 166.762 993.993 160.737 991.626 154.928L986.892 156.864C989.044 162.028 990.335 167.408 990.335 172.572C990.335 178.812 988.829 184.837 986.031 190.432L990.55 192.799Z" fill="#1A1E22"/>
<path d="M1028.85 154.928L1026.05 156.649L1020.24 157.51L1018.09 160.307L1020.89 162.459L1027.35 161.598H1027.99L1031.65 159.231L1032.51 155.788L1028.85 154.928Z" fill="#1A1E22"/>
<path d="M1032.29 159.23L1029.71 161.167L1023.69 162.458L1021.75 165.471L1024.76 167.407L1031.22 166.116L1031.65 165.901L1035.31 163.319L1035.95 159.876L1032.29 159.23Z" fill="#1A1E22"/>
<path d="M1034.88 163.32L1032.51 165.257L1026.7 166.978L1024.98 170.206L1028.21 171.927L1034.45 169.991H1034.88L1038.32 166.978L1038.53 163.536L1034.88 163.32Z" fill="#1A1E22"/>
<path d="M1038.53 165.901L1036.38 168.052L1030.79 170.204L1029.07 173.432L1032.51 174.938L1038.75 172.571H1039.18L1042.19 169.344V165.686L1038.53 165.901Z" fill="#1A1E22"/>
<path d="M1040.04 171.498L1034.23 174.51L1033.16 177.953L1036.6 179.029L1042.41 176.017L1043.48 172.574L1040.04 171.498Z" fill="#1A1E22"/>
<path d="M987.968 169.344L991.626 168.698H992.271L998.081 164.395L998.726 160.952L995.068 160.307L990.119 163.965L987.107 164.395L984.955 167.407L987.968 169.344Z" fill="#1A1E22"/>
<path d="M986.461 165.042L990.119 164.181H990.764L996.359 159.447L996.574 155.789L993.131 155.574L988.397 159.447L985.385 160.093L983.448 163.321L986.461 165.042Z" fill="#1A1E22"/>
<path d="M988.398 174.296L992.056 174.081L992.701 173.866L998.726 170.208L999.587 166.765L996.144 165.904L990.98 168.917L987.752 169.347L985.601 172.144L988.398 174.296Z" fill="#1A1E22"/>
<path d="M987.752 180.102L991.41 179.887H992.055L998.511 176.659L999.587 173.217L996.144 172.141L990.764 174.938H987.752L985.17 177.52L987.752 180.102Z" fill="#1A1E22"/>
<path d="M987.108 184.623L990.766 184.838H991.412L997.867 182.041L999.373 178.813L995.93 177.307L990.551 179.674H987.323L984.741 182.041L987.108 184.623Z" fill="#1A1E22"/>
<path d="M986.677 189.143L990.335 189.574H990.981L997.651 186.992L998.942 183.764L995.715 182.258L990.12 184.41L987.108 184.194L984.311 186.561L986.677 189.143Z" fill="#1A1E22"/>
<path d="M990.98 194.307L992.271 194.092H992.486L997.22 192.371L998.726 189.143L995.499 187.637L991.41 188.928L990.334 189.143L988.183 192.155L990.98 194.307Z" fill="#1A1E22"/>
<path d="M1028.64 154.498L1025.84 156.219L1019.81 157.08L1017.66 159.877L1020.46 162.029L1027.13 161.168H1027.56L1031.22 158.802L1032.08 155.359L1028.64 154.498Z" fill="#1A1E22"/>
<path d="M1031.86 158.803L1029.28 160.739L1023.47 161.815L1021.54 164.828L1024.55 166.979L1031 165.688L1031.43 165.473L1034.88 162.891L1035.52 159.448L1031.86 158.803Z" fill="#1A1E22"/>
<path d="M1034.45 162.891L1032.08 164.827L1026.27 166.549L1024.55 169.561L1027.78 171.498L1034.02 169.561H1034.66L1037.89 166.549L1038.1 163.106L1034.45 162.891Z" fill="#1A1E22"/>
<path d="M1038.32 165.473L1035.95 167.84L1030.36 169.992L1028.85 173.219L1032.29 174.51L1038.32 172.143L1038.75 171.928L1041.98 168.916L1041.76 165.258L1038.32 165.473Z" fill="#1A1E22"/>
<path d="M1039.83 171.066L1034.02 174.079L1032.94 177.522L1036.38 178.598L1042.19 175.585L1043.27 172.142L1039.83 171.066Z" fill="#1A1E22"/>
<path d="M987.754 169.131L991.412 168.271H991.842L997.867 163.967L998.297 160.524L994.854 159.879L989.905 163.537L986.893 163.967L984.741 166.98L987.754 169.131Z" fill="#1A1E22"/>
<path d="M986.247 164.614L989.905 163.753H990.335L995.93 159.02L996.36 155.362L992.702 155.146L987.968 159.02L984.956 159.88L983.234 162.893L986.247 164.614Z" fill="#1A1E22"/>
<path d="M987.968 174.08L991.841 173.649L992.271 173.434L998.511 169.776L999.372 166.333L995.929 165.473L990.765 168.7L987.537 168.915L985.386 171.713L987.968 174.08Z" fill="#1A1E22"/>
<path d="M987.323 179.674L991.196 179.459H991.627L998.082 176.232L999.158 172.789L995.715 171.713L990.336 174.51H987.108L984.741 177.092L987.323 179.674Z" fill="#1A1E22"/>
<path d="M986.677 184.193L990.551 184.408H990.981L997.651 181.611L998.942 178.383L995.715 176.877L990.12 179.244H986.893L984.311 181.611L986.677 184.193Z" fill="#1A1E22"/>
<path d="M986.247 188.71L989.905 189.14H990.55L997.221 186.558L998.727 183.33L995.499 181.824L989.905 183.976L986.677 183.761L983.88 185.913L986.247 188.71Z" fill="#1A1E22"/>
<path d="M989.905 193.658L992.056 193.443H992.272L996.79 191.937L998.512 188.709L995.284 187.203L990.981 188.279L989.044 188.709L987.107 191.507L989.905 193.658Z" fill="#1A1E22"/>
<path d="M962.147 139.223C960.855 143.741 960.21 148.045 960.21 152.348C960.21 171.499 972.26 188.713 991.195 194.307C995.499 195.599 999.802 196.244 1003.89 196.244C1023.04 196.244 1040.9 183.764 1046.71 164.398C1047.79 160.74 1048.22 157.082 1048.22 153.424C1048.22 149.336 1047.57 145.463 1046.71 141.59L1045.85 141.805C1046.93 145.678 1047.36 149.551 1047.36 153.424C1047.36 156.867 1046.93 160.31 1045.85 164.183C1040.26 183.118 1022.61 195.168 1003.89 195.168C999.802 195.168 995.499 194.523 991.41 193.232C972.69 187.637 961.071 170.853 961.071 152.133C961.071 147.83 961.716 143.526 963.007 139.223H962.147Z" fill="#1A1E22"/>
<path d="M1055.32 108.668C1054.03 80.2654 1030.14 58.3175 1001.74 59.3934C973.337 60.4693 951.389 84.5689 952.465 112.972C953.756 141.375 977.64 163.323 1006.04 162.247C1034.66 160.956 1056.61 137.072 1055.32 108.668Z" fill="#1A1E22"/>
<path d="M1055.32 108.666H1057.04C1055.75 80.0481 1032.29 57.6699 1003.89 57.6699H1001.52C972.906 58.961 950.527 82.4151 950.527 110.818V113.185C951.818 141.803 975.273 164.182 1003.68 164.182H1006.04C1034.66 162.891 1057.04 139.436 1057.04 111.033V108.666H1055.32H1053.6V110.818C1053.6 137.285 1032.72 159.233 1006.04 160.524H1003.89C977.424 160.524 955.476 139.652 954.185 112.97V110.818C954.185 84.3516 975.057 62.4038 1001.74 61.3279H1003.89C1030.36 61.3279 1052.31 82.1999 1053.38 108.882L1055.32 108.666Z" fill="#1A1E22"/>
<mask id="mask54_1719_23" style="mask-type:luminance" maskUnits="userSpaceOnUse" x="952" y="59" width="104" height="104">
<path d="M1001.74 59.3906C973.337 60.4665 951.389 84.5661 952.465 112.969C953.756 141.372 977.64 163.32 1006.04 162.244C1034.45 160.953 1056.61 137.069 1055.32 108.666C1054.03 81.1233 1031.43 59.3906 1003.89 59.3906C1003.25 59.3906 1002.6 59.3906 1001.74 59.3906Z" fill="white"/>
</mask>
<g mask="url(#mask54_1719_23)">
<path d="M950.743 116.842C952.034 146.106 976.779 168.915 1006.04 167.624C1035.31 166.333 1057.9 141.588 1056.82 112.324C1055.53 83.0599 1030.79 60.2514 1001.52 61.5425C972.26 62.8335 949.667 87.5786 950.743 116.842Z" fill="#1A1E22"/>
</g>
<mask id="mask55_1719_23" style="mask-type:luminance" maskUnits="userSpaceOnUse" x="952" y="59" width="104" height="104">
<path d="M1001.74 59.3906C973.337 60.4665 951.389 84.5661 952.465 112.969C953.756 141.372 977.64 163.32 1006.04 162.244C1034.45 160.953 1056.61 137.069 1055.32 108.666C1054.03 81.1233 1031.43 59.3906 1003.89 59.3906C1003.25 59.3906 1002.6 59.3906 1001.74 59.3906Z" fill="white"/>
</mask>
<g mask="url(#mask55_1719_23)">
<path d="M1006.04 165.473C1034.23 164.182 1055.96 140.512 1054.67 112.324C1053.6 84.1365 1029.71 62.4038 1001.52 63.4797C973.336 64.7707 951.603 88.44 952.679 116.628" fill="#1A1E22"/>
</g>
<mask id="mask56_1719_23" style="mask-type:luminance" maskUnits="userSpaceOnUse" x="952" y="59" width="104" height="104">
<path d="M1001.74 59.3906C973.337 60.4665 951.389 84.5661 952.465 112.969C953.756 141.372 977.64 163.32 1006.04 162.244C1034.45 160.953 1056.61 137.069 1055.32 108.666C1054.03 81.1233 1031.43 59.3906 1003.89 59.3906C1003.25 59.3906 1002.6 59.3906 1001.74 59.3906Z" fill="white"/>
</mask>
<g mask="url(#mask56_1719_23)">
<path d="M954.4 116.626C955.692 143.954 978.715 165.041 1006.04 163.965C1033.37 162.889 1054.46 139.65 1053.38 112.538C1052.09 85.2108 1029.07 63.9085 1001.74 64.9843C974.412 66.2754 953.109 89.2991 954.4 116.626Z" fill="#1A1E22"/>
</g>
<mask id="mask57_1719_23" style="mask-type:luminance" maskUnits="userSpaceOnUse" x="952" y="59" width="104" height="104">
<path d="M1001.74 59.3906C973.337 60.4665 951.389 84.5661 952.465 112.969C953.756 141.372 977.64 163.32 1006.04 162.244C1034.45 160.953 1056.61 137.069 1055.32 108.666C1054.03 81.1233 1031.43 59.3906 1003.89 59.3906C1003.25 59.3906 1002.6 59.3906 1001.74 59.3906Z" fill="white"/>
</mask>
<g mask="url(#mask57_1719_23)">
<path d="M954.833 116.624C955.909 143.736 978.932 164.608 1005.83 163.532C1032.94 162.456 1053.81 139.648 1052.74 112.536C1051.66 85.4238 1028.85 64.5518 1001.74 65.6277C974.629 66.7036 953.757 89.5121 954.833 116.624Z" fill="#1A1E22"/>
</g>
<mask id="mask58_1719_23" style="mask-type:luminance" maskUnits="userSpaceOnUse" x="952" y="59" width="104" height="104">
<path d="M1001.74 59.3906C973.337 60.4665 951.389 84.5661 952.465 112.969C953.756 141.372 977.64 163.32 1006.04 162.244C1034.45 160.953 1056.61 137.069 1055.32 108.666C1054.03 81.1233 1031.43 59.3906 1003.89 59.3906C1003.25 59.3906 1002.6 59.3906 1001.74 59.3906Z" fill="white"/>
</mask>
<g mask="url(#mask58_1719_23)">
<path d="M955.478 116.628C956.554 143.31 979.147 164.181 1006.04 163.106C1032.73 161.815 1053.6 139.436 1052.31 112.54C1051.23 85.6426 1028.64 64.9858 1001.74 66.0617C975.059 67.1375 954.187 89.7309 955.478 116.628Z" fill="#1A1E22"/>
</g>
<mask id="mask59_1719_23" style="mask-type:luminance" maskUnits="userSpaceOnUse" x="952" y="59" width="104" height="104">
<path d="M1001.74 59.3906C973.337 60.4665 951.389 84.5661 952.465 112.969C953.756 141.372 977.64 163.32 1006.04 162.244C1034.45 160.953 1056.61 137.069 1055.32 108.666C1054.03 81.1233 1031.43 59.3906 1003.89 59.3906C1003.25 59.3906 1002.6 59.3906 1001.74 59.3906Z" fill="white"/>
</mask>
<g mask="url(#mask59_1719_23)">
<path d="M955.907 116.627C956.983 143.094 979.361 163.535 1005.83 162.459C1032.29 161.384 1052.74 139.005 1051.66 112.539C1050.58 86.0723 1028.21 65.4155 1001.52 66.4914C975.273 67.7824 954.831 90.1606 955.907 116.627Z" fill="#1A1E22"/>
</g>
<mask id="mask60_1719_23" style="mask-type:luminance" maskUnits="userSpaceOnUse" x="952" y="59" width="104" height="104">
<path d="M1001.74 59.3906C973.337 60.4665 951.389 84.5661 952.465 112.969C953.756 141.372 977.64 163.32 1006.04 162.244C1034.45 160.953 1056.61 137.069 1055.32 108.666C1054.03 81.1233 1031.43 59.3906 1003.89 59.3906C1003.25 59.3906 1002.6 59.3906 1001.74 59.3906Z" fill="white"/>
</mask>
<g mask="url(#mask60_1719_23)">
<path d="M956.337 116.625C957.413 142.876 979.576 163.103 1005.83 162.027C1032.08 160.951 1052.31 138.788 1051.23 112.537C1050.15 86.2853 1027.99 66.0589 1001.74 67.1348C975.703 68.2106 955.262 90.3737 956.337 116.625Z" fill="#1A1E22"/>
</g>
<mask id="mask61_1719_23" style="mask-type:luminance" maskUnits="userSpaceOnUse" x="952" y="59" width="104" height="104">
<path d="M1001.74 59.3906C973.337 60.4665 951.389 84.5661 952.465 112.969C953.756 141.372 977.64 163.32 1006.04 162.244C1034.45 160.953 1056.61 137.069 1055.32 108.666C1054.03 81.1233 1031.43 59.3906 1003.89 59.3906C1003.25 59.3906 1002.6 59.3906 1001.74 59.3906Z" fill="white"/>
</mask>
<g mask="url(#mask61_1719_23)">
<path d="M956.984 116.411C958.06 142.447 980.008 162.459 1005.83 161.383C1031.87 160.307 1051.88 138.359 1050.8 112.538C1049.72 86.717 1027.78 66.4905 1001.96 67.5664C975.92 68.6423 955.693 90.5902 956.984 116.411Z" fill="#1A1E22"/>
</g>
<mask id="mask62_1719_23" style="mask-type:luminance" maskUnits="userSpaceOnUse" x="952" y="59" width="104" height="104">
<path d="M1001.74 59.3906C973.337 60.4665 951.389 84.5661 952.465 112.969C953.756 141.372 977.64 163.32 1006.04 162.244C1034.45 160.953 1056.61 137.069 1055.32 108.666C1054.03 81.1233 1031.43 59.3906 1003.89 59.3906C1003.25 59.3906 1002.6 59.3906 1001.74 59.3906Z" fill="white"/>
</mask>
<g mask="url(#mask62_1719_23)">
<path d="M957.413 116.411C958.489 142.017 980.222 162.028 1005.83 160.952C1031.43 159.876 1051.44 138.143 1050.15 112.538C1049.08 86.9317 1027.34 66.9204 1001.74 68.2115C976.133 69.2873 956.337 90.8049 957.413 116.411Z" fill="#1A1E22"/>
</g>
<mask id="mask63_1719_23" style="mask-type:luminance" maskUnits="userSpaceOnUse" x="952" y="59" width="104" height="104">
<path d="M1001.74 59.3906C973.337 60.4665 951.389 84.5661 952.465 112.969C953.756 141.372 977.64 163.32 1006.04 162.244C1034.45 160.953 1056.61 137.069 1055.32 108.666C1054.03 81.1233 1031.43 59.3906 1003.89 59.3906C1003.25 59.3906 1002.6 59.3906 1001.74 59.3906Z" fill="white"/>
</mask>
<g mask="url(#mask63_1719_23)">
<path d="M957.844 116.413C958.919 141.803 980.437 161.6 1005.83 160.308C1031.22 159.233 1050.8 137.93 1049.72 112.54C1048.65 87.1489 1027.13 67.568 1001.74 68.6439C976.564 69.7197 956.768 91.2373 957.844 116.413Z" fill="#1A1E22"/>
</g>
<mask id="mask64_1719_23" style="mask-type:luminance" maskUnits="userSpaceOnUse" x="952" y="59" width="104" height="104">
<path d="M1001.74 59.3906C973.337 60.4665 951.389 84.5661 952.465 112.969C953.756 141.372 977.64 163.32 1006.04 162.244C1034.45 160.953 1056.61 137.069 1055.32 108.666C1054.03 81.1233 1031.43 59.3906 1003.89 59.3906C1003.25 59.3906 1002.6 59.3906 1001.74 59.3906Z" fill="white"/>
</mask>
<g mask="url(#mask64_1719_23)">
<path d="M958.49 116.413C959.566 141.588 980.653 160.954 1005.83 159.878C1031 158.802 1050.37 137.715 1049.29 112.539C1048.22 87.3639 1027.13 67.9981 1001.96 69.074C976.78 70.1499 957.414 91.4522 958.49 116.413Z" fill="#1A1E22"/>
</g>
<mask id="mask65_1719_23" style="mask-type:luminance" maskUnits="userSpaceOnUse" x="952" y="59" width="104" height="104">
<path d="M1001.74 59.3906C973.337 60.4665 951.389 84.5661 952.465 112.969C953.756 141.372 977.64 163.32 1006.04 162.244C1034.45 160.953 1056.61 137.069 1055.32 108.666C1054.03 81.1233 1031.43 59.3906 1003.89 59.3906C1003.25 59.3906 1002.6 59.3906 1001.74 59.3906Z" fill="white"/>
</mask>
<g mask="url(#mask65_1719_23)">
<path d="M958.921 116.41C959.997 141.37 980.869 160.521 1005.61 159.445C1030.36 158.369 1049.72 137.497 1048.65 112.537C1047.57 87.7916 1026.49 68.4259 1001.74 69.5017C977.211 70.5776 957.845 91.6648 958.921 116.41Z" fill="#1A1E22"/>
</g>
<mask id="mask66_1719_23" style="mask-type:luminance" maskUnits="userSpaceOnUse" x="952" y="59" width="104" height="104">
<path d="M1001.74 59.3906C973.337 60.4665 951.389 84.5661 952.465 112.969C953.756 141.372 977.64 163.32 1006.04 162.244C1034.45 160.953 1056.61 137.069 1055.32 108.666C1054.03 81.1233 1031.43 59.3906 1003.89 59.3906C1003.25 59.3906 1002.6 59.3906 1001.74 59.3906Z" fill="white"/>
</mask>
<g mask="url(#mask66_1719_23)">
<path d="M959.35 116.414C960.425 140.944 981.082 159.879 1005.61 158.803C1030.14 157.727 1049.08 137.07 1048 112.54C1046.93 88.0105 1026.27 68.8599 1001.74 69.9358C977.424 71.2268 958.489 91.8837 959.35 116.414Z" fill="#1A1E22"/>
</g>
<mask id="mask67_1719_23" style="mask-type:luminance" maskUnits="userSpaceOnUse" x="952" y="59" width="104" height="104">
<path d="M1001.74 59.3906C973.337 60.4665 951.389 84.5661 952.465 112.969C953.756 141.372 977.64 163.32 1006.04 162.244C1034.45 160.953 1056.61 137.069 1055.32 108.666C1054.03 81.1233 1031.43 59.3906 1003.89 59.3906C1003.25 59.3906 1002.6 59.3906 1001.74 59.3906Z" fill="white"/>
</mask>
<g mask="url(#mask67_1719_23)">
<path d="M959.995 116.411C961.071 140.726 981.513 159.446 1005.83 158.37C1030.14 157.294 1048.86 136.852 1047.79 112.753C1046.71 88.6532 1026.27 69.7178 1001.95 70.7937C977.64 71.6544 958.919 92.096 959.995 116.411Z" fill="#1A1E22"/>
</g>
<mask id="mask68_1719_23" style="mask-type:luminance" maskUnits="userSpaceOnUse" x="952" y="59" width="104" height="104">
<path d="M1001.74 59.3906C973.337 60.4665 951.389 84.5661 952.465 112.969C953.756 141.372 977.64 163.32 1006.04 162.244C1034.45 160.953 1056.61 137.069 1055.32 108.666C1054.03 81.1233 1031.43 59.3906 1003.89 59.3906C1003.25 59.3906 1002.6 59.3906 1001.74 59.3906Z" fill="white"/>
</mask>
<g mask="url(#mask68_1719_23)">
<path d="M960.426 116.409C961.502 140.294 981.728 158.799 1005.61 157.938C1029.5 156.862 1048 136.636 1047.14 112.751C1046.07 88.6515 1025.84 70.1465 1001.95 71.2224C978.07 72.0831 959.35 92.3095 960.426 116.409Z" fill="#1A1E22"/>
</g>
<mask id="mask69_1719_23" style="mask-type:luminance" maskUnits="userSpaceOnUse" x="952" y="59" width="104" height="104">
<path d="M1001.74 59.3906C973.337 60.4665 951.389 84.5661 952.465 112.969C953.756 141.372 977.64 163.32 1006.04 162.244C1034.45 160.953 1056.61 137.069 1055.32 108.666C1054.03 81.1233 1031.43 59.3906 1003.89 59.3906C1003.25 59.3906 1002.6 59.3906 1001.74 59.3906Z" fill="white"/>
</mask>
<g mask="url(#mask69_1719_23)">
<path d="M960.857 116.413C961.933 140.082 981.944 158.372 1005.61 157.511C1029.28 156.435 1047.57 136.424 1046.71 112.755C1045.64 89.0853 1025.63 70.7954 1001.96 71.8713C978.286 72.732 959.997 92.7433 960.857 116.413Z" fill="#1A1E22"/>
</g>
<mask id="mask70_1719_23" style="mask-type:luminance" maskUnits="userSpaceOnUse" x="952" y="59" width="104" height="104">
<path d="M1001.74 59.3906C973.337 60.4665 951.389 84.5661 952.465 112.969C953.756 141.372 977.64 163.32 1006.04 162.244C1034.45 160.953 1056.61 137.069 1055.32 108.666C1054.03 81.1233 1031.43 59.3906 1003.89 59.3906C1003.25 59.3906 1002.6 59.3906 1001.74 59.3906Z" fill="white"/>
</mask>
<g mask="url(#mask70_1719_23)">
<path d="M961.501 116.41C962.577 139.865 982.373 157.939 1005.83 156.863C1029.28 155.787 1047.36 136.207 1046.28 112.752C1045.2 89.2984 1025.41 71.2237 1002.17 72.2995C978.715 73.1602 960.425 92.9564 961.501 116.41Z" fill="#1A1E22"/>
</g>
<mask id="mask71_1719_23" style="mask-type:luminance" maskUnits="userSpaceOnUse" x="952" y="59" width="104" height="104">
<path d="M1001.74 59.3906C973.337 60.4665 951.389 84.5661 952.465 112.969C953.756 141.372 977.64 163.32 1006.04 162.244C1034.45 160.953 1056.61 137.069 1055.32 108.666C1054.03 81.1233 1031.43 59.3906 1003.89 59.3906C1003.25 59.3906 1002.6 59.3906 1001.74 59.3906Z" fill="white"/>
</mask>
<g mask="url(#mask71_1719_23)">
<path d="M961.931 116.41C963.007 139.433 982.373 157.508 1005.61 156.432C1028.64 155.356 1046.71 135.991 1045.63 112.752C1044.56 89.7279 1025.19 71.8684 1001.95 72.7291C978.93 73.5898 961.071 93.1707 961.931 116.41Z" fill="#1A1E22"/>
</g>
<mask id="mask72_1719_23" style="mask-type:luminance" maskUnits="userSpaceOnUse" x="952" y="59" width="104" height="104">
<path d="M1001.74 59.3906C973.337 60.4665 951.389 84.5661 952.465 112.969C953.756 141.372 977.64 163.32 1006.04 162.244C1034.45 160.953 1056.61 137.069 1055.32 108.666C1054.03 81.1233 1031.43 59.3906 1003.89 59.3906C1003.25 59.3906 1002.6 59.3906 1001.74 59.3906Z" fill="white"/>
</mask>
<g mask="url(#mask72_1719_23)">
<path d="M962.362 116.198C963.438 139.007 982.589 156.651 1005.4 155.79C1028.21 154.93 1045.85 135.564 1044.99 112.755C1043.91 89.9467 1024.76 72.3023 1001.95 73.163C979.146 74.2389 961.502 93.3895 962.362 116.198Z" fill="#1A1E22"/>
</g>
<mask id="mask73_1719_23" style="mask-type:luminance" maskUnits="userSpaceOnUse" x="952" y="59" width="104" height="104">
<path d="M1001.74 59.3906C973.337 60.4665 951.389 84.5661 952.465 112.969C953.756 141.372 977.64 163.32 1006.04 162.244C1034.45 160.953 1056.61 137.069 1055.32 108.666C1054.03 81.1233 1031.43 59.3906 1003.89 59.3906C1003.25 59.3906 1002.6 59.3906 1001.74 59.3906Z" fill="white"/>
</mask>
<g mask="url(#mask73_1719_23)">
<path d="M963.008 116.196C964.084 138.789 983.019 156.218 1005.61 155.358C1028.21 154.497 1045.63 135.346 1044.77 112.753C1043.91 90.1596 1024.76 72.7304 1002.17 73.5911C979.576 74.667 961.932 93.8176 963.008 116.196Z" fill="#1A1E22"/>
</g>
<mask id="mask74_1719_23" style="mask-type:luminance" maskUnits="userSpaceOnUse" x="952" y="59" width="104" height="104">
<path d="M1001.74 59.3906C973.337 60.4665 951.389 84.5661 952.465 112.969C953.756 141.372 977.64 163.32 1006.04 162.244C1034.45 160.953 1056.61 137.069 1055.32 108.666C1054.03 81.1233 1031.43 59.3906 1003.89 59.3906C1003.25 59.3906 1002.6 59.3906 1001.74 59.3906Z" fill="white"/>
</mask>
<g mask="url(#mask74_1719_23)">
<path d="M963.439 116.194C964.515 138.572 983.235 155.786 1005.4 154.925C1027.78 154.065 1044.99 135.129 1043.91 112.751C1043.05 90.5881 1024.12 73.1589 1001.96 74.2348C979.792 75.0955 962.578 94.0309 963.439 116.194Z" fill="#1A1E22"/>
</g>
<mask id="mask75_1719_23" style="mask-type:luminance" maskUnits="userSpaceOnUse" x="952" y="59" width="104" height="104">
<path d="M1001.74 59.3906C973.337 60.4665 951.389 84.5661 952.465 112.969C953.756 141.372 977.64 163.32 1006.04 162.244C1034.45 160.953 1056.61 137.069 1055.32 108.666C1054.03 81.1233 1031.43 59.3906 1003.89 59.3906C1003.25 59.3906 1002.6 59.3906 1001.74 59.3906Z" fill="white"/>
</mask>
<g mask="url(#mask75_1719_23)">
<path d="M964.084 116.198C964.945 138.146 983.665 155.144 1005.61 154.284C1027.56 153.423 1044.77 134.703 1043.7 112.755C1042.84 90.807 1024.12 73.593 1002.17 74.6689C980.222 75.7448 963.008 94.2499 964.084 116.198Z" fill="#1A1E22"/>
</g>
<mask id="mask76_1719_23" style="mask-type:luminance" maskUnits="userSpaceOnUse" x="952" y="59" width="104" height="104">
<path d="M1001.74 59.3906C973.337 60.4665 951.389 84.5661 952.465 112.969C953.756 141.372 977.64 163.32 1006.04 162.244C1034.45 160.953 1056.61 137.069 1055.32 108.666C1054.03 81.1233 1031.43 59.3906 1003.89 59.3906C1003.25 59.3906 1002.6 59.3906 1001.74 59.3906Z" fill="white"/>
</mask>
<g mask="url(#mask76_1719_23)">
<path d="M964.514 116.194C965.59 137.927 983.88 154.711 1005.4 153.85C1027.13 152.989 1043.91 134.699 1043.05 112.967C1042.19 91.2339 1023.9 74.4503 1002.17 75.311C980.437 76.1717 963.653 94.4616 964.514 116.194Z" fill="#1A1E22"/>
</g>
<mask id="mask77_1719_23" style="mask-type:luminance" maskUnits="userSpaceOnUse" x="952" y="59" width="104" height="104">
<path d="M1001.74 59.3906C973.337 60.4665 951.389 84.5661 952.465 112.969C953.756 141.372 977.64 163.32 1006.04 162.244C1034.45 160.953 1056.61 137.069 1055.32 108.666C1054.03 81.1233 1031.43 59.3906 1003.89 59.3906C1003.25 59.3906 1002.6 59.3906 1001.74 59.3906Z" fill="white"/>
</mask>
<g mask="url(#mask77_1719_23)">
<path d="M964.945 116.197C965.805 137.715 983.88 154.283 1005.4 153.423C1026.92 152.562 1043.48 134.487 1042.62 112.97C1041.76 91.6675 1023.69 74.8839 1002.17 75.7446C980.868 76.8204 964.084 94.8952 964.945 116.197Z" fill="#1A1E22"/>
</g>
<mask id="mask78_1719_23" style="mask-type:luminance" maskUnits="userSpaceOnUse" x="952" y="59" width="104" height="104">
<path d="M1001.74 59.3906C973.337 60.4665 951.389 84.5661 952.465 112.969C953.756 141.372 977.64 163.32 1006.04 162.244C1034.45 160.953 1056.61 137.069 1055.32 108.666C1054.03 81.1233 1031.43 59.3906 1003.89 59.3906C1003.25 59.3906 1002.6 59.3906 1001.74 59.3906Z" fill="white"/>
</mask>
<g mask="url(#mask78_1719_23)">
<path d="M965.591 116.196C966.451 137.498 984.311 153.636 1005.4 152.775C1026.7 151.915 1042.84 134.055 1041.98 112.753C1041.12 91.6657 1023.26 75.3124 1001.96 76.1731C981.083 77.249 964.515 95.1085 965.591 116.196Z" fill="#1A1E22"/>
</g>
<mask id="mask79_1719_23" style="mask-type:luminance" maskUnits="userSpaceOnUse" x="952" y="59" width="104" height="104">
<path d="M1001.74 59.3906C973.337 60.4665 951.389 84.5661 952.465 112.969C953.756 141.372 977.64 163.32 1006.04 162.244C1034.45 160.953 1056.61 137.069 1055.32 108.666C1054.03 81.1233 1031.43 59.3906 1003.89 59.3906C1003.25 59.3906 1002.6 59.3906 1001.74 59.3906Z" fill="white"/>
</mask>
<g mask="url(#mask79_1719_23)">
<path d="M966.021 116.195C966.882 137.067 984.526 153.42 1005.4 152.345C1026.27 151.484 1042.41 133.839 1041.55 112.967C1040.69 92.0955 1023.04 75.9573 1002.17 76.818C981.299 77.6787 965.16 95.3231 966.021 116.195Z" fill="#1A1E22"/>
</g>
<mask id="mask80_1719_23" style="mask-type:luminance" maskUnits="userSpaceOnUse" x="952" y="59" width="104" height="104">
<path d="M1001.74 59.3906C973.337 60.4665 951.389 84.5661 952.465 112.969C953.756 141.372 977.64 163.32 1006.04 162.244C1034.45 160.953 1056.61 137.069 1055.32 108.666C1054.03 81.1233 1031.43 59.3906 1003.89 59.3906C1003.25 59.3906 1002.6 59.3906 1001.74 59.3906Z" fill="white"/>
</mask>
<g mask="url(#mask80_1719_23)">
<path d="M966.45 116.196C967.311 136.853 984.74 152.776 1005.4 151.7C1026.05 150.84 1041.98 133.41 1041.12 112.969C1040.25 92.5271 1022.83 76.389 1002.17 77.2497C981.727 78.1104 965.589 95.5396 966.45 116.196Z" fill="#1A1E22"/>
</g>
<mask id="mask81_1719_23" style="mask-type:luminance" maskUnits="userSpaceOnUse" x="952" y="59" width="104" height="104">
<path d="M1001.74 59.3906C973.337 60.4665 951.389 84.5661 952.465 112.969C953.756 141.372 977.64 163.32 1006.04 162.244C1034.45 160.953 1056.61 137.069 1055.32 108.666C1054.03 81.1233 1031.43 59.3906 1003.89 59.3906C1003.25 59.3906 1002.6 59.3906 1001.74 59.3906Z" fill="white"/>
</mask>
<g mask="url(#mask81_1719_23)">
<path d="M967.096 116.194C967.957 136.42 985.171 152.343 1005.4 151.483C1025.84 150.622 1041.55 133.408 1040.69 113.182C1039.83 92.9551 1022.61 77.2473 1002.38 78.108C981.943 78.7535 966.236 95.7523 967.096 116.194Z" fill="#1A1E22"/>
</g>
<mask id="mask82_1719_23" style="mask-type:luminance" maskUnits="userSpaceOnUse" x="952" y="59" width="104" height="104">
<path d="M1001.74 59.3906C973.337 60.4665 951.389 84.5661 952.465 112.969C953.756 141.372 977.64 163.32 1006.04 162.244C1034.45 160.953 1056.61 137.069 1055.32 108.666C1054.03 81.1233 1031.43 59.3906 1003.89 59.3906C1003.25 59.3906 1002.6 59.3906 1001.74 59.3906Z" fill="white"/>
</mask>
<g mask="url(#mask82_1719_23)">
<path d="M967.527 116.194C968.388 136.205 985.386 151.698 1005.4 150.837C1025.41 149.977 1040.9 132.978 1040.04 113.182C1039.18 93.1704 1022.18 77.4626 1002.17 78.5385C982.374 79.184 966.666 95.9677 967.527 116.194Z" fill="#1A1E22"/>
</g>
<mask id="mask83_1719_23" style="mask-type:luminance" maskUnits="userSpaceOnUse" x="952" y="59" width="104" height="104">
<path d="M1001.74 59.3906C973.337 60.4665 951.389 84.5661 952.465 112.969C953.756 141.372 977.64 163.32 1006.04 162.244C1034.45 160.953 1056.61 137.069 1055.32 108.666C1054.03 81.1233 1031.43 59.3906 1003.89 59.3906C1003.25 59.3906 1002.6 59.3906 1001.74 59.3906Z" fill="white"/>
</mask>
<g mask="url(#mask83_1719_23)">
<path d="M968.173 115.983C969.034 135.779 985.602 151.056 1005.4 150.195C1025.19 149.335 1040.47 132.766 1039.61 112.97C1038.75 93.174 1022.18 77.8966 1002.39 78.7573C982.59 79.618 967.313 96.4016 968.173 115.983Z" fill="#1A1E22"/>
</g>
<mask id="mask84_1719_23" style="mask-type:luminance" maskUnits="userSpaceOnUse" x="952" y="59" width="104" height="104">
<path d="M1001.74 59.3906C973.337 60.4665 951.389 84.5661 952.465 112.969C953.756 141.372 977.64 163.32 1006.04 162.244C1034.45 160.953 1056.61 137.069 1055.32 108.666C1054.03 81.1233 1031.43 59.3906 1003.89 59.3906C1003.25 59.3906 1002.6 59.3906 1001.74 59.3906Z" fill="white"/>
</mask>
<g mask="url(#mask84_1719_23)">
<path d="M968.603 115.98C969.463 135.561 985.817 150.623 1005.18 149.762C1024.76 148.902 1039.83 132.548 1038.96 112.968C1038.1 93.6018 1021.75 78.3244 1002.17 79.1851C982.804 80.0458 967.742 96.6142 968.603 115.98Z" fill="#1A1E22"/>
</g>
<mask id="mask85_1719_23" style="mask-type:luminance" maskUnits="userSpaceOnUse" x="952" y="59" width="104" height="104">
<path d="M1001.74 59.3906C973.337 60.4665 951.389 84.5661 952.465 112.969C953.756 141.372 977.64 163.32 1006.04 162.244C1034.45 160.953 1056.61 137.069 1055.32 108.666C1054.03 81.1233 1031.43 59.3906 1003.89 59.3906C1003.25 59.3906 1002.6 59.3906 1001.74 59.3906Z" fill="white"/>
</mask>
<g mask="url(#mask85_1719_23)">
<path d="M969.034 115.98C969.894 135.131 986.032 149.978 1005.18 149.332C1024.55 148.472 1039.4 132.334 1038.54 113.183C1037.67 94.0324 1021.54 79.1853 1002.39 79.8308C983.02 80.6915 968.173 96.8296 969.034 115.98Z" fill="#1A1E22"/>
</g>
<mask id="mask86_1719_23" style="mask-type:luminance" maskUnits="userSpaceOnUse" x="952" y="59" width="104" height="104">
<path d="M1001.74 59.3906C973.337 60.4665 951.389 84.5661 952.465 112.969C953.756 141.372 977.64 163.32 1006.04 162.244C1034.45 160.953 1056.61 137.069 1055.32 108.666C1054.03 81.1233 1031.43 59.3906 1003.89 59.3906C1003.25 59.3906 1002.6 59.3906 1001.74 59.3906Z" fill="white"/>
</mask>
<g mask="url(#mask86_1719_23)">
<path d="M969.679 115.982C970.539 134.917 986.462 149.549 1005.4 148.688C1024.33 147.828 1038.97 131.905 1038.1 112.969C1037.24 94.0339 1021.32 79.402 1002.39 80.2627C983.45 81.1234 968.818 97.0463 969.679 115.982Z" fill="#1A1E22"/>
</g>
<mask id="mask87_1719_23" style="mask-type:luminance" maskUnits="userSpaceOnUse" x="952" y="59" width="104" height="104">
<path d="M1001.74 59.3906C973.337 60.4665 951.389 84.5661 952.465 112.969C953.756 141.372 977.64 163.32 1006.04 162.244C1034.45 160.953 1056.61 137.069 1055.32 108.666C1054.03 81.1233 1031.43 59.3906 1003.89 59.3906C1003.25 59.3906 1002.6 59.3906 1001.74 59.3906Z" fill="white"/>
</mask>
<g mask="url(#mask87_1719_23)">
<path d="M970.109 115.979C970.97 134.699 986.678 148.901 1005.18 148.255C1023.9 147.394 1038.32 131.687 1037.46 113.182C1036.81 94.6765 1020.89 80.0446 1002.39 80.9053C983.881 81.5508 969.249 97.2585 970.109 115.979Z" fill="#1A1E22"/>
</g>
<mask id="mask88_1719_23" style="mask-type:luminance" maskUnits="userSpaceOnUse" x="952" y="59" width="104" height="104">
<path d="M1001.74 59.3906C973.337 60.4665 951.389 84.5661 952.465 112.969C953.756 141.372 977.64 163.32 1006.04 162.244C1034.45 160.953 1056.61 137.069 1055.32 108.666C1054.03 81.1233 1031.43 59.3906 1003.89 59.3906C1003.25 59.3906 1002.6 59.3906 1001.74 59.3906Z" fill="white"/>
</mask>
<g mask="url(#mask88_1719_23)">
<path d="M970.541 115.979C971.401 134.269 986.894 148.47 1005.18 147.825C1023.47 146.964 1037.68 131.471 1036.81 113.182C1036.17 94.8917 1020.46 80.6901 1002.17 81.3356C984.097 82.1963 969.895 97.6889 970.541 115.979Z" fill="#1A1E22"/>
</g>
<mask id="mask89_1719_23" style="mask-type:luminance" maskUnits="userSpaceOnUse" x="952" y="59" width="104" height="104">
<path d="M1001.74 59.3906C973.337 60.4665 951.389 84.5661 952.465 112.969C953.756 141.372 977.64 163.32 1006.04 162.244C1034.45 160.953 1056.61 137.069 1055.32 108.666C1054.03 81.1233 1031.43 59.3906 1003.89 59.3906C1003.25 59.3906 1002.6 59.3906 1001.74 59.3906Z" fill="white"/>
</mask>
<g mask="url(#mask89_1719_23)">
<path d="M971.185 115.981C972.046 134.055 987.323 148.042 1005.4 147.181C1023.47 146.536 1037.46 131.043 1036.6 113.183C1035.95 95.1087 1020.68 81.1223 1002.6 81.983C984.311 82.6285 970.324 97.9059 971.185 115.981Z" fill="#1A1E22"/>
</g>
<mask id="mask90_1719_23" style="mask-type:luminance" maskUnits="userSpaceOnUse" x="952" y="59" width="104" height="104">
<path d="M1001.74 59.3906C973.337 60.4665 951.389 84.5661 952.465 112.969C953.756 141.372 977.64 163.32 1006.04 162.244C1034.45 160.953 1056.61 137.069 1055.32 108.666C1054.03 81.1233 1031.43 59.3906 1003.89 59.3906C1003.25 59.3906 1002.6 59.3906 1001.74 59.3906Z" fill="white"/>
</mask>
<g mask="url(#mask90_1719_23)">
<path d="M971.615 115.98C972.476 133.624 987.323 147.61 1005.18 146.75C1023.04 146.104 1036.81 131.042 1035.95 113.182C1035.31 95.5381 1020.24 81.7669 1002.38 82.4124C984.525 83.0579 970.969 98.1202 971.615 115.98Z" fill="#1A1E22"/>
</g>
<mask id="mask91_1719_23" style="mask-type:luminance" maskUnits="userSpaceOnUse" x="952" y="59" width="104" height="104">
<path d="M1001.74 59.3906C973.337 60.4665 951.389 84.5661 952.465 112.969C953.756 141.372 977.64 163.32 1006.04 162.244C1034.45 160.953 1056.61 137.069 1055.32 108.666C1054.03 81.1233 1031.43 59.3906 1003.89 59.3906C1003.25 59.3906 1002.6 59.3906 1001.74 59.3906Z" fill="white"/>
</mask>
<g mask="url(#mask91_1719_23)">
<path d="M972.046 115.982C972.906 133.411 987.753 146.967 1005.18 146.322C1022.61 145.676 1036.17 130.829 1035.52 113.185C1034.66 95.7556 1020.03 82.1996 1002.6 83.0603C984.956 83.7058 971.4 98.5529 972.046 115.982Z" fill="#1A1E22"/>
</g>
<mask id="mask92_1719_23" style="mask-type:luminance" maskUnits="userSpaceOnUse" x="952" y="59" width="104" height="104">
<path d="M1001.74 59.3906C973.337 60.4665 951.389 84.5661 952.465 112.969C953.756 141.372 977.64 163.32 1006.04 162.244C1034.45 160.953 1056.61 137.069 1055.32 108.666C1054.03 81.1233 1031.43 59.3906 1003.89 59.3906C1003.25 59.3906 1002.6 59.3906 1001.74 59.3906Z" fill="white"/>
</mask>
<g mask="url(#mask92_1719_23)">
<path d="M972.691 115.766C973.552 132.98 987.969 146.321 1005.18 145.675C1022.4 145.03 1035.74 130.398 1035.09 113.184C1034.45 95.9698 1019.81 82.6289 1002.6 83.2744C985.387 84.1351 972.046 98.5519 972.691 115.766Z" fill="#1A1E22"/>
</g>
<mask id="mask93_1719_23" style="mask-type:luminance" maskUnits="userSpaceOnUse" x="952" y="59" width="104" height="104">
<path d="M1001.74 59.3906C973.337 60.4665 951.389 84.5661 952.465 112.969C953.756 141.372 977.64 163.32 1006.04 162.244C1034.45 160.953 1056.61 137.069 1055.32 108.666C1054.03 81.1233 1031.43 59.3906 1003.89 59.3906C1003.25 59.3906 1002.6 59.3906 1001.74 59.3906Z" fill="white"/>
</mask>
<g mask="url(#mask93_1719_23)">
<path d="M973.122 115.765C973.768 132.764 988.185 145.89 1004.97 145.029C1021.97 144.383 1035.09 129.967 1034.45 112.968C1033.8 95.9691 1019.39 82.8434 1002.39 83.7041C985.603 84.5648 972.477 98.9815 973.122 115.765Z" fill="#1A1E22"/>
</g>
<path d="M1034.02 113.185C1033.16 96.6163 1019.17 83.7058 1002.6 84.3513C986.034 85.212 972.908 99.1984 973.769 115.767C974.414 132.335 988.616 145.246 1005.18 144.6C1021.75 143.955 1034.66 129.968 1034.02 113.185Z" fill="#1A1E22"/>
<path d="M992.057 118.129L1007.98 125.23L1019.81 114.256L1011.64 96.3965L994.208 99.4089L992.057 118.129Z" fill="#1A1E22"/>
<path d="M992.056 118.13L990.12 122.649L1006.04 129.749L1009.06 131.04L1023.26 117.7L1025.84 115.333L1016.16 94.2455L1014.65 90.8027L993.347 94.6759L989.904 95.3214L987.107 117.484L986.677 121.142L990.12 122.649L992.056 118.13L996.79 118.775L998.727 103.713L1008.84 101.777L1014 112.966L1007.12 119.421L993.993 113.611L992.056 118.13L996.79 118.775L992.056 118.13Z" fill="#1A1E22"/>
<path d="M1038.96 115.548L1048.86 128.674L1052.3 127.168C1054.46 121.143 1055.53 114.688 1055.1 108.017L1054.46 101.777L1046.93 99.4102L1038.96 115.548Z" fill="#1A1E22"/>
<path d="M1001.09 151.697L1006.9 161.81C1014.86 161.164 1022.4 158.797 1028.85 155.139L1030.36 149.33L1013.57 140.723L1001.09 151.697Z" fill="#1A1E22"/>
<path d="M1001.09 151.699L999.157 152.99L1004.97 162.888L1005.61 164.179L1007.12 163.964C1015.51 163.318 1023.26 160.951 1029.93 157.078L1030.79 156.648L1032.51 149.978L1032.94 148.041L1014.43 138.573L1012.93 137.928L999.157 149.762L997.65 151.053L998.726 152.775L1001.09 151.699L1002.6 153.42L1014 143.522L1027.77 150.408L1026.7 154.281L1028.85 154.927L1027.77 152.99C1021.53 156.433 1014.43 158.8 1006.9 159.23L1007.12 161.597L1009.05 160.306L1003.24 150.408L1001.09 151.699Z" fill="#1A1E22"/>
<path d="M965.591 126.094L961.287 139.65C964.515 144.169 968.173 148.257 972.691 151.485L981.083 144.814L978.931 125.879L965.591 126.094Z" fill="#1A1E22"/>
<path d="M965.59 126.092L963.438 125.447L959.134 139.003L958.704 140.079L959.35 140.939C962.577 145.673 966.666 149.977 971.184 153.204L972.69 154.28L982.373 146.319L983.449 145.458L981.082 125.447L980.867 123.295L965.59 123.51H963.868L963.438 125.016L965.59 126.092V128.459L976.779 128.244L978.715 143.737L971.399 149.546L972.906 151.483L974.197 149.546C969.893 146.319 966.45 142.661 963.438 138.357L961.501 139.648L963.653 140.294L967.957 126.738L965.59 126.092Z" fill="#1A1E22"/>
<path d="M976.995 129.967L993.133 120.068L990.766 116.195L974.628 126.093" fill="#1A1E22"/>
<path d="M1016.59 143.306L1008.41 115.549L1004.11 116.84L1012.28 144.597" fill="#1A1E22"/>
<path d="M1042.84 113.395L1015.3 110.598L1015.08 114.04L1042.62 117.053" fill="#1A1E22"/>
<path d="M1047.57 125.018L1026.7 149.117L1029.5 151.484L1050.15 127.384" fill="#1A1E22"/>
<path d="M1003.46 150.407L978.501 142.23L977.425 145.673L1002.39 153.85" fill="#1A1E22"/>
<path d="M968.387 127.813L958.704 99.4102L955.477 100.486L964.944 128.889" fill="#1A1E22"/>
<path d="M1049.29 101.562L1036.38 78.9688L1033.37 80.6902L1046.28 103.284" fill="#1A1E22"/>
<mask id="mask94_1719_23" style="mask-type:luminance" maskUnits="userSpaceOnUse" x="927" y="0" width="124" height="125">
<path d="M986.462 1.0774C950.528 2.7988 925.998 31.6323 927.289 65.8451C928.795 100.058 957.629 126.309 991.626 124.803C1025.84 123.297 1052.31 94.4634 1050.8 60.4657C1049.29 27.5439 1022.18 1.0774 989.474 1.0774C988.614 0.862222 987.538 0.862222 986.462 1.0774Z" fill="white"/>
</mask>
<g mask="url(#mask94_1719_23)">
<path d="M1052.52 0.861328H925.999V126.093H1052.52V0.861328Z" fill="#1A1E22"/>
</g>
<path d="M986.462 1.07292V0.642578C951.173 2.36398 926.858 29.9064 926.858 63.0434V66.0558C928.365 99.4079 955.907 125.659 989.044 125.659H991.841C1025.41 124.153 1051.44 96.6107 1051.44 63.4737V60.8916C1049.94 27.5395 1022.61 0.857734 989.69 0.857734H986.462V1.07292V1.50327L989.474 1.28811C1021.97 1.28811 1048.86 27.5395 1050.37 60.2461V62.8282C1050.37 95.5348 1024.55 122.647 991.626 124.153H988.829C956.122 124.153 929.01 98.332 927.719 65.4103V62.613C927.719 29.9064 951.819 3.00951 986.462 1.28811V1.07292Z" fill="#1A1E22"/>
<path d="M935.464 37.2257L935.249 35.5043L931.806 35.9346L930.731 36.1498L930.3 37.0105C927.073 44.7568 924.921 53.1486 924.921 62.186V63.9074C925.782 88.8677 938.907 108.879 958.488 118.777L959.349 119.207L960.21 118.777C972.69 110.816 981.727 95.7533 981.727 79.8303V78.1089C980.651 54.0093 960.855 35.2891 936.971 35.2891H935.034H934.819L935.464 37.2257V38.9471H937.186C959.134 38.9471 977.208 56.161 978.284 78.3241V79.8303C978.284 94.4622 969.893 108.449 958.488 115.765L959.349 117.271L960.21 115.765C941.705 106.297 929.224 87.7918 928.579 63.9074V62.4011C928.579 54.0093 930.515 46.0478 933.528 38.5167L931.806 37.8712L932.022 39.5926L935.464 39.1622V37.2257Z" fill="#1A1E22"/>
<path d="M1014.65 6.02284L1013.57 4.51663C1002.38 12.6933 995.714 25.6038 995.714 40.2357V42.3874C996.79 66.2719 1016.59 84.9921 1040.26 84.9921H1042.19L1047.14 84.5617L1048.22 84.3466L1048.65 83.2707C1051.01 76.6003 1052.3 69.2843 1052.3 61.9684V58.9559C1051.23 34.4259 1035.74 13.9843 1015.08 4.30144L1014.22 3.87109L1013.36 4.51663L1014.65 6.02284L1013.79 7.74425C1033.37 16.9968 1048 36.1474 1049.08 59.3863V62.1835C1049.08 69.2843 1047.79 75.9547 1045.42 82.41L1047.14 83.0555L1046.93 81.3341L1041.98 81.7645L1042.19 83.4859V81.7645H1040.26C1018.52 81.7645 1000.23 64.5505 999.372 42.3874V40.4509C999.372 26.8948 1005.4 15.0602 1015.73 7.52906L1014.65 6.02284Z" fill="#1A1E22"/>
<path d="M965.59 5.37861L1009.7 125.016L1012.93 123.94L969.033 4.30273" fill="#1A1E22"/>
<path d="M933.744 90.1598L979.576 70.794L978.285 67.5664L932.237 86.9322" fill="#1A1E22"/>
<path d="M1001.31 58.7431L1046.5 39.8077L1045.2 36.5801L1000.02 55.5155" fill="#1A1E22"/>
<path d="M970.969 122.434L971.399 120.713C945.148 112.966 928.149 88.8667 928.149 62.8305C928.149 57.2359 929.01 51.4262 930.731 45.6165C938.477 19.3651 962.577 2.3663 988.398 2.3663C993.992 2.3663 999.802 3.22699 1005.61 4.94839C1031.86 12.6947 1048.86 36.5791 1048.86 62.8305C1048.86 68.425 1048 74.2348 1046.28 80.0445C1038.53 106.296 1014.43 123.295 988.398 123.295C982.803 123.295 976.994 122.434 971.184 120.713L970.969 122.434L970.323 124.155C976.348 126.092 982.588 126.953 988.613 126.953C1016.16 126.953 1041.55 108.878 1049.72 81.3356C1051.44 75.3107 1052.3 69.0706 1052.3 63.0457C1052.3 35.5033 1034.45 10.1126 1006.69 1.93592C1000.66 0.214521 994.423 -0.861328 988.398 -0.861328C960.855 -0.861328 935.465 16.9982 927.288 44.7558C925.567 50.7807 924.706 57.0208 924.706 63.0457C924.706 90.5881 942.566 115.979 970.323 124.155L970.969 122.434Z" fill="#1A1E22"/>
</g>
<defs>
<clipPath id="clip0_1719_23">
<rect width="1402.94" height="553" fill="white" transform="translate(0.529297)"/>
</clipPath>
</defs>
</svg>
