<svg width="555" height="529" viewBox="0 0 555 529" fill="none" xmlns="http://www.w3.org/2000/svg">
<path d="M528.989 41.4948L528.856 33.9211H533.935C536.474 33.9211 539.29 34.451 539.345 37.5203C539.4 41.274 536.607 41.4948 533.471 41.4948H528.989ZM529.044 44.6634H533.35L539.974 55.2953H544.18L537.004 44.5088C537.862 44.4977 538.709 44.3109 539.492 43.9599C540.275 43.609 540.978 43.1013 541.557 42.4682C542.137 41.835 542.58 41.09 542.86 40.2788C543.141 39.4677 543.252 38.6078 543.187 37.7521C543.099 32.9164 540.184 30.7415 534.432 30.7415H525.125L525.555 55.2953H529.232L529.044 44.6634ZM533.902 64.2159C536.699 64.2676 539.478 63.7519 542.071 62.7C544.664 61.6482 547.016 60.0819 548.987 58.0957C550.958 56.1096 552.505 53.7447 553.537 51.1439C554.569 48.543 555.063 45.7602 554.989 42.9632C554.876 37.2694 552.519 31.8506 548.432 27.8852C544.344 23.9197 538.857 21.7284 533.162 21.7877C530.361 21.7247 527.576 22.2288 524.975 23.2698C522.373 24.3108 520.01 25.8672 518.025 27.8453C516.041 29.8234 514.477 32.1824 513.428 34.7804C512.379 37.3785 511.866 40.1618 511.92 42.9632C512.028 48.6909 514.4 54.1429 518.517 58.1259C522.635 62.1089 528.174 64.2987 533.902 64.2159ZM516.226 42.9632C516.113 40.6695 516.47 38.3769 517.276 36.2264C518.082 34.076 519.319 32.1131 520.912 30.4585C522.504 28.8039 524.419 27.4926 526.537 26.6052C528.655 25.7179 530.932 25.2732 533.228 25.2986C535.54 25.3029 537.828 25.7638 539.962 26.6548C542.095 27.5458 544.031 28.8494 545.659 30.4908C547.287 32.1321 548.575 34.0789 549.448 36.2192C550.322 38.3596 550.764 40.6514 550.749 42.9632C550.876 45.257 550.532 47.5524 549.738 49.708C548.943 51.8637 547.716 53.8338 546.131 55.4971C544.547 57.1603 542.638 58.4814 540.524 59.379C538.409 60.2766 536.133 60.7317 533.836 60.7161C531.507 60.728 529.2 60.276 527.048 59.3864C524.896 58.4968 522.943 57.1874 521.302 55.5348C519.662 53.8821 518.367 51.9193 517.494 49.7608C516.621 47.6023 516.197 45.2915 516.226 42.9632ZM155.073 404.227L129.239 486.168L88.842 402.537L51.3378 486.279L22.2133 404.227H7.87183L49.748 523.739L89.0407 436.166L131.502 523.717L169.47 404.227H155.073ZM235.602 472.92H203.176L218.82 436.188L235.602 472.92ZM218.235 401.599L167.99 520.04H183.16L197.524 486.323H241.696L257.219 520.04H272.41L218.235 401.599ZM266.416 404.547L266.658 418.303H295.441L297.218 520.051H311.626L309.848 418.303H338.653L338.41 404.547H266.416ZM363.836 404.547L365.845 520.051H426.291L426.048 506.273H379.977L379.237 464.087H424.127L423.896 450.309H378.994L378.442 418.303H424.514L424.271 404.547H363.836ZM482.928 420.401C477.227 418.584 471.232 417.872 465.264 418.303H463.475L464.116 455.012H469.492C475.51 455.677 481.569 454.2 486.605 450.839C488.652 449.08 490.28 446.884 491.369 444.414C492.458 441.944 492.98 439.262 492.898 436.564C492.991 433.19 492.098 429.862 490.327 426.989C488.556 424.116 485.984 421.833 482.928 420.401ZM516.69 520.04H499.633L464.414 471.661L465.253 520.04H450.856L448.836 404.536H466.401C475.995 403.584 485.643 405.723 493.936 410.641C498.151 413.569 501.575 417.497 503.901 422.073C506.226 426.649 507.381 431.73 507.261 436.862C507.491 440.994 506.873 445.13 505.445 449.014C504.017 452.899 501.81 456.45 498.959 459.451C493.518 464.625 486.479 467.794 478.998 468.437L516.69 520.04ZM397.1 10.9461C397.066 9.83531 396.68 8.7642 395.996 7.88789L395.676 7.44627C395.08 6.66685 394.293 6.05458 393.391 5.66877L392.364 5.24924C391.713 4.96654 391.009 4.82722 390.3 4.84074L320.171 4.92906C319.004 4.91516 317.865 5.29212 316.936 5.99998L316.473 6.39744C315.969 6.79537 315.543 7.28174 315.214 7.83268L314.938 8.2743C314.449 9.12303 314.197 10.0879 314.209 11.0675L314.287 15.6824C314.311 16.564 314.546 17.4269 314.971 18.1996L315.258 18.7185C315.869 19.8232 316.845 20.6816 318.018 21.1474L318.924 21.5007C319.365 21.6645 319.825 21.7757 320.293 21.8319L324.135 22.2514L326.84 22.9359L329.103 23.786L334.292 323.864L334.071 326.602L333.53 329.097L332.569 331.669L331.267 333.723L330.593 334.385L329.754 335.048L328.705 335.6L327.292 336.074L325.724 336.328L323.649 336.439L320.524 336.218L319.983 336.074L317.952 335.048L317.4 334.573L316.727 333.91L316.186 333.171L314.916 330.642L313.768 326.988L313.028 321.943C312.947 320.01 312.852 318.078 312.741 316.146L311.769 255.943L311.957 250.865C311.957 251.107 312.222 248.038 312.31 247.056L313.304 241.878L314.706 238.411C314.945 237.949 315.173 237.482 315.391 237.009C315.775 236.27 315.965 235.446 315.943 234.613L315.921 233.454C315.907 232.477 315.607 231.525 315.059 230.716L314.783 230.252C314.254 229.354 313.465 228.638 312.52 228.199L307.265 225.682C306.543 225.329 305.75 225.144 304.946 225.141H303.82C302.776 225.142 301.755 225.449 300.884 226.024L300.442 226.322C300.188 226.508 299.941 226.703 299.702 226.907L259.913 265.615C259.543 265.997 259.227 266.428 258.974 266.895L258.632 267.513C258.235 268.3 258.034 269.172 258.047 270.053L258.709 312.878L258.996 319.149L260.178 327.076C260.191 327.275 260.228 327.471 260.288 327.661L261.613 332.619C261.69 332.994 263.379 337.808 263.379 337.808L263.666 338.448L265.852 342.908C265.963 343.129 266.029 343.295 266.128 343.471L268.811 347.667C268.905 347.858 269.028 348.033 269.176 348.186L272.289 352.006C272.41 352.163 272.539 352.314 272.675 352.458L276.297 355.991C276.429 356.157 276.628 356.311 276.727 356.433L280.923 359.612C281.089 359.768 281.274 359.901 281.475 360.01L286.123 362.781L286.675 363.035L291.864 365.32C292.338 365.563 298.046 367.462 298.046 367.462C298.218 367.505 298.383 367.576 298.532 367.672L304.814 369.074L312.178 370.101L319.884 370.675L329.048 370.642C329.522 370.609 338.432 369.758 338.432 369.758C338.641 369.751 338.848 369.721 339.05 369.67L346.834 367.992C347.038 367.977 347.239 367.933 347.43 367.86L354.352 365.563C354.563 365.494 354.769 365.413 354.97 365.32L360.932 362.428C361.385 362.196 364.112 360.573 364.112 360.573C364.276 360.486 364.432 360.382 364.576 360.264L369.279 356.642C369.455 356.532 369.61 356.389 369.765 356.278L373.772 352.359L374.269 351.873L377.559 347.678C377.688 347.513 377.799 347.336 377.89 347.148L380.529 342.886C380.772 342.5 382.903 338.084 382.903 338.084C383.014 337.931 383.096 337.758 383.145 337.576L384.713 333.325C384.802 332.906 385.961 328.843 385.961 328.843C386.038 328.368 386.811 324.537 386.811 324.537C386.888 324.04 387.529 317.328 387.529 317.328V316.754L382.505 23.8964L383.874 23.2561L387.849 22.1741L391.823 21.6773C392.428 21.6132 393.016 21.4372 393.557 21.1584C394.85 20.5028 395.896 19.4452 396.537 18.1444L396.902 17.0183C397.155 16.3718 397.275 15.6809 397.255 14.9869L397.1 10.9461ZM143.128 124.662C142.265 125.661 141.052 126.29 139.738 126.417C140.439 126.354 141.12 126.151 141.742 125.821C142.364 125.491 142.914 125.041 143.359 124.496C143.842 123.871 144.161 123.135 144.287 122.355C144.287 122.244 144.287 122.211 144.353 122.145C144.38 121.992 144.387 121.836 144.375 121.681C144.303 122.786 143.864 123.835 143.128 124.662Z" fill="#1A1E22"/>
<path d="M144.352 122.143C144.286 122.209 144.286 122.253 144.286 122.352C144.286 122.242 144.286 122.209 144.352 122.143Z" fill="#1A1E22"/>
<path d="M143.371 124.498C142.924 125.043 142.372 125.494 141.749 125.824C141.125 126.154 140.442 126.356 139.739 126.419C141.052 126.289 142.265 125.661 143.129 124.663C143.866 123.837 144.306 122.788 144.376 121.682C144.385 121.837 144.378 121.993 144.354 122.146C144.378 121.952 144.386 121.756 144.376 121.561C144.436 121.221 144.429 120.872 144.354 120.534L129.836 10.4616C129.724 9.67214 129.454 8.91346 129.041 8.23147L128.71 7.71258C128.088 6.83239 127.252 6.12555 126.281 5.65906L125.232 5.23953C124.582 4.95619 123.877 4.82045 123.168 4.84208L5.96283 4.9304C4.68117 4.93901 3.44296 5.39602 2.46303 6.22212L2.06558 6.61958C1.81814 6.83617 1.59257 7.07653 1.39211 7.3372L1.02778 7.82298C0.339873 8.72992 -0.0218918 9.84244 0.00102552 10.9805V15.0103C-0.00348625 15.2329 0.0187537 15.4553 0.0672678 15.6727L0.111429 16.2689C0.23821 17.1214 0.55106 17.9355 1.02778 18.6536L1.39211 19.1835C2.0143 20.068 2.88162 20.7511 3.88724 21.1487L4.78151 21.502C5.23162 21.6502 5.6932 21.761 6.16156 21.8332L9.91529 22.2528L12.6754 22.9262L14.9939 23.8647L20.6576 348.419L20.5141 348.551L17.8975 349.479L13.934 350.395C14.4198 350.285 11.3285 350.693 11.3285 350.693C10.373 350.827 9.4701 351.212 8.71189 351.808L8.27027 352.172C7.97123 352.433 7.69767 352.721 7.45328 353.034L7.14415 353.497C6.40093 354.413 6.00937 355.564 6.04011 356.743L6.12844 361.91C6.14478 363.239 6.64755 364.515 7.54161 365.498L7.91698 365.874C8.03332 366.045 8.17909 366.195 8.34755 366.315L8.75605 366.68C9.75194 367.512 11.0023 367.979 12.3 368.004H83.6319C84.8196 368.012 85.9736 367.611 86.8999 366.867L87.3415 366.525C87.6687 366.246 87.9715 365.939 88.2468 365.609C89.059 364.538 89.5354 363.251 89.6158 361.91L89.5275 356.743C89.5121 355.678 89.1648 354.643 88.5339 353.784L88.2468 353.277C87.6667 352.505 86.9094 351.884 86.0387 351.466L85.2107 351.079C84.8161 350.903 84.3942 350.794 83.9631 350.759L77.7474 349.479L74.623 348.386L72.1058 204.231L76.1576 204.342L78.454 204.574L80.11 205.181L80.375 205.346L81.7551 206.649L83.367 208.912L84.2281 210.569C84.0956 210.204 87.6506 217.977 87.6506 217.977C87.5402 217.778 90.1457 224.159 90.2341 224.435L90.9958 226.61C91.0635 226.882 91.1714 227.143 91.316 227.383L92.8617 230.386L94.1203 233.488C94.1203 233.555 104.631 258.605 104.631 258.605C104.775 258.921 104.953 259.221 105.161 259.5L105.448 259.974C106.047 260.873 106.9 261.572 107.899 261.984L108.914 262.447C109.617 262.725 110.367 262.86 111.122 262.845L115.351 262.69C116.424 262.65 117.461 262.292 118.332 261.663C118.882 261.212 119.399 260.721 119.877 260.195L120.154 259.72C120.787 258.814 121.126 257.735 121.125 256.629L118.807 124.167C118.751 122.918 118.286 121.723 117.482 120.766L116.764 119.96L116.367 119.585C115.349 118.628 114.009 118.088 112.613 118.072H107.877C107.169 118.075 106.47 118.221 105.821 118.502C105.172 118.783 104.587 119.192 104.101 119.706L103.372 120.501C102.873 120.958 102.501 121.536 102.29 122.179L92.5857 146.843C92.5967 146.744 89.2404 154.826 89.2404 154.826C89.384 154.494 87.0986 159.032 86.5355 160.169L84.2281 163.746L83.1903 164.961C83.3007 164.872 82.8812 165.281 82.5058 165.678L81.192 166.484L79.6353 166.959L77.1512 167.268H71.4654L69.2463 40.359L75.8374 40.4142L78.7631 40.7454L80.6952 41.3085L82.7045 42.4898L84.0735 43.4724C84.4005 43.7462 84.7318 44.0149 85.0672 44.2783L86.4251 45.8792L90.3666 51.3773L94.595 58.3217L99.1547 66.326C99.0112 66.1272 107.523 82.7541 107.523 82.7541C107.446 82.6657 112.503 93.0879 113.629 95.4284C113.648 95.5377 113.677 95.6449 113.717 95.7486L126.082 123.924C126.289 124.419 126.568 124.88 126.91 125.293C127.098 125.458 127.683 126.132 127.904 126.286L128.323 126.673C129.3 127.508 130.539 127.973 131.823 127.987H138.37C139.642 127.982 140.868 127.51 141.815 126.662L142.256 126.264C142.812 125.778 143.253 125.175 143.548 124.498L143.99 123.46C144.13 123.104 144.23 122.734 144.288 122.356C144.165 123.135 143.85 123.871 143.371 124.498ZM247.935 353.784L247.659 353.31C247.06 352.514 246.276 351.877 245.374 351.455L244.512 351.079C244.147 350.888 243.743 350.779 243.331 350.759L237.071 349.479L233.947 348.386L228.272 23.6218L228.382 23.6107L230.955 22.6613L233.748 22.1313L237.579 21.7007C238.187 21.6221 238.777 21.4391 239.323 21.1598C240.687 20.5007 241.771 19.3773 242.382 17.9912L242.724 16.9203C242.948 16.3019 243.045 15.6449 243.011 14.9882L242.856 10.9474C242.819 9.93172 242.494 8.94759 241.918 8.11003L241.62 7.69049C241.311 7.20626 240.927 6.77402 240.483 6.40981L240.019 6.05652C239.049 5.3499 237.885 4.96042 236.685 4.94144H165.96C164.793 4.93256 163.656 5.309 162.725 6.01236L162.262 6.40981C161.609 6.93397 161.087 7.60305 160.738 8.36396L160.274 9.36863C159.974 10.0617 159.824 10.8104 159.833 11.5657L159.899 15.1759C159.92 15.8779 160.081 16.5687 160.374 17.2073L160.848 18.3224C161.428 19.6247 162.5 20.6446 163.829 21.1598L164.768 21.5131C165.192 21.6847 165.638 21.7962 166.093 21.8443L169.89 22.2638L172.474 22.9373L174.362 23.7322L180.025 348.43L179.749 348.595L177.21 349.578L173.677 350.406L171.248 350.77C170.424 350.867 169.638 351.171 168.963 351.654L168.477 351.952C168.041 352.293 167.651 352.69 167.318 353.133L166.965 353.608C166.303 354.522 165.958 355.626 165.982 356.754L166.07 361.921C166.073 363.183 166.537 364.4 167.373 365.344L167.715 365.785C168.256 366.351 168.891 366.818 169.592 367.165L170.652 367.684C171.36 367.972 172.118 368.114 172.882 368.104L243.022 368.004C244.227 368.012 245.396 367.594 246.323 366.823L246.765 366.459C247.494 365.877 248.048 365.105 248.365 364.229L248.741 363.213C248.985 362.569 249.094 361.881 249.061 361.193L248.895 356.666C248.859 355.636 248.526 354.628 247.935 353.784ZM509.25 353.497C508.699 352.633 507.904 351.952 506.964 351.543L506.203 351.135C505.81 350.923 505.378 350.795 504.933 350.759L498.629 349.479L495.538 348.419L489.863 23.6107L492.49 22.6613L495.284 22.1203C494.952 22.1755 499.104 21.7007 499.104 21.7007C499.645 21.6459 500.17 21.4846 500.649 21.226L501.179 21.0273C502.436 20.4287 503.404 19.357 503.873 18.0464L504.248 16.9423C504.502 16.3118 504.615 15.6337 504.58 14.9551L504.414 10.8922C504.314 9.9742 504.025 9.08696 503.564 8.28668L503.299 7.82298C502.918 7.24724 502.431 6.74899 501.864 6.35461L501.356 5.91299C500.426 5.25828 499.314 4.91086 498.176 4.91936H427.485C426.319 4.91537 425.183 5.29131 424.25 5.99028L423.819 6.39877C423.435 6.67208 423.099 7.00796 422.826 7.3924L422.45 7.8561C421.828 8.75097 421.472 9.80356 421.423 10.8922L421.39 14.9109C421.385 15.3871 421.441 15.862 421.556 16.3241L421.71 16.8982C421.836 17.5163 422.1 18.0977 422.483 18.5984L422.848 19.1504C423.463 20.0732 424.362 20.7707 425.409 21.1377L426.325 21.502C426.738 21.685 427.178 21.797 427.628 21.8332L431.393 22.2638L434.043 22.9262L435.875 23.7211L441.539 348.419L441.318 348.584L438.801 349.567L435.257 350.395L432.795 350.759C431.985 350.857 431.208 351.136 430.521 351.576L430.024 351.941C429.585 352.242 429.201 352.615 428.887 353.045L428.556 353.53C427.836 354.446 427.447 355.578 427.451 356.743L427.54 361.91C427.576 363.218 428.09 364.467 428.986 365.421L429.35 365.807C429.581 366.077 429.832 366.328 430.101 366.558L430.543 366.889C431.486 367.605 432.638 367.993 433.822 367.993H504.502C505.645 368.031 506.762 367.655 507.649 366.934L508.146 366.602C508.559 366.239 508.937 365.836 509.272 365.399C510.007 364.376 510.443 363.167 510.53 361.91L510.442 356.743C510.379 355.742 510.064 354.774 509.526 353.928L509.25 353.497Z" fill="#1A1E22"/>
</svg>
