<svg width="1500" height="311" viewBox="0 0 1500 311" fill="none" xmlns="http://www.w3.org/2000/svg">
<path d="M184.171 158.152L189.061 158.464C208.311 159.664 214.802 162.909 216.936 164.865C219.07 166.822 222.316 171.668 222.316 192.207V261.25C222.435 262.524 222.3 263.809 221.919 265.03C221.537 266.251 220.917 267.384 220.093 268.363C219.204 269.208 215.647 271.698 202.799 275.921C196.558 277.975 190.145 279.463 183.637 280.367C177.748 281.24 171.807 281.715 165.854 281.79C151.942 282.03 138.139 279.298 125.366 273.779C112.594 268.259 101.146 260.077 91.7874 249.78C71.7814 228.44 61.645 198.164 61.645 159.797C61.645 113.072 71.7814 79.2397 91.743 59.2781C100.704 49.7802 111.507 42.2087 123.493 37.0261C135.479 31.8436 148.395 29.1588 161.453 29.1356C187.55 29.1356 208.134 37.4937 224.272 54.5655C235.583 68.1706 244.593 83.5333 250.947 100.046L252.28 103.247H271.219L267.218 1.57178H248.99L247.657 4.8172C246.498 8.00291 244.663 10.8998 242.277 13.3087C239.435 15.1882 236.009 15.9776 232.63 15.5315C223.597 13.8607 214.685 11.5883 205.955 8.72949C189.489 4.01182 172.447 1.60292 155.318 1.57178C107.526 1.57178 68.6249 18.1546 39.7273 50.92C13.4785 80.3814 -0.697909 118.656 0.0264503 158.108C0.0264503 205.367 16.8315 243.6 49.9082 271.698C79.8283 297.083 116.995 309.976 160.386 309.976C185.44 309.719 210.282 305.349 233.919 297.039C267.885 285.48 274.82 278.589 274.82 271.787V186.472C274.82 174.335 277.177 166.11 281.756 162.598C283.223 161.398 287.624 159.308 300.206 158.464L305.096 158.108V139.969H184.171V158.152Z" fill="#1A1E22"/>
<path d="M540.99 24.6441L545.702 25.0887C559.929 26.5113 569.932 29.8457 574.6 34.8249C577.223 37.6258 581.624 46.6063 581.624 75.5483V188.382C581.624 215.057 578.423 234.93 572.021 247.378C560.773 269.385 538.945 280.099 505.334 280.099C474.881 280.099 454.875 269.696 444.205 248.312C438.381 236.397 435.313 219.281 435.313 197.496V58.8322C435.313 40.071 438.87 34.0692 441.004 32.1575C443.138 30.2458 449.895 26.5113 470.257 25.1331L475.103 24.7775V6.63867H341.729V24.733L346.798 25.1331C366.581 26.6447 373.472 30.2902 375.517 32.3353C377.563 34.3804 381.119 40.2488 381.119 59.01V194.295C381.119 221.904 385.965 244.577 395.523 261.604C413.307 293.703 447.095 310.019 495.776 310.019C544.457 310.019 579.001 293.481 596.873 261.115C606.387 243.643 611.233 219.236 611.233 188.56V75.5483C611.233 47.5399 615.368 38.3816 617.813 35.5363C620.258 32.691 628.171 27.3116 647.244 25.2221L651.69 24.733V6.94988H540.99V24.6441Z" fill="#1A1E22"/>
<path d="M943.466 223.282C932.885 246.667 921.237 261.471 908.3 267.34C895.362 273.208 873.934 276.498 845.436 276.498C812.36 276.498 801.378 275.342 798 274.364C796.933 274.053 793.554 273.119 793.554 264.139V161.885H855.217C877.179 161.885 884.248 165.976 886.337 168.376C889.361 171.577 893.717 179.535 897.496 199.141L898.341 203.587H918.036V92.9758H898.297L897.496 97.4216C893.895 116.894 889.538 124.852 886.56 128.098C884.292 130.543 877.179 134.633 855.039 134.633H793.643V42.9607C793.368 40.1591 793.732 37.3316 794.71 34.6916C794.71 34.6916 796.177 33.5801 802.401 33.5801H861.441C891.45 33.5801 902.965 37.5813 907.366 40.9601C911.767 44.3389 917.68 52.7859 921.904 74.8815L922.748 79.105H943.421L941.643 6.63867H701.082V24.7775L705.927 25.1331C725.222 26.4669 731.58 30.2458 733.669 32.3798C735.759 34.5137 739.182 40.6489 739.182 58.8322V251.646C739.182 271.519 735.492 276.765 733.936 278.098C731.713 279.966 725.044 283.344 705.75 285.434L701.082 285.923V303.706H944.577L967.073 220.036H944.844L943.466 223.282Z" fill="#1A1E22"/>
<path d="M1161.13 135.7L1123.08 112.182C1111.8 105.737 1101.59 97.5951 1092.8 88.0414C1086.82 81.0459 1083.65 72.0782 1083.91 62.8783C1083.64 58.1101 1084.52 53.3471 1086.48 48.991C1088.44 44.6349 1091.41 40.8133 1095.16 37.8485C1103.03 31.5873 1112.84 28.2837 1122.9 28.5124C1138.57 29.0673 1153.68 34.5077 1166.11 44.0726C1180.6 54.2979 1191.32 72.8813 1198.03 99.2893L1199.05 103.246H1219.28L1208.7 0.503906H1190.92L1189.94 4.50511C1189.34 7.70168 1188.07 10.7336 1186.21 13.3967C1184.22 14.8576 1181.76 15.5093 1179.32 15.2195C1171.74 13.4532 1164.31 11.12 1157.09 8.23957C1145.15 3.61977 1132.53 1.00594 1119.74 0.503906C1094.44 0.503906 1073.77 8.37295 1058.12 23.8443C1050.47 31.4578 1044.45 40.5547 1040.44 50.5771C1036.42 60.5995 1034.5 71.3361 1034.78 82.1285C1034.91 100.353 1041.99 117.842 1054.57 131.032C1062.81 139.614 1072.14 147.087 1082.31 153.261L1119.25 176.335C1140.1 189.361 1153.84 199.142 1160.11 205.41C1164.52 209.723 1168.01 214.886 1170.37 220.586C1172.74 226.286 1173.92 232.406 1173.85 238.576C1174.23 244.675 1173.23 250.783 1170.92 256.441C1168.61 262.1 1165.05 267.163 1160.51 271.252C1151.58 279.138 1140.01 283.376 1128.1 283.122C1116.58 283.297 1105.18 280.822 1094.78 275.888C1084.37 270.955 1075.24 263.695 1068.08 254.669C1057.34 241.111 1048.98 225.821 1043.36 209.456L1042.12 206.033H1022.56L1036.92 308.775H1055.46L1056.12 304.329C1056.59 301.451 1057.57 298.68 1059.01 296.149C1059.77 294.815 1061.68 294.148 1064.61 294.104C1072.6 295.997 1080.44 298.449 1088.09 301.439C1102.12 306.517 1116.91 309.193 1131.83 309.353C1159.71 309.353 1182.96 301.217 1201.01 285.168C1209.79 277.681 1216.8 268.346 1221.55 257.833C1226.3 247.319 1228.67 235.885 1228.49 224.349C1228.8 207.288 1223.32 190.626 1212.93 177.091C1202.79 164.598 1185.36 150.594 1161.13 135.7Z" fill="#1A1E22"/>
<path d="M1484.39 177.313C1474.29 164.598 1456.87 150.638 1432.64 135.7L1394.58 112.182C1383.31 105.737 1373.1 97.5951 1364.3 88.0414C1358.31 81.0546 1355.14 72.0809 1355.41 62.8783C1355.16 58.1115 1356.04 53.3522 1358 48.9979C1359.95 44.6436 1362.93 40.8207 1366.66 37.8485C1374.55 31.5842 1384.38 28.2808 1394.45 28.5124C1410.12 29.0908 1425.22 34.5287 1437.66 44.0726C1452.11 54.2979 1462.87 72.8813 1469.58 99.2893L1470.6 103.246H1490.79L1480.21 0.503906H1462.42L1461.44 4.50511C1460.83 7.69549 1459.56 10.7232 1457.71 13.3967C1455.71 14.8563 1453.23 15.5073 1450.78 15.2195C1443.2 13.4448 1435.77 11.1118 1428.55 8.23957C1416.62 3.62456 1404.02 1.01081 1391.25 0.503906C1365.95 0.503906 1345.28 8.37295 1329.76 23.8443C1322.12 31.4662 1316.11 40.5657 1312.11 50.5868C1308.1 60.6079 1306.18 71.3403 1306.46 82.1285C1306.6 100.353 1313.67 117.842 1326.25 131.032C1334.48 139.615 1343.79 147.087 1353.95 153.261L1390.93 176.335C1411.79 189.361 1425.52 199.142 1431.79 205.41C1436.2 209.73 1439.68 214.893 1442.04 220.592C1444.4 226.291 1445.59 232.408 1445.53 238.576C1445.91 244.675 1444.91 250.783 1442.6 256.441C1440.29 262.1 1436.73 267.163 1432.19 271.252C1423.26 279.138 1411.69 283.376 1399.78 283.122C1388.26 283.29 1376.86 280.813 1366.44 275.88C1356.03 270.947 1346.89 263.691 1339.72 254.669C1328.93 241.12 1320.52 225.83 1314.87 209.456L1313.62 206.033H1294.02L1308.42 308.775H1326.92L1327.63 304.329C1328.06 301.448 1329.02 298.674 1330.47 296.149C1331.27 294.815 1333.18 294.148 1336.12 294.104C1344.1 296.014 1351.94 298.465 1359.59 301.439C1373.62 306.525 1388.41 309.2 1403.34 309.353C1431.17 309.353 1454.46 301.217 1472.51 285.168C1481.29 277.681 1488.31 268.346 1493.06 257.833C1497.81 247.319 1500.17 235.885 1499.99 224.349C1500.26 207.356 1494.76 190.774 1484.39 177.313Z" fill="#1A1E22"/>
</svg>
