<svg width="710" height="468" viewBox="0 0 710 468" fill="none" xmlns="http://www.w3.org/2000/svg">
<g clip-path="url(#clip0_413_9)">
<path d="M498.689 14.4341C524.429 1.79209 537.185 3.45108 537.472 16.2651C537.816 32.9111 535.355 55.0471 533.581 71.0641C524.028 158.119 508.069 229.255 506.868 318.638C548.911 209.795 584.147 134.146 629.565 40.9761C643.981 11.2881 653.19 16.8371 665.03 11.5741C711.135 -8.96089 712.852 3.62312 706.844 28.7351C684.479 121.745 627.219 414.593 618.469 459.686C615.951 472.733 601.766 467.202 598.104 462.1C581.688 439.391 563.155 439.036 565.213 423.935C575.51 348.754 612.576 160.127 622.244 115.681C572.992 216.653 521.912 342.88 495.656 414.451C490.107 429.649 479.982 428.534 473.691 417.414C464.824 401.793 447.607 393.818 444.746 375.359C435.766 316.671 455.043 204.807 457.73 134.037C430.904 211.345 385.886 361.436 366.151 429.248C358.029 457.306 330.915 452.729 338.122 425.382C368.095 311.579 432.677 110.304 460.591 37.9441C467.172 20.8971 484.388 21.4691 498.689 14.4341Z" fill="#1A1E22"/>
<path d="M335.207 0.476285C326.513 -1.63972 301.287 11.9743 285.785 14.6623C280.866 15.5203 276.175 20.7253 274.516 24.4443C249.69 81.4743 227.439 135.838 208.162 185.363C183.508 189.573 154.679 195.116 122.417 202.363C145.526 143.085 168.865 84.6193 191.631 28.3903C202.842 0.704285 173.327 -1.92668 161.886 26.1023C147.013 62.5403 119.156 130.81 88.324 210.383C65.672 215.937 41.6479 222.286 16.5359 229.54C-1.71209 234.808 -2.45477 239.67 5.43923 250.613C9.78623 256.706 18.767 256.092 22.885 260.434C33.525 271.686 39.9889 285.145 59.0359 287.182C42.0469 332.628 25.0582 379.494 9.67117 424.62C0.00416565 452.946 27.5179 458.74 38.1009 428.766C55.1469 380.448 73.1083 331.546 91.5843 282.788C106.971 279.212 144.209 271.192 178.587 263.733C151.302 338.518 133.34 395.314 126.534 422.96C125.276 428.279 127.392 431.231 128.536 433.399C137.745 446.801 146.497 447.35 158.338 463.921C161.542 468.44 172.296 470.877 175.956 459.751C201.239 383.381 227.266 311.725 251.519 247.487C261.586 245.285 279.719 240.909 290.816 224.349C310.55 194.958 316.213 200.919 320.962 191.984C326.911 180.767 322.963 170.236 301.914 172.838C301.914 172.838 293.963 173.404 279.262 175.08C302.6 114.99 323.021 64.0233 337.722 25.1843C342.758 12.0313 343.387 2.42128 335.207 0.476285Z" fill="#1A1E22"/>
<path d="M300.772 390.213C306.206 403.947 323.195 399.788 316.731 383.212C310.152 366.325 293.793 315.49 289.502 299.113C283.668 277.045 308.951 283.08 296.138 297.507C285.156 309.913 277.833 314.884 257.527 338.474C237.907 361.246 243.227 390.797 264.22 397.324C287.901 404.691 308.781 378.596 321.708 359.451C334.235 340.912 322.107 330.038 309.466 340.998C301.343 348.045 291.962 358.867 282.466 364.702C274.744 369.398 268.681 364.353 278.978 350.179C290.933 333.768 304.318 320.017 314.271 304.509C334.578 272.905 294.421 254.687 277.146 275.216C267.879 286.159 270.225 296.902 272.742 306.122C276.804 320.891 291.905 368.037 300.772 390.213Z" fill="#1A1E22"/>
</g>
<defs>
<clipPath id="clip0_413_9">
<rect width="708.662" height="467.493" fill="white" transform="translate(0.668945 0.253418)"/>
</clipPath>
</defs>
</svg>
