<svg width="28" height="28" viewBox="0 0 28 28" fill="none" xmlns="http://www.w3.org/2000/svg">
<path fill-rule="evenodd" clip-rule="evenodd" d="M14 28C21.732 28 28 21.732 28 14C28 6.26801 21.732 0 14 0C6.26801 0 0 6.26801 0 14C0 21.732 6.26801 28 14 28ZM11.0788 7.13259C11.8067 7.10347 12.0497 7.09375 13.9165 7.09375C15.7832 7.09375 16.0263 7.10347 16.7542 7.13259L16.7656 7.13305C17.5025 7.17235 18.0035 7.29024 18.4456 7.45726C18.9074 7.6341 19.2905 7.86989 19.6737 8.25305C20.0568 8.64603 20.2926 9.02919 20.4695 9.48112C20.6463 9.92322 20.7642 10.4243 20.7937 11.1611L20.7941 11.1726C20.8233 11.9005 20.833 12.1435 20.833 14.0102C20.833 15.877 20.8233 16.12 20.7941 16.8479L20.7937 16.8594C20.7544 17.5962 20.6365 18.0973 20.4695 18.5394C20.2926 19.0011 20.0568 19.3843 19.6737 19.7674C19.2807 20.1506 18.8975 20.3864 18.4456 20.5632C18.0035 20.7401 17.5025 20.858 16.7656 20.8874L16.7542 20.8879C16.0263 20.917 15.7833 20.9267 13.9165 20.9267C12.0497 20.9267 11.8067 20.917 11.0788 20.8879L11.0674 20.8874C10.3305 20.8481 9.82947 20.7302 9.38737 20.5632C8.92561 20.3864 8.54246 20.1506 8.1593 19.7674C7.77614 19.3745 7.54035 18.9913 7.36351 18.5394C7.18667 18.0973 7.06877 17.5962 7.0393 16.8594L7.03884 16.8479C7.00972 16.12 7 15.877 7 14.0102C7 12.1435 7.00972 11.9005 7.03884 11.1726L7.0393 11.1611C7.0786 10.4243 7.19649 9.92322 7.36351 9.48112C7.54035 9.01936 7.77614 8.63621 8.1593 8.25305C8.55228 7.86989 8.93544 7.6341 9.38737 7.45726C9.82947 7.28042 10.3305 7.16252 11.0674 7.13305L11.0788 7.13259ZM16.6766 8.37955C15.9733 8.35102 15.7378 8.34147 13.9165 8.34147C12.0695 8.34147 11.8533 8.34147 11.1263 8.38077C10.4484 8.41024 10.0849 8.51831 9.8393 8.61656C9.51509 8.74428 9.28912 8.89165 9.04351 9.13726C8.7979 9.38287 8.65053 9.60884 8.52281 9.93305C8.43439 10.1787 8.31649 10.5422 8.28702 11.2201L8.2858 11.2501C8.25727 11.9534 8.24772 12.1889 8.24772 14.0102C8.24772 15.8315 8.25727 16.0671 8.2858 16.7703L8.28702 16.8004C8.31649 17.4783 8.42456 17.8418 8.52281 18.0874C8.65053 18.4116 8.7979 18.6376 9.04351 18.8832C9.28912 19.1288 9.51509 19.2762 9.8393 19.4039C10.0849 19.4923 10.4484 19.6102 11.1263 19.6397L11.1564 19.6409C11.8597 19.6695 12.0952 19.679 13.9165 19.679C15.7378 19.679 15.9733 19.6695 16.6766 19.6409L16.7067 19.6397C17.3846 19.6102 17.7481 19.5022 17.9937 19.4039C18.3179 19.2762 18.5439 19.1288 18.7895 18.8832C19.0351 18.6376 19.1825 18.4116 19.3102 18.0874C19.3986 17.8418 19.5165 17.4783 19.546 16.8004L19.5472 16.7703C19.5757 16.0671 19.5853 15.8315 19.5853 14.0102C19.5853 12.1889 19.5757 11.9534 19.5472 11.2501L19.546 11.2201C19.5165 10.5422 19.4084 10.1787 19.3102 9.93305C19.1825 9.60884 19.0351 9.38287 18.7895 9.13726C18.5439 8.89165 18.3179 8.74428 17.9937 8.61656C17.7481 8.52814 17.3846 8.41024 16.7067 8.38077L16.6766 8.37955ZM10.3698 14.0004C10.3698 12.0453 11.9614 10.4538 13.9165 10.4538C15.8716 10.4538 17.4632 12.0453 17.4632 14.0004C17.4632 15.9555 15.8716 17.5471 13.9165 17.5471C11.9614 17.5471 10.3698 15.9555 10.3698 14.0004ZM11.6175 14.0004C11.6175 15.2678 12.6491 16.2994 13.9165 16.2994C15.1839 16.2994 16.2154 15.2678 16.2154 14.0004C16.2154 12.733 15.1839 11.7015 13.9165 11.7015C12.6491 11.7015 11.6175 12.733 11.6175 14.0004ZM17.6105 11.1415C18.0625 11.1415 18.4358 10.778 18.4358 10.3162C18.4358 9.85445 18.0625 9.48112 17.6105 9.49094C17.1586 9.49094 16.7853 9.85445 16.7853 10.3162C16.7853 10.7681 17.1488 11.1415 17.6105 11.1415Z" fill="white"/>
</svg>
