<svg width="28" height="28" viewBox="0 0 28 28" fill="none" xmlns="http://www.w3.org/2000/svg">
<path fill-rule="evenodd" clip-rule="evenodd" d="M14 28C21.732 28 28 21.732 28 14C28 6.26801 21.732 0 14 0C6.26801 0 0 6.26801 0 14C0 21.732 6.26801 28 14 28ZM10.5475 11.5836V20.2095V20.2194H7.67874V11.5836H10.5475ZM20.8928 15.258V20.2095L18.0338 20.2194V15.6018C18.0338 14.4425 17.6212 13.6467 16.5798 13.6467C15.784 13.6467 15.3124 14.1871 15.1061 14.698C15.0275 14.8748 15.0079 15.1401 15.0079 15.3955V20.2194H12.1391C12.1391 20.2194 12.1784 12.3892 12.1391 11.5836H15.0079V12.8018C15.391 12.2124 16.0689 11.3773 17.5917 11.3773C19.478 11.3773 20.8928 12.6053 20.8928 15.258ZM7.51172 8.9113C7.51172 8.06639 8.15032 7.41797 9.13277 7.41797C10.1152 7.41797 10.7243 8.06639 10.7342 8.9113C10.7342 9.73657 10.1152 10.4046 9.11312 10.4046H9.09347C8.13067 10.4046 7.51172 9.73657 7.51172 8.9113Z" fill="white"/>
</svg>
