<svg width="1500" height="540" viewBox="0 0 1500 540" fill="none" xmlns="http://www.w3.org/2000/svg">
<g clip-path="url(#clip0_1379_4)">
<path d="M175.01 448.459C173.736 312.418 175.264 139.946 208.892 12.0572C210.931 6.1977 208.383 0.0834961 201.759 0.0834961C196.919 0.0834961 194.626 2.37632 193.097 8.23577C163.545 135.36 160.234 265.542 159.979 395.214C149.279 354.708 138.07 306.303 123.294 239.302C109.537 176.631 101.894 127.463 90.6844 28.1069C89.6654 19.4452 85.0798 14.8595 77.437 14.8595C69.2847 14.8595 64.6991 20.4642 64.6991 30.145C64.6991 49.2519 66.7371 78.2944 69.5395 107.592C67.7562 216.119 59.3491 365.662 33.109 461.961C31.3257 468.075 28.7781 471.896 26.9948 471.896C23.1734 471.896 19.8615 463.235 14.2569 437.759C13.2378 434.447 11.4545 432.154 7.12361 432.154C2.79271 432.154 -0.0096333 435.976 1.0094 442.09C14.7664 509.091 17.5687 525.905 30.0519 525.905C38.7137 525.905 43.8089 519.282 47.6302 503.996C70.049 415.085 77.1822 295.349 81.2584 191.662C98.3272 295.858 124.058 402.602 148.769 480.304C152.081 490.749 158.195 495.08 166.348 495.08C179.086 495.08 185.455 485.653 181.124 468.075C178.831 461.197 177.048 454.828 175.01 448.459ZM329.648 175.103C338.31 175.103 351.557 159.817 351.557 148.353C351.557 137.398 343.405 127.972 334.998 127.972C322.515 127.972 319.712 147.589 319.712 156.505C319.712 167.969 322.515 175.103 329.648 175.103ZM772.928 352.415C772.928 348.084 770.635 344.772 766.304 344.772C762.483 344.772 760.19 347.065 759.171 351.905C755.859 374.324 753.821 380.438 750.509 380.438C743.886 380.438 741.848 350.377 741.848 321.079C741.848 299.68 740.829 262.485 740.829 213.062C740.829 208.731 739.045 205.419 735.224 205.419C731.402 205.419 729.619 207.712 727.581 212.043C706.946 258.154 688.348 313.182 675.61 371.522C674.591 340.696 673.318 298.406 673.318 269.109C673.318 240.066 672.808 218.666 671.789 206.438C671.279 198.795 667.968 194.974 661.853 194.974C655.23 194.974 651.408 199.814 651.408 206.948C651.408 221.214 651.408 233.952 650.389 245.416C647.077 285.923 641.727 316.239 630.518 355.727C627.206 367.191 623.385 373.305 619.563 373.305C613.449 373.305 611.411 343.753 611.411 310.125C611.411 273.44 613.195 240.576 615.233 216.374C615.742 210.769 612.43 208.221 608.099 208.221C603.768 208.221 600.966 211.024 599.947 215.355C599.947 215.609 599.692 216.119 599.692 216.374C595.871 213.316 591.54 211.533 587.464 211.533C557.402 211.533 536.003 259.173 530.907 337.129C529.888 350.377 528.615 392.667 519.953 392.667C510.527 392.667 506.705 332.798 506.705 293.311C506.705 268.09 508.234 254.842 509.508 222.997C510.017 212.552 510.527 197.776 504.158 197.776C499.827 197.776 494.222 206.693 487.089 224.781C473.587 258.918 465.689 288.47 457.537 338.913C457.027 327.448 456.773 314.456 456.773 301.463C456.263 268.599 456.773 246.69 453.97 214.081C453.461 208.731 452.187 205.419 448.366 205.419C445.563 205.419 443.016 206.438 439.704 213.571C427.221 240.066 417.03 266.561 407.859 297.896C407.859 285.923 408.369 271.147 408.369 269.109C408.369 238.283 407.349 219.176 405.566 200.579C404.547 192.936 400.216 188.605 394.612 188.605C387.988 188.605 383.657 192.936 381.874 201.343C373.721 237.519 343.915 390.629 325.827 390.629C323.024 390.629 321.496 385.024 321.496 374.579C321.496 349.358 324.298 308.596 338.565 216.628C339.584 210.514 336.781 207.967 332.45 207.967H324.298C316.655 207.967 310.541 213.316 308.503 221.724C304.682 238.792 301.879 268.344 296.02 314.456C290.67 358.274 264.175 413.302 248.38 413.302C240.737 413.302 236.406 407.952 233.095 394.705C232.33 392.667 231.821 387.317 231.311 379.674C233.604 375.598 235.897 371.522 237.935 367.445C261.628 322.353 275.384 276.497 275.384 243.378C275.384 219.176 268.761 207.712 255.004 207.712C223.159 207.712 198.447 269.109 198.447 347.574C198.447 365.407 200.995 381.967 205.581 395.978C201.25 402.093 196.919 408.462 191.824 415.085C190.295 416.869 189.531 419.416 189.531 421.709C189.531 426.04 192.843 428.333 196.155 428.333C198.447 428.333 200.485 427.823 202.778 424.511C205.581 420.69 208.892 416.104 211.95 411.009C219.592 425.53 229.783 434.447 241.247 434.447C259.335 434.447 282.008 404.385 295.001 366.681C295.001 377.126 295.51 388.845 296.529 403.366C298.313 425.276 303.153 434.192 313.089 434.192C319.712 434.192 329.139 424.257 336.272 409.481C353.595 374.324 366.588 330.251 384.676 243.378V247.709C384.676 307.577 378.052 370.757 367.098 426.549C366.079 431.39 367.607 434.192 371.938 434.192H378.052C386.969 434.192 393.338 429.352 394.612 421.709C398.433 402.093 400.726 387.062 404.547 362.86C409.642 331.524 417.54 298.151 426.966 269.363C426.711 280.573 426.456 292.801 426.456 305.284C426.456 344.262 430.278 383.241 437.411 421.2C439.194 430.626 442.761 433.937 448.366 433.937C453.716 433.937 457.282 430.116 458.301 420.69C461.613 380.948 469.256 332.289 479.191 285.923C479.956 329.741 479.956 349.103 484.541 377.381C490.656 414.066 500.336 433.937 511.291 433.937C519.698 433.937 525.812 422.728 532.436 392.412C537.276 416.104 547.721 433.937 558.421 433.937C569.885 433.937 582.878 411.773 590.776 394.959C594.088 413.812 602.749 431.645 609.373 431.645C615.997 431.645 622.111 422.983 629.244 403.621C639.435 373.56 645.549 353.179 650.389 328.467C649.37 355.981 650.135 387.826 652.682 403.621C656.503 425.53 659.306 433.937 667.968 433.937C675.101 433.937 676.884 429.607 678.413 421.454C691.151 350.122 702.105 314.201 713.824 280.063C713.315 294.075 713.06 308.087 713.06 321.589C713.06 348.339 714.079 371.522 715.353 384.005C720.193 418.652 726.307 433.937 735.733 433.937C756.878 435.211 772.928 366.172 772.928 352.415ZM230.292 331.525C230.292 309.106 241.247 224.016 255.004 224.016C259.844 224.016 261.628 230.131 261.628 245.416C261.628 268.344 250.163 312.927 235.897 345.281C234.368 348.848 232.585 352.669 230.547 356.491C230.547 348.593 230.292 340.186 230.292 331.525ZM572.688 400.564C564.026 400.564 557.912 369.738 557.912 325.92C557.912 275.478 574.471 223.252 590.776 223.252C593.578 223.252 595.616 224.271 597.654 227.328C590.521 262.23 587.209 293.311 587.209 329.232C587.209 343.498 587.973 358.784 588.992 375.088C584.152 388.336 576.509 400.564 572.688 400.564Z" fill="#1A1E22"/>
<path d="M1493.9 353.433C1484.98 348.338 1473.51 344.007 1462.81 341.714C1458.23 321.333 1453.13 298.66 1453.13 271.146C1453.13 248.727 1455.94 233.187 1457.97 212.551C1458.48 206.947 1455.68 203.635 1450.84 203.635C1445.24 203.635 1442.69 206.437 1441.92 211.278C1431.99 266.051 1422.31 294.074 1410.59 331.524C1406.26 344.262 1391.99 387.061 1383.08 387.061C1379.25 387.061 1375.94 381.711 1375.94 360.057C1375.94 318.786 1384.6 267.834 1387.41 222.232C1387.92 214.589 1383.08 209.749 1375.43 209.749C1368.3 209.749 1363.46 214.589 1362.95 222.996C1361.17 247.199 1357.34 277.77 1350.98 315.729C1342.82 362.349 1332.38 387.571 1320.91 387.571C1315.31 387.571 1311.49 380.437 1311.49 368.464C1311.49 303.755 1327.28 219.175 1329.07 204.399C1329.58 201.087 1328.05 198.794 1324.23 198.794H1316.58C1308.43 198.794 1302.83 202.616 1301.3 213.57C1299.77 224.016 1297.99 240.575 1293.15 267.834C1277.35 357.254 1258.5 400.563 1234.55 400.563C1222.07 400.563 1213.66 384.768 1213.66 362.095C1213.66 280.317 1229.46 222.742 1250.35 222.742C1255.19 222.742 1260.28 229.365 1260.28 240.83C1260.28 261.21 1237.1 267.07 1237.1 283.12C1237.1 290.762 1241.94 296.367 1249.58 296.367C1260.54 296.367 1273.27 280.572 1273.27 241.594C1273.27 219.685 1266.14 208.22 1250.09 208.22C1220.54 208.22 1194.55 253.822 1187.68 329.995C1184.87 362.859 1172.9 386.042 1161.44 386.042C1155.32 386.042 1152.01 377.38 1152.01 361.84C1152.01 312.417 1166.28 254.841 1178.76 223.506C1179.78 221.213 1179.78 219.175 1177.74 217.901L1172.9 214.589C1171.12 213.061 1169.08 212.806 1166.79 212.806C1162.96 212.806 1160.67 213.825 1157.87 216.628C1148.95 225.544 1140.8 230.384 1134.69 230.384C1127.55 230.384 1124.24 223.251 1124.24 207.456C1124.24 202.106 1121.44 198.794 1116.09 198.794C1110.74 198.794 1107.43 202.616 1107.43 208.73C1107.43 255.86 1105.13 276.751 1102.08 313.436C1098.26 359.547 1091.63 386.297 1082.97 386.297C1074.05 386.297 1072.52 329.231 1072.52 282.61C1072.52 260.191 1073.54 233.187 1074.82 216.882C1075.33 211.532 1072.52 208.22 1067.68 208.22C1063.35 208.22 1060.55 210.513 1059.53 215.863C1059.28 216.882 1059.02 217.901 1059.02 219.175C1054.69 215.099 1048.58 212.551 1041.44 212.551C1013.93 212.551 989.983 273.439 989.983 335.6C989.983 365.152 980.557 400.308 972.404 400.308C968.583 400.308 964.762 384.513 962.469 359.038C951.514 252.039 950.495 124.15 956.354 41.8631C956.864 34.7298 955.335 31.418 951.005 31.418C947.693 31.418 945.4 33.2013 943.871 39.5702C922.726 130.264 900.308 233.951 887.315 301.462C885.277 274.458 879.927 226.054 872.539 173.319C865.406 122.367 856.744 53.582 854.961 14.0944C854.451 4.6683 850.12 0.337402 842.477 0.337402C833.816 0.337402 829.739 5.94209 830.504 15.6229C832.287 33.2013 833.816 51.0344 835.344 68.358C832.032 177.649 806.556 345.535 782.354 466.8C780.826 473.934 778.023 480.048 771.909 480.048C767.069 480.048 762.483 473.934 758.152 459.667C756.624 455.336 754.84 453.553 751.019 453.553C745.669 453.553 743.376 458.903 744.905 463.998C762.993 529.981 764.776 540.171 774.966 540.171C782.1 540.171 785.921 534.057 789.742 517.752C807.575 444.127 831.777 282.1 843.496 165.676C844.515 178.668 845.28 190.133 845.789 199.049C853.432 317.002 856.744 374.578 864.896 447.184C865.406 451.515 867.189 454.827 871.52 454.827C876.87 454.827 878.653 450.496 879.163 447.184C892.665 351.65 906.167 270.636 920.179 200.832C922.472 293.055 927.312 381.966 931.898 417.632C936.738 453.298 942.852 467.565 952.278 467.565C963.997 467.565 982.085 432.918 992.53 393.43C996.861 417.377 1008.33 435.21 1021.32 435.21C1026.92 435.21 1031.76 431.389 1038.39 421.963C1042.21 416.358 1046.28 408.97 1051.12 398.016C1054.69 419.925 1065.39 438.013 1076.09 438.013C1095.2 438.013 1108.95 396.742 1115.07 316.238C1117.11 291.781 1118.89 271.655 1120.42 255.096C1123.48 258.663 1127.55 260.701 1132.39 260.701C1139.02 260.701 1146.66 257.134 1156.59 248.982C1136.72 304.519 1125.26 359.292 1125.26 398.525C1125.26 422.218 1131.37 435.21 1143.35 435.21C1158.38 435.21 1172.39 415.594 1185.89 375.342C1187.68 409.225 1204.23 435.21 1225.12 435.21C1245.25 435.21 1266.14 405.658 1283.72 354.452C1283.21 364.897 1282.7 373.049 1282.7 379.673C1282.7 396.232 1285.5 435.21 1306.9 435.21C1321.42 435.21 1331.87 418.651 1349.7 361.585C1349.19 370.247 1348.94 379.928 1348.94 388.59C1348.94 417.632 1356.07 432.918 1369.32 432.918C1381.55 432.918 1390.46 422.472 1402.69 390.628C1404.47 416.358 1420.02 435.21 1440.65 435.21C1458.74 435.21 1470.71 417.632 1470.71 390.882V389.354C1470.2 374.323 1468.42 365.661 1466.13 355.98C1477.34 358.528 1483.7 363.114 1488.29 366.426C1489.82 367.445 1491.09 367.954 1492.62 367.954C1496.44 367.954 1499.75 365.661 1499.75 361.84C1499.5 358.528 1498.74 356.235 1493.9 353.433ZM1035.07 400.563C1023.61 400.563 1017.5 376.871 1017.5 332.543C1017.5 269.363 1028.96 224.016 1045.52 224.016C1050.11 224.016 1053.93 226.563 1056.98 231.658C1051.63 264.777 1049.34 299.169 1049.34 335.855C1049.34 355.471 1049.6 368.209 1050.11 378.909C1045.01 390.628 1038.39 400.563 1035.07 400.563ZM1437.85 339.676V340.95C1429.7 342.223 1422.82 345.026 1417.21 349.611C1425.11 326.174 1430.97 307.322 1435.81 289.743C1435.81 305.538 1436.32 321.843 1437.85 339.676ZM1429.19 402.346C1422.05 402.346 1415.94 392.92 1415.94 382.73C1415.94 365.407 1423.07 356.745 1439.38 354.707C1440.65 365.661 1441.67 374.833 1441.67 383.749C1441.67 395.213 1436.83 402.346 1429.19 402.346Z" fill="#1A1E22"/>
</g>
<defs>
<clipPath id="clip0_1379_4">
<rect width="1499" height="539.834" fill="white" transform="translate(0.5 0.0834961)"/>
</clipPath>
</defs>
</svg>
