<svg width="1250" height="228" viewBox="0 0 1250 228" fill="none" xmlns="http://www.w3.org/2000/svg">
<g clip-path="url(#clip0_264_84)">
<path d="M1136.92 35.8252H1136.31H1135.69C1118.24 35.8252 1060.98 41.3368 1060.67 112.987C1060.67 187.7 1123.45 191.375 1136 191.375H1136.61C1144.57 191.375 1171.83 189.844 1191.42 170.553C1205.2 157.08 1211.94 137.483 1211.94 112.987C1211.63 41.3368 1154.37 35.8252 1136.92 35.8252ZM1159.27 161.061C1154.98 164.735 1147.94 169.022 1137.22 169.022H1135.08C1124.36 169.022 1117.32 164.735 1113.03 161.061C1102.32 151.569 1096.81 134.421 1096.81 110.232C1097.11 62.7707 1120.69 55.7282 1134.78 55.7282H1136.92C1151 55.7282 1174.58 62.7707 1174.89 110.232C1175.5 134.421 1169.99 151.569 1159.27 161.061Z" fill="#1A1E22"/>
<path d="M232.099 214.646C218.32 209.44 198.111 194.436 186.169 180.351C171.472 163.51 135.953 116.356 135.646 116.049C130.747 109.619 125.236 102.27 119.418 94.6154C103.802 73.1814 86.042 49.2979 68.2825 34.9065V191.068H89.7164V110.232L90.0226 110.844C95.8404 118.193 101.964 126.154 108.088 134.115C118.193 146.976 128.298 160.448 136.871 170.247C142.689 176.983 157.999 193.212 162.286 196.886C181.882 215.564 213.727 227.506 245.266 227.506C259.045 227.506 272.211 225.363 284.459 221.382V220.463C279.56 221.382 274.049 221.994 268.537 221.994C256.595 221.382 244.041 219.239 232.099 214.646Z" fill="#1A1E22"/>
<path d="M97.0652 47.1547C111.763 63.6895 148.507 110.844 149.119 111.457C154.018 117.887 159.53 125.236 165.348 132.891C180.964 154.325 198.723 178.208 216.177 192.599V35.8253H195.049V116.968L194.437 116.356C188.619 109.007 182.495 101.046 176.371 93.0846C166.266 80.2243 156.162 66.7515 147.588 56.9531C141.77 50.2167 125.236 33.9881 120.949 30.3137C101.352 11.6356 69.5073 0 37.9687 0C24.1898 0 12.248 2.1434 0 6.43019V7.34879C4.89919 6.12399 10.4108 5.81779 16.2286 5.81779C28.1704 5.81779 39.8059 8.26739 51.4415 12.8604C65.2205 17.7596 85.4296 32.7633 97.0652 47.1547Z" fill="#1A1E22"/>
<path d="M925.029 115.437C907.575 100.433 888.285 96.7589 873.587 86.6544C863.482 78.387 863.789 67.3638 869.3 61.8522C881.854 48.0732 906.963 53.5848 913.393 55.1158C921.048 56.953 925.028 59.0964 932.071 62.4646V45.0112C901.451 35.8253 852.459 27.2517 833.475 58.484C826.432 71.3444 824.595 94.6156 845.11 108.395C865.626 124.623 901.145 132.278 905.126 145.751C907.881 153.1 904.819 160.142 899.92 165.041C881.854 182.189 850.622 171.778 831.944 163.204V181.882C852.459 191.068 878.18 193.518 901.145 188.619C916.761 184.638 934.521 170.859 936.97 153.406C939.726 135.952 936.358 124.929 925.029 115.437Z" fill="#1A1E22"/>
<path d="M1038.32 115.437C1020.87 100.433 1001.58 96.7589 986.881 86.6544C976.776 78.387 977.083 67.3638 982.594 61.8522C995.148 48.0732 1020.26 53.5848 1026.69 55.1158C1034.34 56.953 1038.32 59.0964 1045.37 62.4646V45.0112C1014.75 35.8253 965.753 27.2517 946.769 58.484C939.726 71.3444 937.889 94.6156 958.404 108.395C978.92 124.623 1014.44 132.278 1018.42 145.751C1021.18 153.1 1018.11 160.142 1013.21 165.041C994.842 182.189 963.916 171.778 945.238 163.204V181.882C965.753 191.068 991.474 193.518 1014.44 188.619C1030.06 184.638 1047.81 170.859 1050.57 153.406C1052.71 135.952 1049.35 124.929 1038.32 115.437Z" fill="#1A1E22"/>
<path d="M722.018 187.088H820.308V169.329H756.006V120.337H807.448V103.19H756.006V57.872H820.308V40.1124H722.018V187.088Z" fill="#1A1E22"/>
<path d="M439.702 115.437C422.249 100.433 402.958 96.7589 388.261 86.6544C378.156 78.387 378.462 67.3638 383.974 61.8522C396.528 48.0732 421.637 53.5848 428.067 55.1158C435.722 56.953 439.702 59.0964 446.745 62.4646V45.0112C416.125 35.8253 367.133 27.2517 348.149 58.484C341.106 71.3444 339.269 94.6156 359.784 108.395C380.3 124.623 415.819 132.278 419.799 145.751C422.555 153.1 419.493 160.142 414.594 165.041C396.528 182.189 365.296 171.778 346.618 163.204V181.882C367.133 191.068 392.854 193.518 415.819 188.619C431.435 184.638 449.195 170.859 451.95 153.406C454.094 135.952 450.726 124.929 439.702 115.437Z" fill="#1A1E22"/>
<path d="M236.998 187.088H335.595V169.329H270.986V120.337H322.428V103.19H270.986V57.872H335.595V40.1124H236.998V187.088Z" fill="#1A1E22"/>
<path d="M531.562 38.5814H466.954V188.925H501.248C501.248 188.925 501.248 185.557 501.248 179.739L500.636 133.809C500.636 133.809 552.078 137.178 567.694 116.356C579.023 103.19 579.942 82.6741 575.043 66.1394C568.612 47.4612 550.547 38.8876 531.562 38.5814ZM538.911 106.252C529.725 116.356 514.109 114.825 500.636 113.906V57.872C500.636 57.872 528.194 51.748 539.83 67.058C546.26 75.3254 546.566 95.8407 538.911 106.252Z" fill="#1A1E22"/>
<path d="M688.949 116.05C699.972 103.189 700.891 82.98 696.298 66.7515C690.174 48.6857 672.414 40.1121 653.736 39.8059H590.353V187.088H624.034L623.728 132.891C623.728 132.891 629.852 133.503 639.957 132.891L672.414 187.394H709.464L672.108 126.767C678.232 124.317 685.274 120.949 688.949 116.05ZM661.697 106.251C652.511 116.05 637.201 114.825 624.341 113.906V58.7903C624.341 58.7903 651.286 52.6663 662.616 67.6701C669.046 75.9374 669.352 96.1466 661.697 106.251Z" fill="#1A1E22"/>
<path d="M1230.92 154.324C1220.2 154.324 1211.63 162.592 1211.63 173.002C1211.63 183.413 1220.2 191.681 1230.92 191.681C1241.03 191.681 1249.6 183.719 1249.6 173.002C1249.6 162.592 1241.03 154.324 1230.92 154.324ZM1230.92 189.537C1221.43 189.537 1213.47 182.495 1213.47 173.002C1213.47 163.816 1221.12 156.468 1230.92 156.468C1240.11 156.468 1247.76 164.123 1247.76 173.002C1247.76 182.495 1240.11 189.537 1230.92 189.537Z" fill="#1A1E22"/>
<path d="M1236.13 173.002C1236.74 172.39 1239.5 171.471 1239.5 167.797C1239.5 164.123 1237.05 161.979 1232.76 161.979H1222.65V182.801H1226.02V174.533H1231.84C1235.21 174.533 1236.13 176.064 1236.13 179.739C1236.13 181.27 1236.13 182.188 1236.74 183.107H1240.72C1239.8 182.188 1239.8 179.739 1239.8 177.289C1239.5 173.921 1237.66 173.002 1236.13 173.002ZM1232.45 171.471H1226.33V164.735H1232.45C1234.29 164.735 1236.43 165.041 1236.43 168.103C1236.13 170.247 1234.9 171.471 1232.45 171.471Z" fill="#1A1E22"/>
</g>
<defs>
<clipPath id="clip0_264_84">
<rect width="1249.6" height="227.2" fill="white"/>
</clipPath>
</defs>
</svg>
