<svg width="1108" height="556" viewBox="0 0 1108 556" fill="none" xmlns="http://www.w3.org/2000/svg">
<path fill-rule="evenodd" clip-rule="evenodd" d="M57.9508 0.164116C38.7684 0.164116 19.5859 0.164116 0.403448 0.156738C0.381314 46.5483 0.384081 92.9315 0.386847 139.319C0.38777 154.782 0.388692 170.246 0.388692 185.71H46.4856C46.4856 169.64 46.4872 153.572 46.4889 137.504V137.473V137.47V137.466V137.463V137.46V137.457V137.453V137.45C46.4922 105.337 46.4954 73.2277 46.4856 41.1186C56.2536 41.0965 66.0217 41.1002 75.7915 41.1039H75.7951C85.5643 41.1076 95.3354 41.1113 105.11 41.0891C113.491 41.0449 122.212 43.1107 128.808 48.5113C140.45 58.25 142.383 76.3553 135.964 89.547C131.272 99.5661 120.604 106.398 109.552 106.413C103.126 106.389 96.6996 106.396 90.2735 106.404C80.8814 106.415 71.4893 106.427 62.0972 106.339C61.9647 114.71 61.9839 123.075 62.003 131.441C62.0138 136.127 62.0245 140.813 62.0086 145.501C66.0749 145.512 70.1391 145.502 74.2028 145.493H74.2036H74.2043H74.205H74.2058H74.2065H74.2072H74.208H74.2087C81.1144 145.477 88.0186 145.461 94.9287 145.545C105.405 146.017 116.723 148.334 124.411 156.022C131.67 163.399 133.958 174.097 134.297 184.131C134.321 191.695 134.315 199.259 134.309 206.823C134.303 213.307 134.298 219.79 134.312 226.274C141.262 226.28 148.212 226.278 155.162 226.276C164.428 226.274 173.695 226.271 182.961 226.288C183.006 208.788 182.991 191.288 182.976 173.787C182.888 164.299 180.792 154.575 175.244 146.725C168.206 136.278 156.74 129.697 144.833 126.303C156.224 122.29 166.996 115.812 174.683 106.354C184.334 94.8295 189.026 79.5721 188.554 64.6393C189.07 48.1719 181.456 32.1029 169.489 21.0066C155.073 7.4018 135.197 0.333807 115.498 0.171494C96.3157 0.164116 77.1333 0.164116 57.9508 0.164116ZM630.812 0.156738C614.95 0.171494 599.102 0.171494 583.255 0.156738C583.233 46.6492 583.235 93.1334 583.238 139.622V139.623V139.624V139.626V139.627V139.629V139.63V139.631V139.633C583.239 155.109 583.24 170.586 583.24 186.064H653.979L654.761 186.069C667.438 186.143 680.392 186.218 692.58 182.242C717.325 174.747 739.444 155.121 745.258 129.314C749.375 108.656 745.169 86.0941 732.568 69.0365C720.026 51.8461 699.102 40.6465 677.691 41.0891C672.586 41.1113 667.48 41.1076 662.375 41.1039C657.27 41.1002 652.164 41.0965 647.059 41.1186C647.066 47.6452 647.066 54.1718 647.066 60.7002V60.862C647.066 67.4307 647.066 74.0012 647.073 80.5755C650.222 80.6762 653.382 80.6188 656.544 80.5615C662.182 80.4591 667.825 80.3568 673.412 81.1509C689.88 84.0431 700.991 101.676 698.423 117.834C696.933 133.165 682.915 146.475 667.348 146.253C661.255 146.246 655.166 146.246 649.079 146.246H649.042C642.964 146.246 636.888 146.246 630.812 146.238C630.822 113.926 630.819 81.6138 630.816 49.3015V48.8507C630.814 32.6193 630.812 16.388 630.812 0.156738ZM956.929 0.171223C972.909 0.156467 988.89 0.156467 1004.89 0.171223C1004.89 9.99476 1004.88 19.8199 1004.88 29.6462V29.6495V29.6527V29.656V29.6592V29.6625V29.6657V29.669C1004.88 49.34 1004.88 69.0154 1004.89 88.6908C1008.3 88.5698 1011.74 88.6349 1015.18 88.7C1021.8 88.8254 1028.43 88.951 1034.96 87.7465C1044.25 85.8282 1051.78 78.6717 1055 69.8625C1058.34 61.8326 1058.56 53.0754 1058.77 44.4873L1058.77 44.4767C1058.8 43.205 1058.83 41.937 1058.88 40.6757C1068.3 40.7731 1077.72 40.7589 1087.14 40.7448C1093.42 40.7353 1099.71 40.7259 1105.99 40.7495C1105.97 41.7028 1105.94 42.6602 1105.92 43.6207L1105.92 43.6777C1105.58 58.1013 1105.22 73.2224 1097.74 85.9758C1090.91 97.8689 1078.01 104.45 1065.41 108.508C1080.33 112.698 1094.85 121.699 1101.52 136.204C1107.49 148.038 1107.29 161.174 1107.08 174.145C1107.02 178.028 1106.96 181.896 1107.07 185.71H1059.5C1059.23 181.672 1059.36 177.523 1059.49 173.36V173.357C1059.82 163.386 1060.14 153.332 1054.94 144.527C1049.24 134.212 1037.33 129.018 1025.99 128.28C1021.68 128.1 1017.36 128.129 1013.05 128.159C1010.33 128.178 1007.6 128.197 1004.89 128.162C1004.87 147.345 1004.87 166.527 1004.89 185.695C988.89 185.71 972.909 185.71 956.929 185.695C956.939 144.467 956.936 103.24 956.932 62.0125C956.931 41.3987 956.929 20.785 956.929 0.171223ZM899.175 49.8985C877.868 38.5513 852.532 36.4855 829.026 40.6171C810.272 44.0257 792.181 53.3218 780.185 68.3874C765.857 86.3894 761.681 111.327 767.244 133.416C772.659 154.856 788.861 172.622 808.722 181.844C829.425 191.568 853.388 193.118 875.566 188.204C894.586 183.94 912.677 173.433 923.891 157.217C937.201 138.344 939.812 113.245 933.379 91.3621C928.155 73.6552 915.436 58.5453 899.175 49.8985ZM812.131 116.55C810.906 98.9023 823.626 81.6823 840.742 77.4032C859.143 71.9878 880.243 82.8628 886.706 100.88C894.084 118.911 884.891 141.207 867.317 149.323C855.896 154.93 841.746 154.31 830.945 147.567C820.055 141.192 812.824 129.122 812.131 116.55ZM215.734 74.8067C228.217 54.7094 251.045 41.5325 274.742 41.1489C293.796 41.0849 312.845 41.0945 331.891 41.1041H331.893C343.614 41.11 355.334 41.1158 367.054 41.1046C366.97 46.4887 367.016 51.8878 367.063 57.2856C367.138 66.0449 367.213 74.8007 366.729 83.4831C360.773 92.9574 354.733 102.385 348.693 111.812L348.693 111.812L348.693 111.812L348.693 111.812L348.693 111.813L348.692 111.813L348.691 111.816C344.572 118.244 340.454 124.672 336.362 131.115C330.356 131.097 324.352 131.105 318.35 131.112H318.349H318.348H318.346H318.345H318.344C309.071 131.124 299.801 131.136 290.531 131.056C292.416 127.922 294.302 124.788 296.188 121.655L296.203 121.63L296.218 121.605C304.438 107.951 312.66 94.2926 320.765 80.5762C315.48 80.5635 310.195 80.5672 304.908 80.5708H304.908H304.907H304.906H304.905H304.905H304.901C297.852 80.5756 290.8 80.5804 283.743 80.5467C272.588 80.1778 261.772 86.6408 256.017 96.0697C249.112 107.018 249.525 122.114 257.198 132.59C263.38 141.591 274.255 146.815 285.101 146.623C294.204 146.623 303.31 146.621 312.416 146.62C330.629 146.616 348.845 146.613 367.054 146.623C367.054 151.005 367.056 155.388 367.057 159.77V159.831C367.061 168.576 367.064 177.32 367.054 186.065C353.899 186.072 340.745 186.072 327.59 186.072C314.435 186.072 301.28 186.072 288.126 186.08L287.301 186.081C276.763 186.097 266.008 186.114 255.855 182.922C235.241 176.902 217.918 160.936 209.979 141.016C201.244 119.708 203.339 94.2695 215.734 74.8067ZM460.767 41.1037C445.746 41.266 430.754 46.0469 418.713 55.1069C402.438 66.9705 391.637 85.9907 389.733 106.044C387.372 127.484 395.148 149.912 410.672 164.978C423.716 178.362 442.308 185.931 460.959 185.946C479.966 186.131 498.973 186.101 517.98 186.072C529.281 186.054 540.583 186.037 551.884 186.064C551.87 180.081 551.872 174.101 551.874 168.123V168.122V168.122V168.121V168.12C551.876 160.948 551.879 153.777 551.854 146.607C542.2 146.597 532.543 146.608 522.885 146.618H522.883H522.882H522.88H522.878H522.874C504.358 146.639 485.839 146.659 467.319 146.533C451.825 146.12 438.043 133.357 436.081 118.055C433.1 100.377 447.192 82.0656 465.091 80.6196C473.623 80.5261 482.155 80.5451 490.688 80.5641C495.627 80.5751 500.567 80.5861 505.507 80.5753C501.213 87.7995 496.883 94.9994 492.555 102.198C486.769 111.82 480.984 121.44 475.287 131.114C480.373 131.114 485.458 131.112 490.542 131.11H490.544H490.545H490.547H490.549C500.713 131.107 510.876 131.104 521.044 131.114C527.606 120.897 534.142 110.662 540.678 100.428C544.299 94.758 547.92 89.0887 551.544 83.4232C551.49 74.8011 551.497 66.179 551.503 57.557C551.508 52.0726 551.512 46.5881 551.5 41.1037C541.427 41.1037 531.353 41.1021 521.277 41.1004H521.274H521.271H521.268H521.265H521.25C501.092 41.0972 480.93 41.0939 460.767 41.1037ZM795.664 284.604C899.396 273.138 1003.48 264.964 1107.61 258.279C1097.94 260.743 1088.26 263.192 1078.58 265.64L1078.58 265.641C1031.91 277.445 985.224 289.255 939.03 302.856C860.707 325.211 784.331 353.719 708.9 384.264C690.756 373.553 672.58 362.899 654.405 352.245L654.4 352.243L654.395 352.24L654.391 352.237C633.032 339.717 611.674 327.197 590.367 314.587C658.258 301.277 726.946 292.439 795.664 284.604ZM207.806 264.663C153.718 264.685 99.6286 264.707 45.5415 264.639C57.8449 267.346 70.2499 269.637 82.6557 271.928C92.4338 273.735 102.212 275.541 111.942 277.55C169.416 289.001 226.653 301.661 283.419 316.225C386.251 342.313 487.417 374.805 586.501 412.728C669.903 444.475 751.96 479.557 834.013 514.639C866.297 528.442 898.58 542.244 930.944 555.844C927.353 552.902 923.415 550.452 919.479 548.002L919.478 548.002L919.476 548.001C917.785 546.949 916.095 545.897 914.433 544.806C891.098 530.259 867.523 516.129 843.941 501.995L843.936 501.991C842.02 500.843 840.105 499.695 838.19 498.547C732.111 435.097 625.501 372.504 518.315 310.928C511.214 306.932 504.134 302.89 497.053 298.847C476.546 287.138 456.027 275.423 434.945 264.816C359.243 264.601 283.527 264.632 207.806 264.663ZM187.949 454.442C241.866 419.087 301.406 393.191 361.993 371.663C391.756 379.69 421.098 389.272 450.416 398.846L450.418 398.846C456.666 400.887 462.913 402.927 469.164 404.952C421.857 423.706 376.394 447.551 335.447 477.889C309.27 497.573 284.053 519.19 264.133 545.352C205.375 545.382 146.618 545.411 87.8755 545.338C115.779 509.643 150.145 479.291 187.949 454.442ZM505.227 417.286C455.219 439.582 407.942 468.695 367.349 505.599C354.084 517.905 341.143 530.743 330.43 545.395C357.005 545.366 383.58 545.37 410.155 545.373C436.73 545.377 463.306 545.381 489.881 545.351C499.339 531.304 509.565 517.728 521.133 505.334C541.216 483.362 565.268 465.611 589.423 448.421C561.505 437.649 533.469 427.158 505.227 417.286Z" fill="#1A1E22"/>
</svg>
