<svg width="1190" height="183" viewBox="0 0 1190 183" fill="none" xmlns="http://www.w3.org/2000/svg">
<g clip-path="url(#clip0_264_78)">
<path d="M1129.82 80.0514V104.862H1147.26V129.479C1147.31 131.679 1147.19 134.051 1146.82 135.949C1146.12 140.541 1141.76 148.359 1129.38 148.359C1117.08 148.359 1112.8 140.541 1112.05 135.949C1111.74 134.051 1111.61 131.679 1111.61 129.479V51.7278C1111.61 48.9776 1111.79 45.9674 1112.38 43.6891C1113.22 39.5452 1116.9 31.3731 1129.29 31.3731C1142.3 31.3731 1145.55 39.9886 1146.3 43.6891C1146.79 46.14 1146.82 50.2511 1146.82 50.2511V59.6923H1189.66V54.1111C1189.66 54.1111 1189.85 48.2873 1189.33 42.8524C1186.11 10.9398 1159.82 0.843292 1129.67 0.843292C1099.47 0.843292 1073.7 11.0337 1069.95 42.8524C1069.61 45.7621 1069.1 50.996 1069.1 54.1111V125.634C1069.1 128.749 1069.2 131.161 1069.77 136.854C1072.57 167.888 1099.47 178.889 1129.55 178.889C1159.82 178.889 1186.53 167.888 1189.38 136.854C1189.88 131.161 1189.93 128.749 1190 125.634V80.0514H1129.82ZM834.409 5.41971H791.384V131.272C791.452 133.466 791.384 135.93 791.006 137.736C790.108 141.961 786.528 150.091 774.658 150.091C762.94 150.091 759.266 141.961 758.436 137.736C758.006 135.93 757.951 133.466 758.006 131.272V5.41971H714.994V127.367C714.939 130.51 715.186 136.932 715.372 138.614C718.34 170.391 743.385 180.709 774.658 180.709C805.991 180.709 831.021 170.391 834.044 138.614C834.282 136.932 834.595 130.51 834.409 127.367V5.41971ZM439.089 5.41971L417.627 138.4L396.178 5.41971H326.776L323.095 175.54H365.613L366.764 18.0546L396.019 175.54H439.157L468.437 18.0546L469.593 175.54H512.218L508.413 5.41971H439.089ZM182.131 5.41971L150.618 175.54H196.572L220.319 18.0546L243.496 175.54H289.131L257.75 5.41971H182.131ZM984.773 142.387L944.71 5.41971H881.58V173.766H923.342L920.917 32.4173L963.942 173.766H1024.49V5.41971H982.453L984.773 142.387ZM598.48 49.6941C597.724 46.3344 597.942 42.765 598.333 40.8995C599.55 35.4537 603.209 29.5142 613.751 29.5142C623.577 29.5142 629.337 35.6394 629.337 44.8315V55.2339H671.279V43.3767C671.279 6.72163 638.416 0.963425 614.623 0.963425C584.657 0.963425 560.184 10.8415 555.715 38.4223C554.533 45.9281 554.24 52.5907 556.121 61.0926C563.408 95.4823 623.278 105.459 631.967 127.207C633.501 131.327 633.062 136.581 632.28 139.676C630.978 145.336 627.17 151.028 615.883 151.028C605.297 151.028 598.925 144.943 598.925 135.77L598.912 119.444H553.768V132.421C553.768 170.027 583.224 181.373 614.948 181.373C645.332 181.373 670.427 170.99 674.453 142.846C676.373 128.304 674.925 118.832 674.154 115.265C667.12 79.9924 603.31 69.3825 598.48 49.6941ZM45.218 49.2769C44.3945 45.8473 44.5867 42.2277 45.0454 40.3403C46.2076 34.9207 49.8883 28.8763 60.6162 28.8763C70.5663 28.8763 76.425 35.0605 76.425 44.3269V54.856H118.858V42.9048C118.858 5.89812 85.4927 9.15527e-05 61.4397 9.15527e-05C31.2223 9.15527e-05 6.53149 10.0311 2.01405 37.8107C0.777657 45.4366 0.565696 52.1451 2.35258 60.7409C9.71853 95.5216 70.1797 105.579 78.9765 127.587C80.6235 131.679 80.1255 136.932 79.3085 140.148C77.9127 145.867 74.0746 151.64 62.6936 151.64C52.0663 151.64 45.7096 145.449 45.7096 136.15L45.6506 119.78H0V132.788C0 170.824 29.8723 182.262 61.8439 182.262C92.5812 182.262 117.823 171.787 121.94 143.317C123.987 128.642 122.451 119.092 121.761 115.47C114.581 79.7652 50.061 69.1903 45.218 49.2769Z" fill="#1A1E22"/>
</g>
<defs>
<clipPath id="clip0_264_78">
<rect width="1190" height="182.262" fill="white"/>
</clipPath>
</defs>
</svg>
