<svg width="24" height="24" viewBox="0 0 24 24" fill="none" xmlns="http://www.w3.org/2000/svg">
<path fill-rule="evenodd" clip-rule="evenodd" d="M15 9.00585C15 12.3195 12.3137 15.0058 9 15.0058C5.68629 15.0058 3 12.3195 3 9.00585C3 5.69215 5.68629 3.00586 9 3.00586C12.3137 3.00586 15 5.69215 15 9.00585ZM14.2172 16.3402C12.7456 17.3889 10.9448 18.0058 9 18.0058C4.02944 18.0058 0 13.9764 0 9.00585C0 4.03529 4.02944 0.00585938 9 0.00585938C13.9706 0.00585938 18 4.03529 18 9.00585C18 10.9477 17.385 12.7459 16.3391 14.2164L24 21.8772L21.8771 24.0001L14.2172 16.3402Z" fill="#1A1E22"/>
</svg>
