<svg width="1424" height="611" viewBox="0 0 1424 611" fill="none" xmlns="http://www.w3.org/2000/svg">
<path fill-rule="evenodd" clip-rule="evenodd" d="M116.639 5.60216C117.954 24.0712 119.275 49.4061 118.939 49.7356C118.721 49.9487 100.052 48.3633 77.4512 46.2113C54.8504 44.06 36.1721 42.4857 35.9441 42.7137C35.716 42.9418 36.2053 51.6146 37.0311 61.9859C37.8563 72.3578 38.3657 81.0098 38.1623 81.2132C37.9589 81.4172 30.0879 79.249 20.6718 76.396C11.255 73.5436 3.43334 71.3266 3.28975 71.4702C3.14616 71.6138 13.3394 124.527 25.9419 189.055C38.545 253.583 48.733 306.5 48.5836 306.651C48.4335 306.801 37.5333 302.685 24.3617 297.505C11.1894 292.326 0.228145 288.171 0.00333287 288.271C-0.22083 288.371 10.8911 330.955 24.6976 382.9L49.8006 477.347L46.6493 476.929C43.5318 476.515 43.4974 476.53 43.5143 478.32C43.539 480.868 59.4785 610.366 59.8015 610.638C60.1562 610.936 270.259 525.733 270.259 525.29C270.259 525.099 258.782 522.502 244.756 519.517C230.73 516.533 219.038 513.894 218.774 513.654C218.387 513.301 241.426 271.76 241.868 271.533C241.938 271.497 257.345 267.393 276.107 262.413L310.218 253.358L310.416 251.334C310.534 250.117 310.275 249.175 309.766 248.972C290.045 241.106 242.474 221.562 242.033 221.144C241.406 220.552 253.091 154.445 254 153.437C254.258 153.152 259.702 151.677 266.1 150.158L277.731 147.399V145.209V143.019L267.7 139.675C262.184 137.836 257.545 135.958 257.394 135.503C257.242 135.047 259.975 119.056 263.469 99.9668C266.962 80.8779 269.627 65.0669 269.392 64.8317C269.156 64.5959 243.682 61.9937 212.783 59.049C181.884 56.1044 156.291 53.5911 155.91 53.4644C155.529 53.3371 171.672 49.7511 191.784 45.4946C211.895 41.2388 228.716 37.6282 229.162 37.4722C229.609 37.3156 229.972 36.2689 229.969 35.1455L229.964 33.1033L174.052 16.8597C143.3 7.92564 117.715 0.520489 117.197 0.404184C116.408 0.227453 116.317 1.07667 116.639 5.60216ZM121.069 10.8495C121.291 13.44 123.673 52.6932 126.361 98.078C129.05 143.463 131.361 180.915 131.496 181.305C131.735 181.991 143 186.244 143.433 185.811C143.552 185.692 142.491 155.816 141.076 119.42C139.661 83.024 138.69 53.0493 138.919 52.8102C139.148 52.5704 157.694 48.4789 180.133 43.7182C205.419 38.3539 220.489 34.881 219.768 34.5841C217.819 33.7823 122.254 6.13884 121.432 6.13884C120.875 6.13884 120.776 7.43314 121.069 10.8495ZM8.54555 78.4322C8.70084 79.2314 18.8934 131.411 31.1957 194.388L53.5632 308.891L58.385 310.854C61.0373 311.935 63.2834 312.742 63.377 312.649C63.4699 312.555 56.1694 270.087 47.1535 218.273C36.3385 156.124 30.9923 123.931 31.4433 123.668C31.8195 123.448 48.0618 119.529 67.538 114.96C87.0141 110.39 103.161 106.469 103.42 106.247C103.794 105.926 71.1512 95.878 11.4233 77.9287C8.27981 76.984 8.26421 76.9865 8.54555 78.4322ZM183.835 135.601C183.831 146.411 183.103 234.054 182.218 330.362C181.333 426.671 180.606 509.781 180.601 515.051L180.594 524.633L182.706 525.517C183.867 526.003 184.904 526.332 185.01 526.247C185.162 526.125 196.144 170.217 196.187 164.027C196.198 162.425 196.549 162.32 222.02 156.32C263.198 146.619 269.683 145.042 269.427 144.786C269.049 144.408 185.23 115.946 184.496 115.946C184.073 115.946 183.84 122.859 183.835 135.601ZM38.9491 125.917C37.341 126.263 35.909 126.641 35.766 126.757C35.6237 126.873 38.2513 142.775 41.6047 162.094C44.9587 181.412 47.7851 196.972 47.8851 196.671C48.093 196.047 42.3246 125.566 42.0517 125.399C41.9536 125.338 40.5573 125.572 38.9491 125.917ZM78.8143 170.029C79.0229 171.195 89.0134 249.477 101.016 343.99C113.019 438.501 122.922 515.912 123.022 516.013C123.123 516.113 124.13 515.874 125.26 515.48C126.849 514.926 127.315 514.384 127.315 513.089C127.315 512.167 120.275 444.759 111.672 363.292C100.363 256.207 96.2328 215.043 96.7642 214.715C97.1684 214.465 111.956 210.512 129.625 205.929C147.294 201.347 161.751 197.428 161.75 197.219C161.749 197.01 147.496 191.898 130.075 185.857C112.654 179.817 93.9086 173.308 88.4183 171.392L78.4355 167.908L78.8143 170.029ZM920.466 177.643C906.961 178.975 895.681 180.331 895.4 180.656C894.985 181.134 879.585 397.484 879.69 401.347C879.719 402.41 881.389 402.484 905.406 402.484C925.384 402.484 931.149 402.304 931.351 401.672C931.494 401.226 934.995 351.739 939.132 291.703C943.268 231.666 946.825 180.864 947.037 178.809C947.383 175.453 947.3 175.081 946.222 175.147C945.561 175.188 933.971 176.311 920.466 177.643ZM399.234 179.033C360.168 182.589 329.352 205.615 322.374 236.463C320.775 243.528 320.992 259.671 322.774 266.23C326.998 281.781 336.61 292.433 354.28 301.145C359.709 303.822 367.781 306.851 380.363 310.932C390.385 314.182 401.039 318.013 404.04 319.443C410.842 322.688 415.181 326.797 416.4 331.152C418.964 340.311 412.523 348.631 399.559 352.907C394.444 354.593 393.315 354.723 384.289 354.664C376.457 354.612 373.523 354.322 369.345 353.187C360.377 350.75 353.152 346.812 346.819 340.908L343.785 338.079L325.472 358.399L307.16 378.719L309.014 380.237C316.949 386.736 329.46 393.402 340.897 397.225C355.183 402 367.619 403.898 384.614 403.896C415.822 403.893 440.905 394.695 457.758 377.075C469.272 365.037 475.105 351.684 476.837 333.403C477.563 325.743 476.94 316.418 475.266 309.895C472.916 300.733 466.621 290.951 459.061 284.716C449.947 277.198 438.965 272.289 414.503 264.798C392.976 258.205 385.692 254.421 382.724 248.29C376.762 235.975 389.705 224.188 409.017 224.346C422.738 224.459 431.689 228.053 445.213 238.878C446.995 240.304 447.02 240.306 448.203 239.045C448.859 238.346 456.35 230.072 464.848 220.659C482.632 200.96 481.728 203.76 472.33 197.483C456.758 187.082 437.608 180.628 417.495 179C408.314 178.257 407.746 178.258 399.234 179.033ZM500.925 182.117C500.929 182.352 499.868 193.301 498.568 206.447C497.267 219.594 496.341 230.489 496.51 230.657C496.68 230.827 514.563 225.504 536.251 218.83C557.938 212.155 575.454 206.488 575.174 206.238C574.894 205.987 561.069 201.314 544.452 195.852C505.382 183.01 500.918 181.602 500.925 182.117ZM751.071 184.18C751.071 184.548 747.709 232.544 743.599 290.841C739.49 349.137 736.127 398.105 736.127 399.659V402.484H764.339H792.552L792.94 398.423C793.153 396.19 794.196 380.62 795.259 363.824C796.32 347.028 797.368 331.316 797.587 328.908L797.984 324.528L826.02 324.359L854.056 324.19L855.473 304.373C856.253 293.473 856.911 283.313 856.935 281.794L856.98 279.032H829.041C803.526 279.032 801.102 278.94 801.102 277.962C801.102 275.79 803.737 238.33 804.078 235.662L804.431 232.9H843.08H881.73L881.333 230.789C881.114 229.628 878.823 218.59 876.242 206.261L871.547 183.845L811.309 183.679C770.416 183.566 751.071 183.727 751.071 184.18ZM138.685 207.851C134.105 209.09 133.467 209.447 133.316 210.845C132.99 213.88 151.279 514.424 151.823 514.968C152.124 515.269 153.311 515.704 154.46 515.934L156.55 516.352L156.222 512.535C156.041 510.436 153.397 441.761 150.344 359.926C147.292 278.09 144.59 210.079 144.339 208.789L143.883 206.444L138.685 207.851ZM1398.87 213.459C1395.28 215.08 1392.06 218.084 1390.21 221.53C1389.12 223.567 1388.82 225.252 1388.82 229.327C1388.82 235.201 1390.01 238.189 1393.78 241.801C1402.28 249.948 1416.87 247.57 1422.47 237.124C1423.56 235.087 1423.86 233.401 1423.86 229.327C1423.86 225.252 1423.56 223.567 1422.47 221.53C1419.19 215.417 1413.56 212.137 1406.34 212.137C1403.16 212.137 1400.91 212.534 1398.87 213.459ZM1402.5 216.164C1398.66 217.178 1394.7 221.479 1393.68 225.729C1390.64 238.366 1404 248.104 1413.92 240.495C1417.67 237.62 1419.33 234.177 1419.3 229.327C1419.26 222.707 1415.61 217.718 1409.59 216.075C1406.57 215.25 1405.92 215.258 1402.5 216.164ZM1399.52 229.37V239.484L1401.31 239.278C1403.02 239.081 1403.1 238.904 1403.29 235.012C1403.45 231.55 1403.66 230.951 1404.69 230.951C1405.51 230.951 1406.67 232.329 1408.27 235.175C1410.17 238.581 1410.94 239.398 1412.22 239.398C1414.33 239.398 1414.21 238.463 1411.55 234.2C1409.5 230.919 1409.42 230.609 1410.58 230.42C1412.32 230.136 1414.46 227.231 1414.46 225.161C1414.46 221.135 1411.02 219.266 1403.58 219.26L1399.52 219.256V229.37ZM230.994 224.616C230.472 228.631 207.866 529.716 207.875 532.532C207.882 534.576 208.151 534.999 209.811 535.578C211.656 536.22 211.753 536.161 212.072 534.179C212.255 533.041 218.14 472.754 225.15 400.21C232.159 327.666 237.939 268.291 237.995 268.265C238.051 268.241 251.692 264.613 268.31 260.204C284.927 255.795 299.53 251.912 300.761 251.575C302.392 251.129 302.745 250.82 302.061 250.442C300.85 249.77 232.13 221.855 231.688 221.855C231.504 221.855 231.192 223.097 230.994 224.616ZM1403.42 225.103V227.702H1406.21C1409.19 227.702 1410.56 226.85 1410.56 224.996C1410.56 223.502 1408.63 222.504 1405.73 222.504C1403.46 222.504 1403.42 222.557 1403.42 225.103ZM1269.57 228.415C1237.98 236.003 1228.27 236.744 1202 233.571C1177.67 230.634 1161.58 232.706 1144.49 240.972C1127.72 249.084 1116.29 260.301 1108.68 276.109C1102.96 287.972 1100.35 302.015 1101.92 312.387C1104.47 329.222 1114.67 344.12 1129.82 353.116C1132.35 354.62 1134.42 356.052 1134.42 356.298C1134.42 356.545 1133.4 359.779 1132.15 363.485C1130.9 367.191 1129.98 370.322 1130.1 370.445C1130.23 370.566 1133.95 369.671 1138.39 368.455C1151.32 364.91 1158.14 363.932 1169.83 363.938C1178.41 363.943 1181.12 364.186 1185.31 365.33C1194.4 367.812 1201.71 372.81 1204.64 378.543C1207.32 383.777 1207.34 392.203 1204.69 398.188C1201.66 405.051 1192.73 411.257 1181.53 414.288C1174.02 416.32 1158.47 416.317 1150.99 414.281C1141.61 411.731 1131.85 406.332 1125.21 400.035L1122.83 397.77L1107.35 412.26C1098.83 420.23 1091.78 426.946 1091.68 427.185C1091.34 428 1101.13 436.78 1106.2 440.194C1128 454.911 1157.35 460.101 1188.68 454.781C1235.69 446.796 1262.49 419.885 1257.91 385.253C1255.99 370.707 1249.14 360.357 1235.08 350.748L1230.63 347.704L1234.93 345.19C1244.87 339.378 1252.36 331.431 1256.84 321.916C1260.67 313.787 1261.44 309.898 1261.44 298.525C1261.45 286.668 1260.44 282.641 1255.25 273.723C1253.27 270.332 1252.37 268.177 1252.8 267.908C1253.19 267.672 1256.3 267.268 1259.73 267.012C1263.16 266.754 1266.56 266.317 1267.29 266.039C1268.33 265.644 1269.35 263.182 1272.04 254.578C1273.92 248.552 1276.74 239.601 1278.3 234.687C1279.86 229.774 1280.95 225.773 1280.71 225.797C1280.48 225.821 1275.47 226.999 1269.57 228.415ZM1007.09 233.269C999.992 234.181 986.734 236.828 981.754 238.329L978.852 239.204L973.771 260.502C970.976 272.217 968.774 281.876 968.876 281.969C968.978 282.061 972.862 280.869 977.508 279.319C992.952 274.169 1008.52 272.029 1021.96 273.208C1030.25 273.935 1034.56 275.131 1038.07 277.669C1043.49 281.597 1045.41 286.639 1045.41 296.98C1045.41 300.646 1045.14 303.808 1044.82 304.006C1044.5 304.204 1042.24 303.193 1039.79 301.759C1033.67 298.176 1026.74 295.605 1018.72 293.943C1013.04 292.767 1010.58 292.597 1003.5 292.892C974.443 294.103 951.052 310.666 944 335.022C942.294 340.914 941.607 354.523 942.671 361.359C944.511 373.183 948.741 381.845 956.421 389.509C967.193 400.259 984.997 405.523 1004.72 403.79C1012.53 403.104 1013.5 402.915 1020.15 400.776C1026.86 398.616 1031.83 395.509 1037.45 389.957C1040.04 387.395 1042.15 385.584 1042.14 385.932C1042.13 386.28 1041.7 389.636 1041.18 393.388C1040.67 397.14 1040.24 400.722 1040.23 401.347C1040.21 402.409 1041.72 402.484 1062.97 402.484C1080.6 402.484 1085.79 402.301 1086 401.672C1086.15 401.226 1088.07 375.276 1090.27 344.007C1094.49 284.069 1094.72 276.417 1092.51 268.312C1087.25 249.001 1070.84 236.946 1044.76 233.243C1036.3 232.043 1016.54 232.057 1007.09 233.269ZM1332.92 232.659C1307.9 236.396 1290.55 247.27 1282.23 264.413C1277.72 273.72 1277.05 276.977 1277.06 289.753C1277.07 300.114 1277.18 301.115 1278.86 305.885C1282.91 317.448 1290.44 325.08 1302.93 330.279C1308.93 332.776 1314.38 334.265 1329.37 337.508C1347.54 341.437 1352.86 344.674 1351.77 351.135C1350.96 355.926 1347 360.055 1341.77 361.566C1336.42 363.108 1327.92 363.692 1321.77 362.937C1310.66 361.572 1301.89 357.864 1294.33 351.344L1291.16 348.61L1287.96 352.319C1286.21 354.358 1279.76 361.913 1273.64 369.106L1262.52 382.184L1267.51 385.74C1284.22 397.651 1297.91 402.444 1319.08 403.792C1347.36 405.593 1370.58 398.029 1385.73 382.079C1395.81 371.463 1400.18 360.096 1400.16 344.522C1400.13 325.476 1393.36 313.85 1377.95 306.382C1370.86 302.947 1364.78 301.181 1347.7 297.59C1332.54 294.403 1326.87 291.469 1325.41 286.048C1323.24 278 1330.15 272.992 1343.36 273.037C1352.06 273.067 1360.49 275.659 1368.42 280.746L1370.14 281.847L1385.24 268.28L1400.35 254.715L1397.26 251.915C1391.02 246.269 1379.83 239.788 1370.93 236.669C1361.6 233.399 1357.92 232.789 1346.24 232.576C1339.99 232.462 1333.99 232.5 1332.92 232.659ZM496.748 241.51C496.565 242.671 494.07 277.977 491.203 319.966C488.337 361.956 485.847 397.554 485.671 399.073L485.35 401.835H511.002C525.112 401.835 536.674 401.762 536.697 401.672C536.979 400.597 548.058 240.239 547.875 239.885C547.737 239.618 536.252 239.398 522.352 239.398H497.08L496.748 241.51ZM568.493 240.445C568.493 240.671 579.034 257.211 591.918 277.199C604.802 297.189 615.487 313.917 615.662 314.373C615.838 314.83 599.723 334.769 579.853 358.682L543.726 402.159L574.065 402.328C595.534 402.448 604.658 402.287 605.272 401.777C605.749 401.382 614.115 390.554 623.862 377.715C637.483 359.775 641.735 354.582 642.236 355.28C642.595 355.779 648.723 366.604 655.854 379.336L668.82 402.484H698.575C715.947 402.484 728.33 402.239 728.33 401.895C728.33 401.571 716.323 382.097 701.647 358.62C686.971 335.143 675.102 315.598 675.272 315.189C675.442 314.779 689.131 298.195 705.692 278.335C722.253 258.476 736.204 241.737 736.694 241.137C737.526 240.12 735.617 240.05 708.105 240.076L678.625 240.104L663.789 259.96L648.953 279.816L637.743 260.094L626.531 240.373L597.512 240.204C581.551 240.111 568.493 240.219 568.493 240.445ZM1179.22 273.243C1169.77 274.586 1160.61 280.201 1155.63 287.705C1151.85 293.402 1150.49 298.448 1150.78 305.723C1150.99 311.131 1151.3 312.502 1153.11 316.177C1158.55 327.233 1171.58 333.729 1184.35 331.757C1198.52 329.57 1210.24 318.38 1212.56 304.823C1215.72 286.384 1198.89 270.445 1179.22 273.243ZM5.81207 295.132C5.81207 295.899 69.4301 535.192 69.7081 535.47C70.1448 535.907 73.3857 534.439 73.3857 533.804C73.3857 533.468 62.8455 490.007 49.963 437.224C37.0805 384.441 26.628 341.175 26.7346 341.078C26.8418 340.981 38.7705 337.03 53.2436 332.299C72.4228 326.029 79.2061 323.56 78.2588 323.192C76.0211 322.324 12.8137 297.428 9.22324 296.001C7.34677 295.255 5.81207 294.864 5.81207 295.132ZM1010.36 324.833C1001.71 326.796 995.287 331.42 992.435 337.734C988.138 347.246 990.583 356.453 998.891 362.043C1007.41 367.778 1022.48 367.732 1031.65 361.943C1041.74 355.576 1045.08 341.75 1038.63 333.023C1036.38 329.978 1031.49 326.628 1027.57 325.451C1022.71 323.994 1015.24 323.725 1010.36 324.833ZM62.214 333.705C60.0471 334.46 58.6228 335.313 58.7755 335.765C58.9191 336.189 67.2547 378.785 77.2985 430.423C87.3423 482.062 95.674 524.667 95.8137 525.101C96.199 526.295 100.026 524.783 100.023 523.436C100.021 522.392 67.8895 336.691 67.206 333.774C66.8031 332.054 66.9428 332.056 62.214 333.705ZM42.9984 339.959C35.9804 342.257 31.8019 343.946 31.8019 344.485C31.8019 345.206 63.7233 476.761 64.6492 479.855C64.8695 480.593 67.549 481.439 74.2063 482.872C79.2939 483.967 83.5088 484.818 83.5724 484.763C83.7238 484.631 76.7001 448.544 76.3148 447.471C76.1003 446.876 75.0504 446.766 72.4735 447.069L68.9278 447.485L68.5763 445.29C68.3827 444.082 67.0318 428.474 65.5745 410.606C62.9313 378.208 62.9131 378.062 58.8717 357.519C56.643 346.19 54.6789 336.779 54.5067 336.607C54.3351 336.435 49.156 337.944 42.9984 339.959ZM216.433 357.652C216.433 358.545 216.58 358.911 216.76 358.464C216.941 358.018 216.941 357.287 216.76 356.84C216.58 356.393 216.433 356.758 216.433 357.652ZM208.86 398.362L201.715 437.448L197.002 437.89C194.41 438.133 192.255 438.38 192.213 438.438C192.081 438.621 189.884 507.409 190.004 507.578C190.189 507.838 204.833 511.011 205.013 510.83C205.34 510.503 216.406 362.095 216.208 360.701C216.096 359.917 212.789 376.865 208.86 398.362ZM164.423 440.24C161.068 440.539 158.165 440.94 157.973 441.132C157.406 441.7 159.842 500.869 160.449 501.244C161.283 501.759 176.042 504.717 176.317 504.424C176.449 504.284 176.667 489.623 176.803 471.845L177.05 439.52L173.787 439.609C171.991 439.658 167.778 439.942 164.423 440.24ZM130.108 442.729C127.178 442.954 124.671 443.273 124.538 443.44C124.405 443.607 125.498 455.09 126.966 468.96C128.807 486.336 129.897 494.336 130.471 494.692C131.577 495.375 145.478 498.243 145.855 497.866C146.017 497.705 145.42 485.628 144.529 471.031C143.638 456.432 142.909 443.956 142.909 443.304C142.909 441.994 140.876 441.902 130.108 442.729ZM100.025 444.952C95.201 445.272 91.1751 445.599 91.079 445.679C90.9835 445.759 92.5182 455.051 94.4901 466.328C96.4628 477.605 98.0761 487.105 98.0761 487.439C98.0761 488.025 114.819 491.867 115.295 491.39C115.677 491.008 109.714 445.074 109.235 444.707C108.994 444.523 104.85 444.633 100.025 444.952Z" fill="#1A1E22"/>
</svg>
