<svg width="28" height="28" viewBox="0 0 28 28" fill="none" xmlns="http://www.w3.org/2000/svg">
<path fill-rule="evenodd" clip-rule="evenodd" d="M14 28C21.732 28 28 21.732 28 14C28 6.26801 21.732 0 14 0C6.26801 0 0 6.26801 0 14C0 21.732 6.26801 28 14 28ZM19.6245 12.3105C19.6245 15.8178 16.9522 19.8754 12.0596 19.8754C10.5564 19.8754 9.16131 19.4333 7.99219 18.6866C8.20833 18.7161 8.41464 18.7259 8.63078 18.7259C9.8785 18.7259 11.0182 18.2936 11.9318 17.5863C10.7627 17.5666 9.78026 16.8003 9.44622 15.7392C9.61324 15.7687 9.78026 15.7884 9.94728 15.7884C10.1831 15.7884 10.4287 15.7491 10.6448 15.6901C9.42657 15.4445 8.51289 14.3736 8.51289 13.0866V13.0571C8.86657 13.2634 9.27921 13.3813 9.71149 13.3912C8.99429 12.9196 8.52271 12.1041 8.52271 11.1806C8.52271 10.6894 8.65043 10.2375 8.8764 9.8445C10.1929 11.4557 12.148 12.5168 14.3585 12.6249C14.3094 12.4284 14.2897 12.222 14.2897 12.0157C14.2897 10.542 15.4883 9.35327 16.9522 9.35327C17.7185 9.35327 18.416 9.66766 18.8975 10.1884C19.5066 10.0606 20.0764 9.8445 20.5873 9.53994C20.3908 10.1687 19.9683 10.6796 19.4182 11.0136C19.9585 10.9449 20.4694 10.7975 20.941 10.5912C20.5873 11.1217 20.1353 11.5933 19.6146 11.9666C19.6245 12.0747 19.6245 12.1925 19.6245 12.3104V12.3105Z" fill="white"/>
</svg>
