<svg width="1394" height="332" viewBox="0 0 1394 332" fill="none" xmlns="http://www.w3.org/2000/svg">
<g clip-path="url(#clip0_2032_2)">
<path d="M1381.32 93.6019C1381.32 91.8976 1380.39 90.1934 1378.07 90.1934H1373.88V101.171H1375.43V97.1654H1376.83L1379.61 101.171H1381.47L1378.53 96.9883C1380.54 96.8555 1381.32 95.1512 1381.32 93.6019ZM1375.45 95.616V91.6099H1378.24C1379.48 91.6099 1379.95 92.6944 1379.95 93.624C1379.95 94.5536 1379.48 95.6382 1378.09 95.6382L1375.45 95.616Z" fill="#1A1E22"/>
<path d="M1377.29 86.1885C1372.02 86.1885 1367.86 90.3717 1367.86 95.6173C1367.86 100.885 1372.05 105.046 1377.29 105.046C1382.54 105.046 1386.72 100.863 1386.72 95.6173C1386.74 90.3495 1382.4 86.1885 1377.29 86.1885ZM1377.29 103.652C1372.8 103.652 1369.26 100.088 1369.26 95.6173C1369.1 91.1242 1372.82 87.5829 1377.29 87.5829C1381.76 87.5829 1385.33 91.1463 1385.33 95.6173C1385.35 100.11 1381.78 103.652 1377.29 103.652Z" fill="#1A1E22"/>
<path d="M1199.14 59.7593C1213.19 59.7593 1224.57 48.6608 1224.57 34.97C1224.57 21.2792 1213.19 10.1807 1199.14 10.1807C1185.09 10.1807 1173.71 21.2792 1173.71 34.97C1173.71 48.6608 1185.09 59.7593 1199.14 59.7593Z" fill="#1A1E22"/>
<path d="M117.638 246.807L42.9606 172.107L17.1974 197.871C14.6078 200.46 14.2979 202.386 15.2718 205.595L27.5115 253.248C28.7953 258.405 31.3627 260.973 36.5198 262.256L84.1729 274.496C87.3822 275.47 89.3299 275.138 91.8974 272.571L117.638 246.807ZM129.878 246.807L155.641 272.571C158.231 275.16 160.157 275.47 163.366 274.496L211.019 262.256C216.176 260.973 218.744 258.405 220.027 253.248L232.267 205.595C233.241 202.386 232.909 200.438 230.341 197.871L204.578 172.107L129.878 246.807ZM129.878 85.1898L204.578 159.89L230.341 134.127C232.931 131.537 233.241 129.611 232.267 126.402L220.027 78.749C218.744 73.592 216.176 71.0245 211.019 69.7408L163.366 57.501C160.157 56.5272 158.209 56.8592 155.641 59.4266L129.878 85.1898ZM117.638 85.1898L91.8974 59.4266C89.3078 56.837 87.3822 56.5272 84.1729 57.501L36.5198 69.7408C31.3627 71.0245 28.7953 73.592 27.5115 78.749L15.2718 126.38C14.2979 129.589 14.6299 131.537 17.1974 134.104L42.9606 159.868L117.638 85.1898ZM968.001 118.346H928.383V234.855C928.383 237.767 927.226 240.559 925.167 242.618C923.108 244.677 920.316 245.834 917.404 245.834H886.528V118.346H850.495L802.687 253.89C783.365 308.294 764.374 322.459 730.577 322.459C724.136 322.459 713.844 321.175 703.53 319.25L712.649 289.303H727.368C743.613 289.303 752.179 284.257 757.801 270.092C763.401 255.904 763.533 253.713 763.6 253.58L706.274 86.1637H742.595C747.42 86.1637 751.67 89.3066 753.086 93.9104L785.468 199.154L819.597 95.172C821.855 88.7312 824.754 86.1637 831.195 86.1637H886.55V81.6485C886.55 34.3274 908.44 9.53809 949.985 9.53809C956.425 9.53809 970.989 10.689 979.688 12.6368L970.502 42.6938H958.351C941.817 42.6938 928.405 56.1066 928.405 72.6402V86.1637H977.784L968.001 118.346ZM443.463 197.871L411.281 93.2464C409.666 87.7794 407.43 86.1637 401.941 86.1637H371.353C365.886 86.1637 363.628 87.7794 362.013 93.2464L329.499 197.871L300.526 86.1637H254.489L300.858 238.773C302.474 244.24 304.709 245.856 310.198 245.856H342.07C347.537 245.856 349.795 244.24 351.411 238.773L385.208 131.249L419.338 238.773C420.954 244.24 423.189 245.856 428.678 245.856H457.341C462.808 245.856 465.065 244.24 466.681 238.773L513.05 86.1637H472.768L443.463 197.871ZM1178.2 86.1637H1220.06V245.856H1178.2V86.1637ZM646.072 95.172L645.098 113.543C635.116 89.705 614.842 82.9543 591.004 82.9543C547.224 82.9543 519.845 122.551 519.845 166.021C519.845 209.491 547.202 249.087 591.004 249.087C614.842 249.087 635.116 242.314 645.098 218.499L646.072 236.87C646.072 242.978 648.971 245.878 654.128 245.878H687.616V86.1637H654.128C648.971 86.1637 646.072 89.041 646.072 95.172ZM602.89 215.666C576.485 215.666 561.39 193.665 561.39 165.999C561.39 138.332 576.463 116.331 602.89 116.331C629.317 116.331 644.39 138.332 644.39 165.999C644.39 193.665 629.295 215.666 602.89 215.666ZM1101.44 95.172L1100.47 113.543C1090.49 89.705 1070.21 82.9543 1046.38 82.9543C1002.6 82.9543 975.217 122.551 975.217 166.021C975.217 209.491 1002.57 249.087 1046.38 249.087C1070.21 249.087 1090.49 242.314 1100.47 218.499L1101.44 236.87C1101.44 242.978 1104.34 245.878 1109.5 245.878H1142.99V86.1637H1109.5C1104.36 86.1637 1101.44 89.041 1101.44 95.172ZM1058.28 215.666C1031.88 215.666 1016.78 193.665 1016.78 165.999C1016.78 138.332 1031.86 116.331 1058.28 116.331C1084.71 116.331 1099.78 138.332 1099.78 165.999C1099.78 193.665 1084.69 215.666 1058.28 215.666ZM1347.88 84.548C1323.09 84.548 1305.38 92.1618 1297.65 121.776L1297.01 95.172C1297.01 89.0632 1294.11 86.1637 1288.96 86.1637H1255.47V245.856H1297.32V165.999C1297.32 138 1313.41 119.961 1341.1 119.961H1348.65L1358.81 86.5621C1354.91 84.9021 1350.77 84.548 1347.88 84.548Z" fill="#1A1E22"/>
</g>
<defs>
<clipPath id="clip0_2032_2">
<rect width="1393.34" height="332" fill="white"/>
</clipPath>
</defs>
</svg>
