<?xml version="1.0" encoding="utf-8"?>
<!-- Generator: Adobe Illustrator 25.0.1, SVG Export Plug-In . SVG Version: 6.00 Build 0)  -->
<svg version="1.1" id="Layer_1" xmlns="http://www.w3.org/2000/svg" xmlns:xlink="http://www.w3.org/1999/xlink" x="0px" y="0px"
	 viewBox="0 0 288 288" style="enable-background:new 0 0 288 288;" xml:space="preserve">
<style type="text/css">
	.st0{fill:#FFFFFF;}
</style>
<g id="u0hU40.tif">
	<g>
		<path class="st0" d="M142.6,1.4c80.2-0.3,143.1,63.3,143.8,141.1c0.7,80.3-63.2,143.4-141,144C65.2,287.2,2.3,223.3,1.6,145.4
			C1,65.2,64.8,2.4,142.6,1.4z M144.1,93.4c0,0,0-0.1,0-0.1c-3.2,0-6.4,0-9.6,0c-6.7,0.1-13.4,0.1-20.1,0.4
			c-6,0.2-12.1,0.7-18.1,1.2c-3.1,0.3-6.2,0.6-9.1,1.5c-5.8,1.7-9.8,5.5-11.8,11.2c-0.8,2.3-1.4,4.8-1.7,7.3
			c-1,7.5-1.7,15.1-1.7,22.7c0,8.7-0.2,17.5,0.7,26.2c0.5,5.6,0.9,11.2,2.6,16.5c1.8,5.6,5.7,9.5,11.2,11.3c2.8,0.9,5.9,1.3,8.9,1.6
			c4.4,0.4,8.7,0.7,13.1,0.9c6.8,0.3,13.6,0.7,20.4,0.7c10,0.1,20.1,0.1,30.1,0c5,0,10-0.2,14.9-0.4c5.9-0.3,11.8-0.7,17.7-1.2
			c3-0.3,6-0.6,8.9-1.4c5.9-1.7,9.9-5.5,11.9-11.3c0.7-2.1,1.2-4.4,1.6-6.6c1.1-7.5,1.7-15.1,1.8-22.7c0-8.9,0.2-17.8-0.6-26.7
			c-0.5-5.6-0.8-11.2-2.6-16.5c-2.4-7.1-7.5-11.1-14.8-12.3c-3.3-0.6-6.6-0.9-9.9-1.1c-6.9-0.5-13.9-0.9-20.8-1.1
			C159.6,93.2,151.9,93.4,144.1,93.4z"/>
		<path class="st0" d="M129.9,164.6c-0.1-1-0.2-1.7-0.2-2.4c0-9,0-17.9-0.1-26.9c0-3.2-0.1-6.4-0.1-9.6c0-0.7,0.1-1.4,0.2-2.4
			c0.9,0.4,1.5,0.6,2.1,0.9c4.5,2.5,9,5.1,13.5,7.6c6.6,3.8,13.3,7.6,19.9,11.3c0.2,0.1,0.4,0.2,0.6,0.4c0.2,0.9-0.5,1.1-1,1.4
			c-3.7,2.1-7.3,4.2-11,6.3c-7.3,4.1-14.5,8.3-21.8,12.4C131.5,164,130.8,164.2,129.9,164.6z"/>
	</g>
</g>
</svg>
